<?xml version="1.0" encoding="utf-8"?><!--Generator: Adobe Illustrator 17.0.0, SVG Export Plug-In . SVG Version: 6.00 Build 0)--><!DOCTYPE svg PUBLIC "-//W3C//DTD SVG 1.1//EN" "http://www.w3.org/Graphics/SVG/1.1/DTD/svg11.dtd"><svg version="1.1" id="Layer_2" xmlns="http://www.w3.org/2000/svg" xmlns:xlink="http://www.w3.org/1999/xlink" x="0px" y="0px" viewBox="0 0 700 700" enable-background="new 0 0 700 700" xml:space="preserve"><path stroke-miterlimit="10" d="M495.494,247.079c-1.556-0.259-21.265-8.039-21.265-8.039
	c-20.746-6.224-68.462,4.668-68.462,4.668c-5.186,1.383-15.559,1.037-15.559,1.037l-90.072-2.939
	c-27.142-18.153-50.482-24.29-50.482-24.29c-8.428-2.723-24.247-25.543-24.247-25.543c-16.078-21.005-37.991-37.991-37.991-37.991
	c-5.705-2.593-25.154-20.487-25.154-20.487c-12.448-8.298-30.341-8.817-30.341-8.817c-11.151,0.778-42.789,11.41-42.789,11.41
	c-18.412,9.854-14.263,17.893-14.263,17.893s0.13,2.075-6.613,5.835c0,0-13.096,9.076-14.393,10.632
	c0,0-19.968,12.188-23.987,12.577c0,0-12.318,5.446-11.151,13.096c0,0,1.297,7.52,9.725,12.837c0,0,1.556,1.556,2.334,4.538
	c0,0,5.964,14.004,31.249,14.004c0,0,8.298,0.389,14.781-2.334c0,0,3.242,2.982,12.707,2.204c0,0,5.186-1.037,7.002-5.705"/><path stroke-miterlimit="10" d="M483.334,242.598c0,0,40.859,1.975,70.94-23.266
	c0,0,55.323-27.76,67.77-104.076c0,0,4.84-24.722-3.112-42.702c0,0-2.247-27.316,20.573-1.037c0,0,13.831,30.082,3.458,60.855
	c0,0-8.99,76.587-95.085,118.079c0,0-18.844,11.756-18.499,18.844c0,0,40.282,20.055,12.275,85.923c0,0,3.631,29.044,2.593,59.645
	c0,0,5.532,36.478,9.682,46.506c0,0,13.831,7.607,8.298,22.129c0,0-18.325,60.163-20.746,73.302c0,0-3.803,14.176-3.803,21.783
	c0,0-1.469,11.064-10.027,11.583c0,0-15.819,7.002-16.856,9.336c0,0-9.854,0.519-15.559-7.78"/><path stroke-miterlimit="10" d="M499.255,595.87c0,0-15.171,4.15-20.357-9.075"/><path stroke-miterlimit="10" d="M484.233,593.768c0,0-8.188,0.157-8.837-10.475
	c0,0,6.613-13.096,12.837-17.375c0,0,2.593-1.556,5.835,0c0,0,13.615,3.501,16.986-4.02c0,0,14.781-53.68,12.707-73.389
	c0,0-0.259-1.945-2.204-4.149c0,0-26.581-35.268-29.693-54.458c0,0-23.339-23.858-29.217-49.444c0,0-18.671-43.221-13.831-68.462
	c0,0,4.408-17.202,3.63-20.833"/><path stroke-miterlimit="10" d="M94.428,224.756c0,0,16.618-3.393,25.954,0"/><path stroke-miterlimit="10" d="M134.861,155.365c0,0,9.682,14.695,0,30.514
	c0,0-20.4,25.5-13.139,42.27c0,0,3.803,20.055,30.946,5.532c0,0,18.671-12.53,31.119-36.519c0,0,15.744-19.597,0-39.03
	c0,0-4.974-6.226-14.911-12.188c-0.648-0.389-2.982-2.723-5.057-5.057c0,0-2.593-3.112-5.187-3.112"/><path stroke-miterlimit="10" d="M135.379,238.958c0,0,13.139,45.723,22.475,55.059
	c0,0,6.224,13.226,4.668,34.749c0,0-8.039,23.339,9.595,48.753c0,0,11.67,18.412,12.966,46.419c0,0,5.792,66.474,4.063,80.996
	c0,0,0,20.055-13.485,22.648c0,0-8.471-5.705-17.98,5.186c0,0-5.878,7.952-0.173,14.522c0,0,1.297,2.766,6.57,3.371"/><path stroke-miterlimit="10" d="M165.202,535.448c0,0-8.039,5.273-3.458,12.794
	c0,0,2.161,4.841,13.485,4.927c0,0,6.31-0.865,8.558-2.507"/><path stroke-miterlimit="10" d="M178.065,552.662c0,0,10.476,2.951,17.65,0
	c0,0,2.853-2.086,5.964-9.175l4.322-8.039"/><path stroke-miterlimit="10" d="M175.488,371.296c0,0,12.102,15.041,20.055,21.956
	c0,0,9.682,11.41,10.027,27.142c0,0-1.037,69.672,0,95.604c0,0,0.691,19.363,0.432,25.932c0,0,0.951,18.499-12.88,19.363
	c0,0-6.915,0.778-9.336,0c0,0-3.89-1.902-8.298,2.939c0,0-8.385,7.434-8.558,14.781c0,0-0.691,8.644,8.73,10.114"/><path stroke-miterlimit="10" d="M172.059,573.828c0,0-5.043,13.744,7.578,17.547
	c0,0,8.817,0.605,11.41,0"/><path stroke-miterlimit="10" d="M185.17,581.348c0,0,0.605,13.053,15.56,13.053
	c0,0,6.742-0.778,13.485-7.434c0,0,3.63-1.556,6.31-1.902c0,0,7.693-1.815,8.471-11.238c0,0,1.297-15.992,3.89-26.538"/><path stroke-miterlimit="10" d="M223.376,559.392c0,0,6.224-7.234,10.892-14.681
	c0,0,3.63-6.237,2.766-13.152c0,0-3.112-11.929-4.149-19.363c0,0-0.691-6.051,1.902-18.153c0,0,9.336-53.594,10.2-59.645
	c0,0,7.434-20.573,10.546-25.932c0,0,7.261-12.966,3.803-23.166c0,0-6.915-21.956-6.396-30.082"/><path stroke-miterlimit="10" d="M255.533,408.466c0,0,91.628,8.471,168.388-27.834"/><path stroke-miterlimit="10" d="M402.151,389.66c0,0,17.793-4.534,22.807-3.323
	c0,0,6.224,2.414,5.532,8.641c0,0-2.593,10.203,9.163,8.475c0,0,8.471-1.556,14.868-6.396c0,0,9.801-4.53,12.853-2.87"/><path stroke-miterlimit="10" d="M452.676,398.331c0,0,7.809,6.49,9.106,10.992
	c0,0,12.966,32.768,28.007,51.18c0,0,2.853,1.556,2.334,10.373l-6.136,50.655c0,0-1.125,8.73-7.479,9.897
	c0,0-4.668,2.593-10.632,0.908c0,0-5.964-1.556-13.225,8.687c0,0-6.742,4.798-3.371,14.781c0,0,6.872,10.632,18.801,7.002"/><path stroke-miterlimit="10" d="M464.116,555.546c0,0,7.513,13.648,17.74,10.798
	c0.18-0.05,0.361-0.105,0.543-0.166c10.503-3.501,7.52-6.224,12.837-8.428c0,0,10.243-1.556,11.799-8.947
	c0,0,2.982-11.021,1.945-14.263l14.224-47.698"/><path stroke-miterlimit="10" d="M28.598,183.659c0,0,2.706,2.652,4.954,3.516
	c0,0,1.902,1.556,0.865,4.495c0,0-0.691,5.235-0.691,8.298c0,1.556,0.691,2.766-1.21,4.495c0,0-2.564,3.962-2.579,6.736"/><path stroke-miterlimit="10" d="M68.819,168.85c0,0,5.878-3.803,7.952-6.224
	c0,0,3.544-3.717,4.841-5.273c0,0,1.297-1.124,3.414,0c0,0,6.699,2.742,9.465,5.499c0,0-0.994,3.146-3.285,4.053
	c0,0-4.754,2.593-9.293,0.346c0,0-2.982-0.951-6.094-0.216L68.819,168.85z"/><path stroke-miterlimit="10" d="M80.489,161.502c0,0,0.951-3.025,2.161-3.025
	c0,0,3.371,0.432,8.212,3.025l1.643,1.124c0,0,0.778,0.648,0,1.08c0,0-2.853,2.377-6.396,2.55c0,0-3.544,1.21-5.316-1.902
	C80.792,164.355,80.057,162.611,80.489,161.502z"/></svg>