<?xml version="1.0" encoding="UTF-8" standalone="no"?><!--Created with Inkscape (http://www.inkscape.org/)--><svg xmlns="http://www.w3.org/2000/svg" xmlns:cc="http://creativecommons.org/ns#" xmlns:dc="http://purl.org/dc/elements/1.1/" xmlns:inkscape="http://www.inkscape.org/namespaces/inkscape" xmlns:rdf="http://www.w3.org/1999/02/22-rdf-syntax-ns#" xmlns:sodipodi="http://sodipodi.sourceforge.net/DTD/sodipodi-0.dtd" xmlns:svg="http://www.w3.org/2000/svg" id="svg4351" version="1.1" viewBox="0 0 400 400" inkscape:version="0.91 r" sodipodi:docname="duck.svg"><metadata id="metadata4357"><rdf:RDF><cc:Work rdf:about=""><dc:format>image/svg+xml</dc:format><dc:type rdf:resource="http://purl.org/dc/dcmitype/StillImage"/><dc:title/></cc:Work></rdf:RDF></metadata><defs id="defs4355"/><sodipodi:namedview id="namedview4353" bordercolor="#666666" borderopacity="1" gridtolerance="10" guidetolerance="10" objecttolerance="10" pagecolor="#ffffff" showgrid="false" inkscape:current-layer="svg4351" inkscape:cx="215.42791" inkscape:cy="324.62369" inkscape:pageopacity="0" inkscape:pageshadow="2" inkscape:window-height="717" inkscape:window-maximized="1" inkscape:window-width="1366" inkscape:window-x="0" inkscape:window-y="-3" inkscape:zoom="0.69375"/><g id="g4361"><path id="path4363" d="m 132.96429,398.63135 c -2.07164,-1.93633 -7.63415,-3.63342 -11.86351,-3.61948 -3.04282,0.01 -8.99733,1.34594 -16.25142,3.64604 -1.20986,0.38363 -1.82914,-0.28938 -2.31914,-2.5203 C 101.0725,389.50062 94.058681,384.38646 84.931608,383.30549 81.968109,382.95451 80,382.22318 80,381.47295 c 0,-0.68666 7.2,-4.92175 16,-9.41131 l 16,-8.16285 -0.009,-3.69939 c -0.005,-2.03467 -0.42478,-9.7744 -0.93322,-17.1994 -0.50844,-7.425 -1.23329,-19.67868 -1.61078,-27.2304 l -0.68634,-13.73041 -7.63044,-4.86267 C 96.933698,294.50205 90.214515,290.60041 86.198922,288.50621 71.985164,281.09351 68.5,274.00338 68.5,252.5 c 0,-13.3859 0.123585,-14.24125 2.817453,-19.5 5.338338,-10.42107 13.731428,-17.04576 27.767189,-21.91674 18.567468,-6.44367 25.900878,-9.58653 25.908108,-11.10336 0.0156,-3.2773 -4.18242,-16.62724 -6.03434,-19.18941 -3.5333,-4.8884 -5.06889,-4.13332 27.01594,-13.28429 10.71089,-3.05487 21.2266,-5.83451 23.36823,-6.17697 l 3.89387,-0.62266 -0.50714,-21.60328 C 172.33601,122.34893 171.51027,112.4498 169.05045,95 166.517,77.027909 165.94124,69.923789 166.18936,59.698345 c 0.2859,-11.781927 0.17132,-12.765191 -1.43836,-12.343881 -3.24638,0.849689 -2.82365,-1.220671 1.68564,-8.255612 l 4.49029,-7.005314 -6.1341,-0.296769 c -3.37375,-0.163223 -6.28298,-0.748773 -6.46495,-1.301222 -0.18196,-0.552449 3.71355,-3.252449 8.65671,-6 L 175.97214,19.5 172.97706,17 c -1.6473,-1.375 -2.99103,-2.998964 -2.98607,-3.608809 C 169.99912,12.391144 185.8956,10 192.53584,10 c 2.91192,0 3.02172,-0.762921 0.78494,-5.4535157 -0.92358,-1.9367532 -1.38103,-3.81956572 -1.01657,-4.18402781 1.94108,-1.94108379 29.22554,10.69208751 35.34916,16.36726651 1.32595,1.228841 3.33618,2.7295 4.46719,3.3348 3.43186,1.836672 10.02691,8.208821 12.4208,12.001001 3.40806,5.398714 5.60306,12.615319 6.3167,20.767762 l 0.64194,7.333286 18.68164,5.389785 c 50.77382,14.648607 71.59434,26.927159 57.40539,33.853862 -3.55582,1.735861 -4.65111,1.803811 -12,0.744421 -4.44787,-0.641192 -9.22223,-1.421195 -10.6097,-1.733342 -2.18648,-0.491905 -2.69471,-0.09177 -3.81361,3.002492 -0.84819,2.34562 -2.1074,3.77495 -3.67148,4.16751 -4.52225,1.13502 -29.33637,-6.388009 -54.26859,-16.452882 l -5.27635,-2.130006 -0.93337,2.45496 C 234.78192,95.334003 231,134.62732 231,151.9468 l 0,6.7877 8.75,3.30068 c 13.7637,5.19195 36.25,16.85073 36.25,18.79503 0,0.47279 -3.29704,5.33446 -7.32676,10.80371 l -7.32677,9.9441 11.07677,3.82633 c 13.78541,4.76199 28.33098,11.83746 33.59096,16.3398 5.48171,4.69214 8.75925,10.68155 10.6143,19.39666 2.83824,13.33423 -0.35885,33.18971 -6.43246,39.94869 -1.48282,1.65016 -8.09604,5.85929 -14.69604,9.35365 l -12,6.35337 -0.62278,10.85174 c -0.34253,5.96846 -0.67286,20.30174 -0.73406,31.85174 l -0.11129,21 16.98406,8.92946 C 308.3865,374.35608 316,378.97314 316,379.72912 c 0,1.08349 -1.25588,1.22811 -6.00202,0.69114 -7.77597,-0.87975 -14.23812,0.88798 -17.52475,4.79392 -1.36028,1.6166 -2.47323,3.55319 -2.47323,4.30353 0,2.11853 -1.57074,2.59605 -4.66608,1.41854 -1.55866,-0.59293 -5.25292,-1.07829 -8.20947,-1.07858 -4.26208,-4.2e-4 -6.39899,0.63568 -10.31645,3.0709 -2.71749,1.68929 -5.24849,3.05639 -5.62445,3.03801 -0.37595,-0.0184 -2.03355,-2.36636 -3.68355,-5.21772 -4.11481,-7.1108 -10.08764,-11.16383 -16.78035,-11.38678 -2.83591,-0.0945 -5.31367,-0.64413 -5.50612,-1.22148 -0.19244,-0.57734 3.39328,-2.91227 7.96828,-5.18873 4.57501,-2.27646 12.00152,-6.18605 16.50337,-8.68798 l 8.18517,-4.54897 -0.47993,-21.60746 c -0.26396,-11.8841 -0.71412,-23.5317 -1.00036,-25.88354 l -0.52043,-4.27609 -8.05928,7.48723 c -21.1952,19.69076 -42.47245,29.44479 -61.77826,28.32073 -14.45906,-0.84186 -34.97588,-9.18586 -60.5092,-24.60852 -5.48741,-3.31451 -10.13218,-5.87131 -10.32171,-5.68178 -0.18953,0.18953 -0.023,11.55559 0.37002,25.25792 l 0.71461,24.91332 16.36832,9.43164 c 9.00258,5.18739 16.47577,9.88163 16.6071,10.43163 0.13132,0.55 -2.54277,1.30684 -5.94242,1.68186 -7.76951,0.85708 -10.72052,2.78832 -14.5037,9.49174 -3.25012,5.75891 -3.64096,6.02329 -5.85082,3.95775 z m 12.73988,-14.67029 5.20416,-2.53893 -13.70416,-7.9803 -13.70417,-7.9803 -0.74634,-16.48077 c -0.96575,-21.32588 -0.56604,-45.97401 0.74634,-46.02251 0.55,-0.0203 1.225,1.4131 1.5,3.18539 0.44304,2.85528 1.75305,3.99494 11.5,10.00457 14.38483,8.86918 32.87591,17.98178 43.5,21.43725 12.35806,4.01945 25.10553,4.02712 37.32371,0.0225 13.32099,-4.36611 26.87487,-13.36255 42.92629,-28.49246 4.77566,-4.5015 5.75,-5.98718 5.75,-8.76768 0,-2.20007 0.47912,-3.34778 1.39756,-3.34778 1.49797,0 1.94629,6.52566 3.10875,45.25009 l 0.56285,18.7501 -4.35397,2.7499 c -2.39468,1.51245 -8.25491,4.77491 -13.02273,7.24991 -8.23983,4.27734 -10.34793,6 -7.3425,6 2.35872,0 9.64111,5.92885 12.81742,10.43513 l 3.0651,4.34849 4.74711,-2.46288 c 4.97225,-2.5797 10.84986,-3.25206 17.27041,-1.97563 2.94403,0.58529 3.75,0.43565 3.75,-0.6962 0,-3.51153 7.92294,-8.29232 16.27912,-9.82301 1.04172,-0.19082 -3.72472,-3.22802 -11.5,-7.32784 L 279.5,362.49612 l 0,-32.49806 C 279.5,287.17322 279.76157,281 281.57615,281 c 1.0736,0 1.42385,1.47595 1.42385,6 0,3.3 0.3375,5.99291 0.75,5.98425 0.4125,-0.009 5.925,-2.82117 12.25,-6.25 10.4192,-5.64834 11.71277,-6.6627 13.76392,-10.79301 5.6096,-11.29579 6.53529,-28.72101 2.14862,-40.44546 -3.02501,-8.08506 -8.39245,-13.08396 -20.31999,-18.92478 -8.6911,-4.25595 -39.89578,-15.18897 -57.21327,-20.0455 l -6.12073,-1.7165 -0.63888,-7.1545 c -0.83078,-9.30355 1.00707,-58.18946 2.84335,-75.63128 1.27091,-12.071772 2.58541,-20.131524 4.1017,-25.149255 0.31517,-1.042958 -0.23587,-1.816211 -1.53668,-2.156381 C 230.75447,84.123033 230.24379,82 232.37435,82 c 0.75589,0 7.39339,2.414295 14.75,5.365101 15.50504,6.219219 39.48579,14.122419 45.58741,15.023979 3.44176,0.50855 4.38882,0.29149 5.18023,-1.18726 2.19272,-4.097132 3.2304,-3.634032 -59.14199,-26.393984 C 236.42826,73.960623 234.75015,71 236.59168,71 c 0.32543,0 12.13793,4.230981 26.25,9.40218 34.40479,12.607217 42.29723,15.162884 51.28693,16.607315 C 322.24045,98.312876 329,97.216208 329,94.596762 c 0,-5.571484 -26.10151,-16.640791 -65.43849,-27.751604 -9.93383,-2.805832 -18.2858,-5.305625 -18.55994,-5.555096 -0.27413,-0.249471 0.28837,-1.028901 1.25,-1.732066 3.71739,-2.718222 1.01838,-17.500836 -4.80372,-26.310167 -3.54027,-5.356738 -10.05638,-10.860489 -14.04271,-11.860992 -1.21889,-0.305924 -2.42169,-1.305613 -2.67287,-2.221531 -0.25119,-0.915918 -2.94684,-3.154329 -5.99034,-4.974246 C 212.78622,10.629728 197.81229,3.8543744 197.21572,4.4509475 197.01596,4.650703 197.59389,6.2477766 198.5,8 c 0.90611,1.7522234 1.44995,3.38338 1.20854,3.624793 -0.24141,0.241412 -4.66209,0.897152 -9.82374,1.4572 -5.16164,0.560048 -10.5098,1.266351 -11.8848,1.569562 l -2.5,0.551294 2.25,1.520548 c 1.2375,0.836301 2.25,2.064806 2.25,2.730011 0,0.665205 -3.22591,2.972817 -7.1687,5.128028 L 165.6626,28.5 l 4.6687,0.304791 c 2.81478,0.18376 4.6687,0.784704 4.6687,1.513349 0,0.664706 -1.575,3.547297 -3.5,6.405758 C 167.51019,42.64843 167.40415,43 169.60699,43 c 1.15145,0 1.39294,0.496079 0.8519,1.75 -0.41529,0.9625 -0.95338,7.375 -1.19575,14.25 -0.35998,10.210982 0.13868,16.785436 2.72307,35.902154 5.07736,37.557176 5.547,63.935906 1.52679,85.757186 l -1.68746,9.15934 -8.66277,2.62833 c -22.12507,6.71285 -60.26589,20.02166 -72.618747,25.33948 -5.468287,2.35406 -14.171854,11.13215 -16.764129,16.90767 -2.693283,6.00056 -3.524484,19.96274 -1.797843,30.19943 1.820509,10.79319 5.311682,15.30308 16.517949,21.33781 4.95,2.66565 11.355577,6.40407 14.23462,8.30761 2.87903,1.90355 5.46653,3.46099 5.75,3.46099 0.28346,0 0.51538,-1.1625 0.51538,-2.58333 0,-1.62157 0.46537,-2.42867 1.25,-2.1679 0.90372,0.30035 1.56554,6.62578 2.38903,22.83333 0.62646,12.32985 1.47486,28.51768 1.88533,35.97297 l 0.74631,13.55507 -14.25105,7.30943 -14.251039,7.30942 5.365709,1.80722 C 97.534793,383.85516 105,390.58154 105,393.62861 c 0,1.68589 -0.44924,1.70128 7.14762,-0.24494 7.01066,-1.79605 14.98295,-1.42704 19.42234,0.899 2.71772,1.42395 2.81062,1.3736 5.84582,-3.16786 2.15059,-3.21786 4.65958,-5.38337 8.28839,-7.15375 z M 214.26969,58.517413 C 206.5462,55.159796 204.64537,43.893089 210.76923,37.769231 218.79703,29.741434 233,35.788032 233,47.233483 c 0,3.715242 -3.39337,8.971924 -7.06166,10.939252 -4.03501,2.164 -7.26426,2.259388 -11.66865,0.344678 z m 12.5078,-4.074117 C 231.40563,51.201625 228.53875,43 222.77749,43 220.19893,43 217,46.598974 217,49.5 c 0,2.901026 3.19893,6.5 5.77749,6.5 0.97763,0 2.77763,-0.700517 4,-1.556704 z m -76.973,139.086364 c 12.80393,-3.98133 19.36712,-6.49499 19.70043,-7.54515 0.78484,-2.47282 3.32104,-21.4407 2.92359,-21.86514 -0.61619,-0.65802 -31.81982,7.69737 -46.59855,12.47768 l -4.67004,1.51057 2.33258,5.19619 c 1.28292,2.8579 2.89767,7.8021 3.58833,10.98711 0.7213,3.32629 1.73823,5.6671 2.3894,5.5 0.62352,-0.16001 9.77393,-2.97757 20.33426,-6.26126 z m 115.71757,-2.7078 c 6.34964,-8.68372 6.61061,-9.25385 4.84455,-10.58342 -3.30369,-2.48716 -21.60277,-11.40477 -30.36374,-14.79702 L 231.5,162.1491 l -0.50645,8.17545 c -0.27854,4.4965 -0.27854,11.30766 0,15.13592 l 0.50645,6.96048 11.5,3.69137 c 6.325,2.03026 12.46995,3.73554 13.65545,3.78953 1.61236,0.0734 3.84639,-2.21438 8.86661,-9.07999 z" inkscape:connector-curvature="0" style="fill:#101010"/></g></svg>