<?xml version="1.0" encoding="utf-8"?>
<!-- Generator: Adobe Illustrator 17.0.0, SVG Export Plug-In . SVG Version: 6.00 Build 0)  -->
<!DOCTYPE svg PUBLIC "-//W3C//DTD SVG 1.1//EN" "http://www.w3.org/Graphics/SVG/1.1/DTD/svg11.dtd">
<svg version="1.1" id="Layer_1" xmlns="http://www.w3.org/2000/svg" xmlns:xlink="http://www.w3.org/1999/xlink" x="0px" y="0px"
	 width="700px" height="700px" viewBox="0 0 700 700" enable-background="new 0 0 700 700" xml:space="preserve">
<path fill="none" stroke="#231F20" stroke-miterlimit="10" d="M280.667,373.546c-1.72-13.35-4.99-44.51,0.84-50.93
	c7.47-8.22,139.74-8.44,144.94,0c4.61,7.49,1.04,106.27,0.18,128.5"/>
<path fill="none" stroke="#231F20" stroke-miterlimit="10" d="M61.79,706.95c-8.813-47.891-7.188-362.865,0-368.378
	s129.901-5.154,136.878,0c6.976,5.154,6.357,350.269,0,368.378"/>
<path fill="none" stroke="#231F20" stroke-miterlimit="10" d="M288.257,706.946c7.29-32.1,5.39-312.55,0-327.31
	c-0.87-2.39-3.6-4.43-7.59-6.09c-18.64-7.77-64.87-7.41-78.74,2.58"/>
<path fill="none" stroke="#231F20" stroke-miterlimit="10" d="M506.077,496.916c4.567,8.81,3.7,185.2-0.06,210.03"/>
<path fill="none" stroke="#231F20" stroke-miterlimit="10" d="M370.387,706.946c-6.44-23.05-0.87-188.21-0.09-210.37"/>
<path fill="none" stroke="#231F20" stroke-miterlimit="10" d="M344.255,455.54c4.055-5.148,181.737-6.852,187.896,0
	s5.174,32.964,0,38.575s-183.284,4.389-187.896,0C339.644,489.726,340.201,460.688,344.255,455.54z"/>
<path fill="none" stroke="#231F20" stroke-miterlimit="10" d="M639.167,338.576c4.48,5.15,8.69,346.1,0,368.37"/>
<path fill="none" stroke="#231F20" stroke-miterlimit="10" d="M565.747,706.946c-7.27-32.22-4.56-363.19,0-368.37"/>
<path fill="none" stroke="#231F20" stroke-miterlimit="10" d="M83.055,379.635c4.172-3.409,27.05-4.341,29.861,0
	c2.811,4.341,2.189,32.325,0,36.583s-26.283,4.242-29.861,0S78.883,383.045,83.055,379.635z"/>
<path fill="none" stroke="#231F20" stroke-miterlimit="10" d="M142.462,381.315c4.172-3.409,27.05-4.341,29.861,0
	c2.811,4.341,2.189,32.325,0,36.583s-26.283,4.242-29.861,0S138.29,384.725,142.462,381.315z"/>
<path fill="none" stroke="#231F20" stroke-miterlimit="10" d="M85.602,457.84c4.172-3.409,27.05-4.341,29.861,0
	c2.811,4.341,2.189,32.325,0,36.583s-26.283,4.242-29.861,0C82.024,490.18,81.43,461.249,85.602,457.84z"/>
<path fill="none" stroke="#231F20" stroke-miterlimit="10" d="M145.009,459.52c4.172-3.409,27.05-4.341,29.861,0
	c2.811,4.341,2.189,32.325,0,36.583s-26.283,4.242-29.861,0S140.837,462.929,145.009,459.52z"/>
<path fill="none" stroke="#231F20" stroke-miterlimit="10" d="M308.077,339.693c4.172-3.409,27.05-4.341,29.861,0
	s2.189,32.325,0,36.583s-26.283,4.242-29.861,0C304.499,372.033,303.904,343.102,308.077,339.693z"/>
<path fill="none" stroke="#231F20" stroke-miterlimit="10" d="M367.484,341.373c4.172-3.409,27.05-4.341,29.861,0
	s2.189,32.325,0,36.583s-26.283,4.242-29.861,0C363.906,373.713,363.311,344.782,367.484,341.373z"/>
<path fill="none" stroke="#231F20" stroke-miterlimit="10" d="M310.624,417.897c4.172-3.409,27.05-4.341,29.861,0
	s2.189,32.325,0,36.583s-26.283,4.242-29.861,0S306.452,421.307,310.624,417.897z"/>
<path fill="none" stroke="#231F20" stroke-miterlimit="10" d="M309.35,491.82c4.172-3.409,27.05-4.341,29.861,0
	s2.189,32.325,0,36.583s-26.283,4.242-29.861,0S305.178,495.23,309.35,491.82z"/>
<path fill="none" stroke="#231F20" stroke-miterlimit="10" d="M311.898,570.025c4.172-3.409,27.05-4.341,29.861,0
	s2.189,32.325,0,36.583s-26.283,4.242-29.861,0S307.725,573.434,311.898,570.025z"/>
<path fill="none" stroke="#231F20" stroke-miterlimit="10" d="M306.803,649.421c4.172-3.409,27.05-4.341,29.861,0
	s2.189,32.325,0,36.583s-26.283,4.242-29.861,0S302.631,652.83,306.803,649.421z"/>
<path fill="none" stroke="#231F20" stroke-miterlimit="10" d="M400.957,451.536c1.24-9.35,1.22-28.44-1.06-31.96
	c-2.82-4.34-25.69-3.41-29.87,0c-3.54,2.89-3.64,24.14-1.41,33.11"/>
<path fill="none" stroke="#231F20" stroke-miterlimit="10" d="M88.149,536.045c4.172-3.409,27.05-4.341,29.861,0
	s2.189,32.325,0,36.583s-26.283,4.242-29.861,0C84.572,568.385,83.977,539.454,88.149,536.045z"/>
<path fill="none" stroke="#231F20" stroke-miterlimit="10" d="M227.042,410.829c4.172-3.409,27.05-4.341,29.861,0
	s2.189,32.325,0,36.583s-26.283,4.242-29.861,0C223.464,443.169,222.869,414.238,227.042,410.829z"/>
<path fill="none" stroke="#231F20" stroke-miterlimit="10" d="M229.589,489.034c4.172-3.409,27.05-4.341,29.861,0
	s2.189,32.325,0,36.583s-26.283,4.242-29.861,0C226.011,521.374,225.417,492.443,229.589,489.034z"/>
<path fill="none" stroke="#231F20" stroke-miterlimit="10" d="M232.136,567.238c4.172-3.409,27.05-4.341,29.861,0
	s2.189,32.325,0,36.583s-26.283,4.242-29.861,0S227.964,570.648,232.136,567.238z"/>
<path fill="none" stroke="#231F20" stroke-miterlimit="10" d="M147.556,537.725c4.172-3.409,27.05-4.341,29.861,0
	c2.811,4.341,2.189,32.325,0,36.583s-26.283,4.242-29.861,0C143.978,570.065,143.384,541.134,147.556,537.725z"/>
<path fill="none" stroke="#231F20" stroke-miterlimit="10" d="M90.697,614.249c4.172-3.409,27.05-4.341,29.861,0
	c2.811,4.341,2.189,32.325,0,36.583s-26.283,4.242-29.861,0S86.525,617.659,90.697,614.249z"/>
<path fill="none" stroke="#231F20" stroke-miterlimit="10" d="M150.104,615.929c4.172-3.409,27.05-4.341,29.861,0
	c2.811,4.341,2.189,32.325,0,36.583s-26.283,4.242-29.861,0S145.931,619.339,150.104,615.929z"/>
<path fill="none" stroke="#231F20" stroke-miterlimit="10" d="M421.527,542.886c0.35-3.77,2.91-32.38-0.04-35.43
	c-3.17-3.26-28.51-3.56-31.53,0c-2.74,3.25-0.49,30.31-0.07,35.11"/>
<path fill="none" stroke="#231F20" stroke-miterlimit="10" d="M384.57,543.293c1.032-1.567,39.303-0.87,40.23,0s1.656,4.513,0,6.056
	s-39.011,1.999-40.23,0C383.352,547.351,383.539,544.86,384.57,543.293z"/>
<path fill="none" stroke="#231F20" stroke-miterlimit="10" d="M484.537,544.186c0.35-3.77,2.91-32.38-0.04-35.43
	c-3.17-3.26-28.51-3.56-31.53,0c-2.74,3.25-0.49,30.31-0.07,35.11"/>
<path fill="none" stroke="#231F20" stroke-miterlimit="10" d="M447.58,544.593c1.032-1.567,39.303-0.87,40.23,0s1.656,4.513,0,6.057
	s-39.011,1.999-40.23,0C446.362,548.651,446.548,546.16,447.58,544.593z"/>
<path fill="none" stroke="#231F20" stroke-miterlimit="10" d="M421.527,605.097c0.35-3.77,2.91-32.38-0.04-35.43
	c-3.17-3.26-28.51-3.56-31.53,0c-2.74,3.25-0.49,30.31-0.07,35.11"/>
<path fill="none" stroke="#231F20" stroke-miterlimit="10" d="M384.57,605.504c1.032-1.567,39.303-0.87,40.23,0s1.656,4.513,0,6.057
	c-1.656,1.543-39.011,1.999-40.23,0S383.539,607.071,384.57,605.504z"/>
<path fill="none" stroke="#231F20" stroke-miterlimit="10" d="M484.537,606.397c0.35-3.77,2.91-32.38-0.04-35.43
	c-3.17-3.26-28.51-3.56-31.53,0c-2.74,3.25-0.49,30.31-0.07,35.11"/>
<path fill="none" stroke="#231F20" stroke-miterlimit="10" d="M447.58,606.804c1.032-1.567,39.303-0.87,40.23,0s1.656,4.513,0,6.057
	s-39.011,1.999-40.23,0S446.548,608.372,447.58,606.804z"/>
<path fill="none" stroke="#231F20" stroke-miterlimit="10" d="M421.527,667.308c0.35-3.77,2.91-32.38-0.04-35.43
	c-3.17-3.26-28.51-3.56-31.53,0c-2.74,3.25-0.49,30.31-0.07,35.11"/>
<path fill="none" stroke="#231F20" stroke-miterlimit="10" d="M384.57,667.715c1.032-1.567,39.303-0.87,40.23,0s1.656,4.513,0,6.057
	c-1.656,1.543-39.011,1.999-40.23,0C383.352,671.773,383.539,669.282,384.57,667.715z"/>
<path fill="none" stroke="#231F20" stroke-miterlimit="10" d="M484.537,668.609c0.35-3.77,2.91-32.38-0.04-35.43
	c-3.17-3.26-28.51-3.56-31.53,0c-2.74,3.25-0.49,30.31-0.07,35.11"/>
<path fill="none" stroke="#231F20" stroke-miterlimit="10" d="M447.58,669.016c1.032-1.567,39.303-0.87,40.23,0s1.656,4.513,0,6.056
	s-39.011,1.999-40.23,0C446.362,673.074,446.548,670.583,447.58,669.016z"/>
<path fill="none" stroke="#231F20" stroke-miterlimit="10" d="M565.748,338.572c-1.605-1.68,31.688-67.01,36.708-66.428
	c5.021,0.582,38.062,62.274,36.708,66.428S567.353,340.251,565.748,338.572z"/>
</svg>
