<?xml version="1.0" encoding="UTF-8" standalone="no"?>
<!-- Created with Inkscape (http://www.inkscape.org/) -->

<svg
   xmlns:dc="http://purl.org/dc/elements/1.1/"
   xmlns:cc="http://creativecommons.org/ns#"
   xmlns:rdf="http://www.w3.org/1999/02/22-rdf-syntax-ns#"
   xmlns:svg="http://www.w3.org/2000/svg"
   xmlns="http://www.w3.org/2000/svg"
   xmlns:sodipodi="http://sodipodi.sourceforge.net/DTD/sodipodi-0.dtd"
   xmlns:inkscape="http://www.inkscape.org/namespaces/inkscape"
   id="svg4429"
   version="1.1"
   inkscape:version="0.91 r"
   width="400"
   height="400"
   viewBox="0 0 400 400"
   sodipodi:docname="restaurant.svg">
  <metadata
     id="metadata4435">
    <rdf:RDF>
      <cc:Work
         rdf:about="">
        <dc:format>image/svg+xml</dc:format>
        <dc:type
           rdf:resource="http://purl.org/dc/dcmitype/StillImage" />
        <dc:title></dc:title>
      </cc:Work>
    </rdf:RDF>
  </metadata>
  <defs
     id="defs4433" />
  <sodipodi:namedview
     pagecolor="#ffffff"
     bordercolor="#666666"
     borderopacity="1"
     objecttolerance="10"
     gridtolerance="10"
     guidetolerance="10"
     inkscape:pageopacity="0"
     inkscape:pageshadow="2"
     inkscape:window-width="1366"
     inkscape:window-height="717"
     id="namedview4431"
     showgrid="false"
     fit-margin-top="0"
     fit-margin-left="0"
     fit-margin-right="0"
     fit-margin-bottom="0"
     inkscape:zoom="0.69375"
     inkscape:cx="304.87615"
     inkscape:cy="50.991446"
     inkscape:window-x="0"
     inkscape:window-y="-3"
     inkscape:window-maximized="1"
     inkscape:current-layer="svg4429" />
  <g
     id="g4439">
    <path
       style="fill:#0f0f0f"
       d="m 0,370.5 0,-7.5 6.9971267,0 6.9971263,0 L 14.247127,192.75 14.5,22.5 l 185.5,0 185.5,0 0.25287,170.25 0.25288,170.25 6.99712,0 6.99713,0 0,7.5 0,7.5 -200,0 -200,0 0,-7.5 z m 397,0 0,-4.5 -197,0 -197,0 0,4.5 0,4.5 197,0 197,0 0,-4.5 z M 46,235 l 0,-128 154,0 154,0 0,128 0,128 14.5,0 14.5,0 0,-169 0,-169 -183,0 -183,0 0,169 0,169 14.5,0 14.5,0 0,-128 z m 180,53.4896 0,-74.5104 44.25,0.2604 44.25,0.2604 0.25641,74.25 0.2564,74.25 17.9936,0 17.99359,0 0,-126.5 0,-126.5 -151,0 -151,0 0,126.5 0,126.5 88.5,0 88.5,0 0,-74.5104 z m -89,41.11109 0,-24.3993 -4.36069,-0.3507 -4.36069,-0.35069 2.24263,3 C 134.93397,313.40293 136,316.67014 136,324.29141 136,341.48526 128.86592,351 115.9741,351 c -7.67996,0 -10.93016,-2.1398 -10.95879,-7.21482 -0.0145,-2.56521 2.26756,-4.78518 4.91895,-4.78518 1.66187,0 1.25292,2.14029 -0.68426,3.58119 -1.39022,1.03406 -1.51942,1.67349 -0.62844,3.11024 0.8977,1.44759 2.43357,1.80857 7.6949,1.80857 6.12376,0 6.81372,-0.23301 10.08789,-3.40686 4.45461,-4.31812 6.59565,-10.58428 6.59565,-19.3034 0,-8.23956 -1.50296,-12.0852 -6.63362,-16.97346 -2.99248,-2.85111 -5.39687,-4.03561 -10.6377,-5.24056 -8.2657,-1.90041 -13.85544,-4.65011 -16.634154,-8.18268 -2.874102,-3.65383 -2.635967,-5.62637 1.122904,-9.30136 10.41622,-10.18378 52.21027,-12.0564 69.71953,-3.12384 4.02329,2.05253 8.06304,6.35644 8.06304,8.59029 0,4.28103 -9.91193,10.60462 -18.86674,12.03655 -2.91707,0.46646 -5.3352,1.8058 -8.09386,4.483 -6.12618,5.94525 -7.45507,9.23671 -7.36453,18.24085 0.14096,14.01866 6.68167,22.68147 17.12527,22.68147 2.38224,0 5.20176,-0.46583 6.2656,-1.03518 2.3006,-1.23125 2.54239,-3.79423 0.43426,-4.60319 C 165.59039,341.62884 165.53453,339 167.42857,339 169.6142,339 172,341.86982 172,344.49885 c 0,1.37788 -1.14168,3.25613 -2.75,4.52417 -2.33408,1.84026 -3.74977,2.11216 -9.36035,1.79778 -5.28926,-0.29637 -7.31729,-0.9096 -10.14764,-3.06841 -4.10088,-3.1279 -7.5598,-9.67801 -8.70464,-16.48389 -0.61268,-3.64224 -0.82991,-1.52091 -0.91975,8.9815 -0.0984,11.50328 -0.36272,13.75 -1.61762,13.75 -1.29235,0 -1.5,-3.3777 -1.5,-24.39931 z m 9.04376,-21.80477 c 2.2528,-2.80331 2.7632,-3.93582 1.5669,-3.47676 C 146.63483,304.69362 144.52323,305 142.91821,305 L 140,305 l 0.0675,8.25 0.0675,8.25 1.28382,-4.77324 c 0.7061,-2.62528 2.78733,-6.64416 4.62495,-8.93084 z m 14.16153,-8.70053 c 8.28995,-2.14175 12.26356,-4.23441 13.921,-7.33136 3.20246,-5.98386 -15.88293,-12.68364 -36.30393,-12.74422 C 119.3103,278.96489 100,284.82613 100,290.5 c 0,3.77624 11.01909,8.79518 22.99919,10.47559 9.73779,1.36589 28.26574,0.42959 37.2061,-1.8802 z m -76.525192,42.43396 c -5.950946,-1.87027 -11.463446,-3.93458 -12.25,-4.58736 -1.082667,-0.89854 -1.431453,-3.89023 -1.435675,-12.31443 C 69.991356,318.5074 69.475114,311.7 68.84722,309.5 c -1.331164,-4.6641 -1.697846,-22.35262 -0.572933,-27.63792 0.910463,-4.27774 5.110042,-8.86365 8.112077,-8.85834 4.45963,0.008 8.394672,3.69728 12.050656,11.29838 3.079406,6.40235 4.411872,8.0029 9.813109,11.78746 C 113.59997,306.84494 116,310.66009 116,324.30517 c 0,11.5151 -1.06682,13.09127 -8.05347,11.89856 l -4.43858,-0.75772 -1.50397,4.52699 c -1.30606,3.93126 -1.89877,4.55528 -4.50398,4.74192 -1.65,0.1182 -7.868956,-1.31531 -13.819902,-3.18557 z m 15.389942,-1.66022 c 1.36871,-2.55746 0.371899,-15.81845 -1.53463,-20.41582 C 96.185534,316.19824 90.677497,311 88.578311,311 87.88078,311 84.643008,309.27619 81.383262,307.16932 75.381402,303.29013 73.684291,300.76269 71.197466,292 l -0.99329,-3.5 -0.0672,5 c -0.03696,2.75 0.583247,8.6 1.378237,13 0.794991,4.4 1.454291,12.5982 1.465112,18.21823 L 73,334.93646 l 10.75,3.44387 c 12.89492,4.13103 13.855979,4.22442 15.32004,1.4888 z M 113,324.17538 c 0,-11.6968 -1.25748,-13.8444 -13.584906,-23.20105 -8.888367,-6.74636 -10.241968,-8.20686 -13.07171,-14.10396 -3.211907,-6.69352 -7.505892,-11.17843 -10.204686,-10.65841 -2.318959,0.44683 -3.196492,5.66651 -2.103211,12.51018 1.283184,8.03241 2.18062,10.24606 5.348523,13.19288 2.256941,2.09943 2.930343,2.26278 5.153152,1.25 1.406319,-0.64076 3.99827,-1.15514 5.759891,-1.14306 6.275472,0.043 18.702947,7.3337 18.702947,10.97223 0,2.1294 -3.54847,5.00581 -6.17539,5.00581 -1.4968,0 -1.64956,0.70868 -1.13166,5.25 0.95504,8.37443 1.68162,9.57788 6.00824,9.95144 2.08935,0.18039 4.13631,0.18231 4.54881,0.004 0.4125,-0.17806 0.75,-4.2417 0.75,-9.03032 z M 104.82389,314.13 c 1.05947,-0.67172 0.96583,-1.19742 -0.46881,-2.63206 -2.54514,-2.54515 -11.359218,-6.4766 -14.546063,-6.48817 -4.232188,-0.0154 -4.122103,1.5453 0.248005,3.51594 2.201385,0.99269 5.426548,2.8555 7.167028,4.13959 3.32881,2.45592 5.40526,2.85611 7.59984,1.4647 z m 70.73281,28.64749 C 174.70052,341.55512 174,339.37646 174,337.93603 c 0,-2.56025 -0.10649,-2.60258 -4.75,-1.88835 -2.6125,0.40183 -5.47805,0.34647 -6.3679,-0.12302 -1.98577,-1.04772 -2.88901,-5.2478 -2.86014,-13.29966 0.0373,-10.39307 3.64799,-15.68228 17.97804,-26.33534 5.20128,-3.86667 7.13792,-6.11064 9.69273,-11.23091 5.42671,-10.87602 11.08615,-14.38032 16.43245,-10.17493 4.00321,3.14893 5.2047,9.16599 4.45382,22.30464 -0.35555,6.22135 -0.96878,17.47833 -1.36273,25.01551 C 206.82232,329.74115 206.05,336.338 205.5,336.86364 204.18702,338.11847 181.97249,345 179.23472,345 c -1.16672,0 -2.82183,-1.00013 -3.67802,-2.22251 z m 18.38562,-4.80811 9.86807,-3.06578 0.57944,-13.7018 c 0.31869,-7.53599 0.78264,-17.9768 1.03098,-23.2018 0.39599,-8.33117 0.32886,-8.86589 -0.54562,-4.34606 -1.33493,6.89974 -5.42336,11.32916 -15.32915,16.60765 -9.86268,5.25551 -11.53316,7.79126 -12.27643,18.63535 -0.29733,4.33797 -0.23302,9.1127 0.14291,10.61053 0.81042,3.22897 1.34606,3.17913 16.5298,-1.53809 z m -22.83392,-5.39266 c 2.31565,-0.48272 2.67115,-1.1348 3.16763,-5.81023 0.30759,-2.89657 0.84829,-5.99885 1.20157,-6.89395 0.49747,-1.26044 -0.15776,-1.77756 -2.90548,-2.29303 -5.03694,-0.94494 -6.21917,-3.65708 -3.17246,-7.27789 4.86182,-5.77794 15.73882,-9.4948 21.7021,-7.41599 6.5777,2.293 10.54029,-3.43206 11.56402,-16.70742 0.50564,-6.55699 0.33568,-7.93211 -1.13077,-9.14915 -2.91444,-2.41877 -6.46595,0.54279 -11.00612,9.17785 -3.56027,6.77137 -5.01025,8.39722 -12.46589,13.97787 -4.64036,3.47337 -9.81383,8.04261 -11.49661,10.15385 -2.71438,3.40551 -3.09953,4.71757 -3.41336,11.62823 -0.3831,8.43604 0.74769,12.06551 3.58388,11.50317 0.9697,-0.19226 2.93687,-0.59425 4.37149,-0.89331 z m 9.34353,-20.53004 c 1.12644,-1.0574 3.95858,-2.77747 6.29364,-3.82237 4.59688,-2.05704 4.60623,-3.22431 0.0258,-3.22431 -3.22101,0 -12.90768,4.25434 -14.75514,6.48039 -3.25026,3.91633 4.32514,4.42488 8.43566,0.56629 z M 58.328737,199.54224 c -1.744194,-0.75871 -3.656694,-2.28652 -4.25,-3.39512 C 53.357318,194.79914 53,180.52788 53,153.06243 l 0,-41.06905 147.25,0.25331 147.25,0.25331 0.26167,39.32427 c 0.22776,34.22679 0.0557,39.75832 -1.32727,42.67273 -2.83969,5.9842 -11.48121,8.11413 -16.88606,4.16201 -1.51534,-1.10805 -2.36476,-1.02718 -5.38517,0.51272 -4.55065,2.32005 -6.81355,2.30074 -11.51908,-0.0983 -3.75154,-1.91264 -3.80385,-1.91175 -7.25406,0.12393 -3.96628,2.34016 -9.40749,2.00177 -12.47681,-0.77593 -1.83904,-1.66431 -2.2393,-1.60044 -6.91322,1.10302 -3.3898,1.96071 -6.89999,1.83394 -10.53096,-0.38032 -2.94848,-1.79805 -3.12495,-1.79795 -6.4844,0.004 -4.30096,2.30663 -6.62022,2.32811 -11.0232,0.1021 -3.29573,-1.66622 -3.62899,-1.6663 -6.96144,-0.002 -4.43487,2.21546 -6.69257,2.20252 -11.13793,-0.0639 -3.44013,-1.75387 -3.67555,-1.75387 -6.94584,0 -4.29026,2.30089 -6.57177,2.28525 -11.20479,-0.0768 -3.64096,-1.85627 -3.78192,-1.85627 -7.42288,0 -4.64579,2.36856 -6.91379,2.37808 -11.25983,0.0473 -3.36269,-1.80343 -3.51512,-1.80064 -6.77702,0.12393 -3.84483,2.2685 -9.31995,1.87421 -12.37574,-0.89124 -1.76548,-1.59774 -1.98919,-1.59527 -3.79835,0.042 -2.89315,2.61826 -8.93998,3.02668 -13.07762,0.88331 -3.34427,-1.7324 -3.65573,-1.73527 -7,-0.0646 -4.50431,2.25015 -6.68384,2.20486 -11.23313,-0.23341 l -3.70352,-1.98497 -3.5743,2.10889 c -4.03302,2.37954 -9.46822,2.09485 -12.50687,-0.65508 -1.6288,-1.47405 -2.07571,-1.43763 -5.61116,0.45725 -4.69262,2.5151 -6.92614,2.57556 -11.40958,0.30887 -3.29573,-1.66622 -3.62899,-1.6663 -6.96144,-0.002 -4.40069,2.19839 -6.599306,2.19839 -11,0 -3.332447,-1.66475 -3.665708,-1.66467 -6.961442,0.002 -4.387583,2.21823 -6.722695,2.20429 -10.954785,-0.0654 -3.270292,-1.75387 -3.505712,-1.75387 -6.94584,0 -4.209054,2.1459 -6.522258,2.22244 -10.809196,0.35765 z m 10.987614,-4.51514 3.385943,-2.9729 2.274435,2.42103 c 3.071002,3.26893 7.136526,4.03468 10.950282,2.06251 C 87.617155,195.66374 89,194.5102 89,193.97432 c 0,-1.68526 2.101724,-1.06651 5.182369,1.52568 1.634095,1.375 4.027029,2.5 5.317631,2.5 1.2906,0 3.68354,-1.125 5.31763,-2.5 3.08065,-2.59219 5.18237,-3.21094 5.18237,-1.52568 0,0.53588 1.38285,1.68942 3.07299,2.56342 3.87131,2.00194 8.24356,1.14659 10.80874,-2.11452 2.39356,-3.04292 2.69536,-3.02641 5.5601,0.30405 1.86379,2.16678 3.21159,2.72728 6.55817,2.72728 3.34658,0 4.69438,-0.5605 6.55817,-2.72728 1.29024,-1.5 2.55787,-2.72727 2.81694,-2.72727 0.25907,0 1.82104,1.35 3.47104,3 1.65,1.65 3.9642,3 5.14267,3 2.60476,0 6.22335,-1.80461 7.31087,-3.64598 1.04528,-1.76984 3.61599,-1.73733 4.30355,0.0544 0.81873,2.13358 5.99356,3.90856 9.12735,3.13071 1.52317,-0.37807 3.78191,-1.63249 5.01941,-2.78759 l 2.25,-2.10019 2.55637,2.40159 c 3.46419,3.25443 9.89372,3.34437 12.46068,0.17431 2.21157,-2.73117 3.17154,-2.78135 5.43165,-0.28395 3.68397,4.07073 9.86808,3.48358 13.8013,-1.31036 L 218,191.5 l 1.75,2.13296 c 4.15636,5.06591 8.86273,5.57837 13.4651,1.46616 l 3.24665,-2.90088 3.30392,2.90088 c 1.81716,1.59548 4.21785,2.90088 5.33487,2.90088 2.50672,0 6.12939,-1.83469 7.19915,-3.64598 0.91748,-1.55346 3.70031,-1.83901 3.70031,-0.3797 0,1.28305 5.36417,4.02568 7.87361,4.02568 1.08512,0 3.30993,-1.125 4.94402,-2.5 3.08065,-2.59219 5.18237,-3.21094 5.18237,-1.52568 0,0.53588 1.38285,1.68942 3.07299,2.56342 3.87131,2.00194 8.24356,1.14659 10.80874,-2.11452 2.37125,-3.01455 2.86529,-3.01455 5.23654,0 3.6102,4.58964 9.99176,4.23312 14.14539,-0.79026 l 1.76366,-2.13296 1.77774,2.10318 c 4.16633,4.92901 8.6349,5.58039 13.01257,1.89682 3.08065,-2.59219 5.18237,-3.21094 5.18237,-1.52568 0,0.53588 1.38285,1.68942 3.07299,2.56342 3.92304,2.02869 8.25134,1.13669 10.91482,-2.24938 C 344.92464,191.82608 345,190.29353 345,153.36514 L 345,115 200.5,115 56,115 l 0,39.42742 0,39.42742 2.634859,2.07258 c 3.630064,2.85541 6.698523,2.59678 10.681492,-0.90032 z m -6.646089,-6.69017 C 62.301618,187.96828 62,187.29167 62,186.83333 62,186.375 123.0125,186 197.58333,186 c 108.02221,0 135.49864,0.2541 135.16669,1.25 -0.33,0.99006 -28.38581,1.30274 -134.91307,1.5036 -73.97303,0.13947 -134.798043,-0.048 -135.166688,-0.41667 z M 312,290 l 0,-73 -41.5,0 -41.5,0 0,73 0,73 41.5,0 41.5,0 0,-73 z m -43,-2 c 0,-59.77778 0.18137,-68 1.5,-68 1.31863,0 1.5,8.22222 1.5,68 0,59.77778 -0.18137,68 -1.5,68 -1.31863,0 -1.5,-8.22222 -1.5,-68 z m -10,6.5 0,-19.5 3,0 3,0 0,19.5 0,19.5 -3,0 -3,0 0,-19.5 z m 16.22841,0.25 0.27159,-19.25 3,0 3,0 0.27159,19.25 0.2716,19.25 -3.54319,0 -3.54319,0 0.2716,-19.25 z m 3.51478,-9.0491 c -0.18485,-4.5105 -0.33516,-0.5509 -0.33401,8.7991 0.001,9.35 0.1524,13.0404 0.3361,8.2009 0.18371,-4.83951 0.18277,-12.48951 -0.002,-17 z"
       id="path4441"
       inkscape:connector-curvature="0" />
  </g>
</svg>
