<?xml version="1.0" encoding="UTF-8" standalone="no"?>
<!-- Created with Inkscape (http://www.inkscape.org/) -->

<svg
   xmlns:dc="http://purl.org/dc/elements/1.1/"
   xmlns:cc="http://creativecommons.org/ns#"
   xmlns:rdf="http://www.w3.org/1999/02/22-rdf-syntax-ns#"
   xmlns:svg="http://www.w3.org/2000/svg"
   xmlns="http://www.w3.org/2000/svg"
   xmlns:sodipodi="http://sodipodi.sourceforge.net/DTD/sodipodi-0.dtd"
   xmlns:inkscape="http://www.inkscape.org/namespaces/inkscape"
   id="svg4523"
   version="1.1"
   inkscape:version="0.91 r"
   width="400"
   height="400"
   viewBox="0 0 400 400"
   sodipodi:docname="shop.svg">
  <metadata
     id="metadata4529">
    <rdf:RDF>
      <cc:Work
         rdf:about="">
        <dc:format>image/svg+xml</dc:format>
        <dc:type
           rdf:resource="http://purl.org/dc/dcmitype/StillImage" />
        <dc:title></dc:title>
      </cc:Work>
    </rdf:RDF>
  </metadata>
  <defs
     id="defs4527" />
  <sodipodi:namedview
     pagecolor="#ffffff"
     bordercolor="#666666"
     borderopacity="1"
     objecttolerance="10"
     gridtolerance="10"
     guidetolerance="10"
     inkscape:pageopacity="0"
     inkscape:pageshadow="2"
     inkscape:window-width="1366"
     inkscape:window-height="717"
     id="namedview4525"
     showgrid="false"
     fit-margin-top="0"
     fit-margin-left="0"
     fit-margin-right="0"
     fit-margin-bottom="0"
     inkscape:zoom="0.69375"
     inkscape:cx="177.56393"
     inkscape:cy="142.72202"
     inkscape:window-x="0"
     inkscape:window-y="-3"
     inkscape:window-maximized="1"
     inkscape:current-layer="svg4523" />
  <g
     id="g4533">
    <path
       style="fill:#121212"
       d="M 0,345.5 0,338 6.9966448,338 13.99329,338 14.246645,192.75 14.5,47.5 l 185.5,0 185.5,0 0.25336,145.25 0.25335,145.25 6.99665,0 6.99664,0 0,7.5 0,7.5 -200,0 -200,0 0,-7.5 z m 397,0 0,-4.5 -197,0 -197,0 0,4.5 0,4.5 197,0 197,0 0,-4.5 z M 46,210 46,82 l 154,0 154,0 0,128.02746 0,128.02745 14.25,-0.27745 L 382.5,337.5 382.75339,193.75 383.00678,50 200.00339,50 17,50 17,193.33333 c 0,78.83334 0.3,143.63334 0.666667,144 C 18.033333,337.7 24.558333,338 32.166667,338 L 46,338 46,210 Z m 179.75641,53.2396 0.25641,-74.26039 44.24359,0.26039 44.24359,0.2604 0.25641,74.25 0.2564,74.25 17.9936,0 L 351,338 351,211.5 351,85 200,85 49,85 l 0,126.50543 0,126.50544 88.25,-0.25544 88.25,-0.25543 0.25641,-74.2604 z M 72.543501,321.07039 c -0.315993,-0.51129 2.084147,-2.97542 5.333645,-5.47586 5.193654,-3.99642 5.953934,-5.02604 6.28653,-8.51363 C 84.583233,302.68142 83.696144,302.05225 77,302 c -7.047201,-0.055 -8.00078,-0.75493 -7.992446,-5.86663 0.01251,-7.67272 1.890517,-17.05883 5.589661,-27.93661 3.907958,-11.49184 3.837926,-12.62444 -1.162172,-18.79547 -1.826547,-2.25428 -3.604544,-5.22846 -3.951105,-6.60926 -0.889941,-3.54581 2.751905,-7.42074 9.504188,-10.11247 3.72079,-1.48325 6.118017,-3.20753 7.491742,-5.38865 2.432469,-3.86214 3.749847,-3.71157 4.616868,0.52769 0.898869,4.39498 2.600927,6.14934 8.50259,8.76385 6.812584,3.01805 8.564994,4.8771 7.767264,8.23988 -0.84374,3.55672 -3.06984,5.98385 -7.61659,8.3044 -4.670303,2.38362 -4.732646,4.10284 -0.249255,6.87373 6.295925,3.8911 6.499255,4.63114 6.499255,23.65466 0,19.63306 1.0541,17.73885 -10.5,18.86848 -7.376484,0.72119 -8.472964,1.43067 -8.463569,5.4764 0.0044,1.88563 1.475113,3.60004 5.984687,6.97625 C 96.309503,317.43818 99,319.77412 99,320.16723 c 0,2.31013 -2.667997,1.39851 -7.552983,-2.58078 l -5.558674,-4.52806 -5.694171,4.47018 c -5.991321,4.70345 -6.723311,5.04232 -7.650671,3.54182 z M 96.25,299.34829 l 6.75,-0.6375 0,-15.66427 c 0,-17.03151 0.0743,-16.77706 -6.25,-21.40447 -4.524586,-3.31059 -4.922595,-6.57453 -1.162383,-9.53231 2.124234,-1.67092 2.470467,-2.5688 1.933427,-5.01393 -0.359805,-1.63818 -0.168512,-3.88601 0.425096,-4.99517 1.509004,-2.8196 -1.784257,-4.69361 -4.558,-2.5937 -2.897774,2.19381 -7.338267,1.76848 -11.043749,-1.05783 L 79,235.89822 l -0.01474,3.30089 c -0.0081,1.81549 -0.601584,4.42589 -1.318836,5.80089 -1.152647,2.20967 -1.005863,3.04275 1.263937,7.17352 l 2.568032,4.67353 -3.747057,11.32647 c -3.955901,11.95776 -6.128807,22.64288 -5.580675,27.4426 0.308794,2.70396 0.672469,2.9205 5.829341,3.47088 8.536097,0.91104 10.997109,0.94628 18.25,0.26129 z m 7.58466,-54.29195 c 0.18407,-1.25786 -0.11174,-2.73342 -0.65735,-3.27903 -1.27577,-1.27577 -3.561731,2.77852 -2.75379,4.88399 0.82104,2.13959 3.01419,1.1077 3.41114,-1.60496 z m -28.265156,-2.47725 c 0.334185,-1.33149 0.43974,-3.24399 0.234566,-4.25 -0.324238,-1.58979 -0.600448,-1.48775 -2.111242,0.78001 -1.665598,2.50011 -1.438175,5.8909 0.395109,5.8909 0.480677,0 1.147383,-1.08941 1.481567,-2.42091 z m 15.936464,-5.58875 c 0.343201,-0.55531 -0.231723,-2.09753 -1.277608,-3.42716 -1.851139,-2.35334 -1.97175,-2.37149 -4.544288,-0.68393 -2.483303,1.62902 -2.540541,1.83571 -0.949089,3.42716 1.868181,1.86818 5.794001,2.26473 6.770985,0.68393 z m 30.037532,84.08005 c -0.31599,-0.51129 2.08173,-2.97357 5.32828,-5.47172 5.00274,-3.84953 5.97459,-5.11822 6.37359,-8.32039 0.25893,-2.07805 0.34682,-3.92862 0.1953,-4.11236 -0.15152,-0.18374 -2.22516,-0.54436 -4.60808,-0.80137 -2.38293,-0.257 -5.86076,-0.70188 -7.72852,-0.98861 l -3.39593,-0.52132 0.6604,-10.67731 c 0.36322,-5.87252 1.54798,-14.95231 2.63279,-20.17731 2.54836,-12.27412 2.50307,-14.08228 -0.54348,-21.69745 -3.40095,-8.50103 -2.44435,-10.60548 6.85614,-15.083 4.51588,-2.17408 7.38262,-4.27966 8.5,-6.24313 2.05904,-3.61817 3.42546,-3.34947 4.28275,0.84218 0.90717,4.43559 2.22943,5.71831 9.37462,9.09424 3.44635,1.62833 6.55922,3.72448 6.9175,4.65812 1.74912,4.55814 -1.66065,10.54659 -8.19162,14.38665 -1.4867,0.87415 -1.20106,1.422 2.30276,4.41653 l 4,3.4186 0.31092,18.51691 c 0.35614,21.20984 1.44968,19.1051 -10.50247,20.21423 -7.03365,0.65271 -7.20649,0.73543 -7.87249,3.7677 -0.72448,3.29851 0.08,4.32543 8.55537,10.92022 2.50906,1.95234 3.18069,3.01618 2.39822,3.79865 -0.78247,0.78247 -2.52129,-0.047 -6.20878,-2.9618 C 138.3637,315.82189 135.54752,314 134.92258,314 c -0.62494,0 -3.39696,1.8 -6.16005,4 -5.24582,4.17679 -6.26685,4.61105 -7.21903,3.07039 z m 23.7065,-21.7221 6.75,-0.6375 0,-16.42857 0,-16.42856 -4,-3.59087 c -4.61054,-4.13897 -5.02413,-6.54565 -1.51952,-8.84196 2.08818,-1.36823 2.30716,-1.9491 1.38461,-3.6729 -0.60989,-1.1396 -0.83799,-3.92897 -0.51438,-6.29002 0.48412,-3.53203 0.28092,-4.32098 -1.21357,-4.7118 -0.98728,-0.25818 -2.63304,0.14333 -3.65723,0.89224 -2.99926,2.19311 -7.97469,1.65764 -11.40318,-1.22724 L 128,235.82221 l 0,3.35371 c 0,1.84453 -0.86055,4.9593 -1.91234,6.92171 -1.25553,2.34255 -1.60425,4.05475 -1.01531,4.98519 1.46081,2.30788 1.06246,9.44149 -1.12723,20.18649 -1.13019,5.54591 -2.14269,13.9416 -2.25,18.65708 L 121.5,298.5 l 6,0.58189 c 9.52189,0.92345 10.61859,0.93991 17.75,0.2664 z m 8.24352,-53.42249 c 0.84797,-3.43726 -1.96592,-6.16349 -2.99972,-2.90628 -0.84879,2.67433 0.30137,7.59281 1.49079,6.37512 0.48064,-0.49205 1.15966,-2.05303 1.50893,-3.46884 z m -28.52679,-6.36693 -0.0333,-3.05887 -2.01048,2.41481 c -1.10576,1.32814 -1.76579,3.05245 -1.46673,3.83179 0.29906,0.77933 0.55806,1.94267 0.57555,2.58519 0.0175,0.64251 0.6925,0.2947 1.5,-0.77292 0.80751,-1.06762 1.45323,-3.31762 1.43493,-5 z m 16.38249,-2.3149 c 0.25698,-0.41581 -0.51973,-1.90345 -1.72603,-3.30586 -2.10861,-2.45141 -2.29686,-2.48718 -4.8767,-0.92672 -2.51478,1.52111 -2.57766,1.72886 -1.00067,3.30586 1.70283,1.70283 6.744,2.31726 7.6034,0.92672 z M 176,320.55873 c 0,-0.7927 2.475,-3.37428 5.5,-5.73683 4.87375,-3.80645 5.5,-4.71028 5.5,-7.93786 l 0,-3.64231 -8.75,-0.87087 -8.75,-0.87086 -0.66239,-5 c -0.91578,-6.9126 -0.87954,-23.02081 0.0647,-28.75803 0.62068,-3.77129 1.57796,-5.44516 4.61596,-8.0713 4.58232,-3.9611 4.28828,-5.7084 -1.45353,-8.63765 -4.02087,-2.05129 -5.61621,-4.88662 -4.89742,-8.70393 0.19176,-1.01835 2.8444,-3.15883 5.98461,-4.82909 7.49797,-3.98815 9.68456,-6.11137 10.43982,-10.13729 0.76356,-4.07008 1.86381,-4.26824 3.6037,-0.64904 1.34524,2.79828 2.92747,3.8293 11.04933,7.20005 7.98164,3.31256 8.66559,8.14327 2.28877,16.16544 -4.25756,5.35611 -4.43442,8.24281 -1.03627,16.91386 2.70598,6.90482 4.92183,16.86818 5.95201,26.76261 0.6332,6.08159 0.57855,6.28329 -1.96408,7.25 -1.43846,0.5469 -4.04859,1.00051 -5.80029,1.00802 -6.33704,0.0272 -7.6849,0.88774 -7.6849,4.90657 0,3.33947 0.5617,4.10602 5.95979,8.13337 5.63637,4.20512 7.56954,6.99307 4.79021,6.90827 -0.6875,-0.021 -3.69107,-2.01411 -6.67461,-4.42917 l -5.42461,-4.39103 -5.63762,4.42917 C 176.90453,322.37004 176,322.75541 176,320.55873 Z m 25.15006,-22.14955 c 1.29582,-0.37736 1.55332,-1.38527 1.19944,-4.69485 -1.03207,-9.65217 -2.78002,-17.67331 -5.48189,-25.15573 -3.37905,-9.35777 -3.59675,-13.72588 -0.87459,-17.5488 1.87943,-2.63941 1.90313,-3.0141 0.41581,-6.57376 -0.86747,-2.07615 -1.37674,-4.8236 -1.1317,-6.10543 0.5603,-2.93102 0.20443,-2.9136 -3.4595,0.16939 -3.33901,2.80959 -8.34128,3.30002 -11.33461,1.11124 -3.08281,-2.25421 -4.13743,-0.96711 -3.96414,4.83803 0.10446,3.49939 0.73934,5.95181 1.82075,7.03322 2.73864,2.73863 2.00173,6.1114 -2.23519,10.23038 -3.60071,3.50048 -3.94865,4.33237 -4.59682,10.99057 -0.38569,3.96189 -0.38086,11.47685 0.0107,16.69991 l 0.71198,9.49647 4.63483,0.42389 c 5.1126,0.46757 21.68148,-0.15638 24.2849,-0.91453 z M 173.81642,245.25855 C 173.4474,242.06136 170,240.67761 170,243.72668 c 0,1.95358 1.77315,4.27332 3.26642,4.27332 0.47653,0 0.72403,-1.23365 0.55,-2.74145 z M 202,242.14098 C 202,240.33538 200.19531,238 198.8,238 c -1.06668,0 -1.00843,1.32159 0.19813,4.49507 1.06061,2.78963 3.00187,2.56064 3.00187,-0.35409 z m -12.46197,-5.54513 c 1.86763,-1.36565 1.85231,-1.45973 -0.55887,-3.43155 l -2.47916,-2.02741 -2.56451,2.68156 c -1.41048,1.47485 -2.39642,3.01905 -2.19098,3.43155 0.62935,1.26367 5.75964,0.83306 7.79352,-0.65415 z M 198.5,162.05464 c -1.1,-0.45022 -2.9,-1.81855 -4,-3.04073 -1.91991,-2.13317 -2,-3.62954 -2,-37.36803 l 0,-35.14588 77.5,0 77.5,0 0,35.33273 0,35.33272 -3.26578,2.91728 c -3.65286,3.26305 -7.59024,3.75706 -10.98623,1.37841 -1.98416,-1.38975 -2.50194,-1.38118 -5.34399,0.0885 -3.56841,1.8453 -8.95083,1.30379 -10.9469,-1.10133 -1.10473,-1.33112 -1.43091,-1.32949 -2.9161,0.0146 -2.98829,2.70436 -7.62199,2.98187 -11.50781,0.68919 C 300.58994,160.00554 299,159.43004 299,159.87321 c 0,1.03078 -4.56946,3.12869 -6.79705,3.12063 -0.93662,-0.003 -2.97737,-0.67086 -4.53499,-1.48326 -2.49911,-1.30345 -3.16922,-1.30273 -5.70034,0.006 -3.60301,1.86319 -5.71824,1.86179 -9.29966,-0.006 -2.49911,-1.30345 -3.16922,-1.30273 -5.70034,0.006 -3.62119,1.87259 -5.32959,1.86456 -9.01728,-0.0424 -2.66166,-1.3764 -3.25576,-1.36774 -6.07182,0.0885 -3.54359,1.83246 -8.93201,1.28258 -10.92142,-1.11451 -1.10473,-1.33112 -1.43091,-1.32949 -2.9161,0.0146 -2.70829,2.45097 -7.39776,2.92109 -10.92798,1.09554 -2.85831,-1.47808 -3.37624,-1.48748 -5.36101,-0.0973 C 220.54365,162.30751 218.40524,163 217,163 c -1.40524,0 -3.54365,-0.69249 -4.75201,-1.53886 -1.97757,-1.38514 -2.49428,-1.38514 -5.17285,0 -3.26265,1.68719 -5.5211,1.8435 -8.57514,0.5935 z m 8.17374,-4.45042 2.78526,-2.39579 2.84722,2.39579 C 213.8722,158.9219 215.9844,160 217,160 c 1.0156,0 3.1278,-1.0781 4.69378,-2.39578 l 2.84722,-2.39579 2.78526,2.39579 c 3.6825,3.16755 6.28599,3.02238 9.60986,-0.53583 l 2.73853,-2.93161 2.57245,2.93161 c 3.17586,3.61928 5.68461,3.7014 9.70592,0.31769 l 3.10648,-2.61393 2.4225,2.61393 c 3.08891,3.33299 6.53564,3.32355 9.88628,-0.0271 l 2.64101,-2.64101 2.44761,2.64101 c 3.06628,3.30858 5.56047,3.33872 9.39342,0.11351 l 3.00376,-2.52751 2.52751,2.52751 c 3.19761,3.19761 6.03075,3.20607 9.20932,0.0275 1.375,-1.375 2.75208,-2.5 3.06019,-2.5 0.3081,0 1.89717,1.125 3.53127,2.5 3.88709,3.27077 6.42206,3.15645 9.57053,-0.43161 l 2.57245,-2.93161 2.73853,2.93161 c 3.32387,3.55821 5.92736,3.70338 9.60986,0.53583 l 2.78526,-2.39579 2.84722,2.39579 c 3.62473,3.05001 6.15024,3.03023 9.25294,-0.0725 l 2.46825,-2.46825 -0.2637,-32.78175 L 344.5,89.5 l -74.5,0 -74.5,0 0,33.33906 0,33.33905 2.36078,1.91095 c 3.13399,2.53681 5.44808,2.4095 8.81296,-0.48484 z m -9.00042,-5.26423 C 197.303,151.96966 197,151.29167 197,150.83333 197,150.375 229.2125,150 268.58333,150 c 56.82219,0 71.49743,0.25776 71.16675,1.25 -0.32694,0.98098 -15.58793,1.30524 -70.91001,1.50666 -38.77138,0.14116 -70.79642,-0.0463 -71.16675,-0.41667 z M 311.75653,264.75 312.01306,192 270.50653,192 229,192 l 0,73.01109 0,73.0111 41.25,-0.2611 41.25,-0.26109 0.25653,-72.75 z M 269,263 c 0,-54.08889 0.25815,-68.08062 1.25,-67.75 0.9835,0.32783 1.25,14.77222 1.25,67.75 0,52.97778 -0.2665,67.42217 -1.25,67.75 C 269.25815,331.08062 269,317.08889 269,263 Z m -10.55534,24.71638 c -0.27091,-0.70599 -0.36929,-9.36849 -0.21862,-19.25 L 258.5,250.5 l 3.25,-0.31336 3.25,-0.31336 0,19.56336 0,19.56336 -3.03138,0 c -1.66727,0 -3.25305,-0.57763 -3.52396,-1.28362 z m 3.29853,-27.01548 c -0.18485,-4.5105 -0.33516,-0.5509 -0.33401,8.7991 0.001,9.35 0.1524,13.0404 0.3361,8.2009 0.18371,-4.83951 0.18277,-12.48951 -0.002,-17 z M 275,269.5 l 0,-19.5 3,0 3,0 0,19.5 0,19.5 -3,0 -3,0 0,-19.5 z"
       id="path4535"
       inkscape:connector-curvature="0" />
  </g>
</svg>
