<?xml version="1.0" encoding="UTF-8" standalone="no"?>
<!-- Created with Inkscape (http://www.inkscape.org/) -->

<svg
   xmlns:dc="http://purl.org/dc/elements/1.1/"
   xmlns:cc="http://creativecommons.org/ns#"
   xmlns:rdf="http://www.w3.org/1999/02/22-rdf-syntax-ns#"
   xmlns:svg="http://www.w3.org/2000/svg"
   xmlns="http://www.w3.org/2000/svg"
   xmlns:sodipodi="http://sodipodi.sourceforge.net/DTD/sodipodi-0.dtd"
   xmlns:inkscape="http://www.inkscape.org/namespaces/inkscape"
   id="svg4617"
   version="1.1"
   inkscape:version="0.91 r"
   width="400"
   height="400"
   viewBox="0 0 400 400"
   sodipodi:docname="skyscraper.svg">
  <metadata
     id="metadata4623">
    <rdf:RDF>
      <cc:Work
         rdf:about="">
        <dc:format>image/svg+xml</dc:format>
        <dc:type
           rdf:resource="http://purl.org/dc/dcmitype/StillImage" />
        <dc:title></dc:title>
      </cc:Work>
    </rdf:RDF>
  </metadata>
  <defs
     id="defs4621" />
  <sodipodi:namedview
     pagecolor="#ffffff"
     bordercolor="#666666"
     borderopacity="1"
     objecttolerance="10"
     gridtolerance="10"
     guidetolerance="10"
     inkscape:pageopacity="0"
     inkscape:pageshadow="2"
     inkscape:window-width="1366"
     inkscape:window-height="717"
     id="namedview4619"
     showgrid="false"
     fit-margin-top="0"
     fit-margin-left="0"
     fit-margin-right="0"
     fit-margin-bottom="0"
     inkscape:zoom="0.69375"
     inkscape:cx="146.3964"
     inkscape:cy="143.51351"
     inkscape:window-x="0"
     inkscape:window-y="-3"
     inkscape:window-maximized="1"
     inkscape:current-layer="svg4617" />
  <g
     id="g4627">
    <path
       style="fill:#121212"
       d="m 150.36408,395.36043 c 0.34975,-2.55177 0.63592,-5.47677 0.63592,-6.5 0,-1.46205 0.75482,-1.86043 3.525,-1.86043 3.10639,0 3.59533,-0.35165 4.11723,-2.96114 0.44981,-2.24905 1.4057,-3.2296 3.975,-4.07755 L 166,378.8449 166,347.52944 C 166,313.1594 165.65588,315 172.08179,315 l 2.91821,0 0,-29.98095 0,-29.98095 2.5,-0.62746 2.5,-0.62746 0,-30.39159 0,-30.39159 2.5,0 c 1.98169,0 2.5,-0.50446 2.5,-2.43316 l 0,-2.43316 -35.75,0.18316 c -32.36679,0.16583 -36.05267,0.0176 -38.94831,-1.56579 -12.158165,-6.64852 -12.21051,-24.23278 -0.0914,-30.71018 3.96358,-2.11845 4.68701,-2.99704 5.22186,-6.34177 2.12206,-13.27066 16.28802,-23.95831 29.65693,-22.37496 9.29283,1.1006 18.61979,7.73031 21.85147,15.5323 0.75999,1.83477 1.88218,3.04183 2.57926,2.77434 2.02642,-0.77761 9.57353,1.29948 12.63026,3.47607 l 2.84995,2.02934 0,-16.0681 c 0,-15.992 0.0106,-16.06816 2.25,-16.0834 1.2375,-0.008 2.76457,-0.34592 3.3935,-0.75 C 191.41137,117.74134 192.8041,99.925789 194.88329,64 198.49459,1.6011952 198.63691,0 200.57196,0 201.41491,0 202,0.98890492 202,2.4136649 202,7.1721842 207.04355,76.818869 208.50667,92.264706 209.328,100.93529 210,116.27805 210,126.35972 c 0,17.06031 0.13857,18.45571 2,20.14028 1.86181,1.68491 2,3.07997 2,20.19017 l 0,18.3802 2.19803,-1.17635 c 1.20892,-0.647 4.49191,-1.20951 7.29553,-1.25004 6.44001,-0.0931 13.27193,3.64848 16.03693,8.78277 1.58914,2.95086 2.48098,3.57325 5.12019,3.57325 3.5105,0 8.83433,3.80206 9.86326,7.04392 0.34146,1.07584 1.46934,1.95608 2.50639,1.95608 8.67,0 13.1915,10.94201 7.05659,17.07692 L 261.15385,224 240.57692,224 220,224 l 0,26.46146 0,26.46145 4,1.07709 4,1.07709 0,26.99284 c 0,23.07114 0.21793,27.07647 1.5,27.56844 1.27011,0.48739 1.5,3.92978 1.5,22.46075 l 0,21.88514 3.70948,1.75787 c 2.38528,1.13035 3.91646,2.65031 4.2893,4.25787 0.45046,1.94224 1.30893,2.57087 3.84786,2.81763 3.64973,0.35474 3.76729,0.56098 4.52178,7.93237 l 0.53735,5.25 -49.08881,0 -49.08881,0 0.63593,-4.63957 z M 244,393.5 c 0,-3.31144 -0.18257,-3.5 -3.38871,-3.5 -3.05327,0 -3.45102,-0.33215 -4.0182,-3.35546 -0.51614,-2.75126 -1.34646,-3.63709 -4.61129,-4.91955 l -3.9818,-1.5641 0,-21.97346 c 0,-18.60947 -0.22964,-22.06157 -1.5,-22.54906 -1.28195,-0.49193 -1.5,-4.49054 -1.5,-27.50765 l 0,-26.93204 -3.75,-0.88652 -3.75,-0.88652 -0.26449,-30.74072 -0.26449,-30.74072 -2.98551,-0.5971 L 211,216.75 l 0,-32.96727 c 0,-31.45308 -0.0919,-33.08405 -2,-35.50986 -1.83618,-2.33433 -2.001,-4.06734 -2.01225,-21.15773 C 206.98101,116.87681 206.34653,101.975 205.5778,94 c -0.76873,-7.975 -2.20986,-26.360081 -3.2025,-40.855735 -0.99265,-14.495654 -1.92286,-25.970654 -2.06714,-25.5 C 199.98487,28.698838 195,113.16681 195,117.59033 c 0,2.85065 -0.36947,3.2564 -3.5,3.84369 l -3.5,0.65661 0.0137,16.70468 C 188.03006,158.86928 188.24885,160 192.11663,160 l 2.88337,0 0,-19 c 0,-16.22222 0.2193,-19 1.5,-19 1.2819,0 1.5,2.82678 1.5,19.44098 0,11.88197 0.38882,19.68129 1,20.05902 0.63059,0.38973 1,-1.98962 1,-6.44098 0,-5.45221 0.32528,-7.05902 1.42903,-7.05902 1.09912,0 1.52207,2.02004 1.83205,8.75 0.22207,4.82131 1.14971,10.65822 2.06605,13 1.55923,3.98474 1.55477,4.51526 -0.0714,8.5 -1.5996,3.91963 -1.75542,12.04296 -2.00458,104.5 C 203.01391,370.78968 202.79946,383 201.4905,383 200.1799,383 200,371.08712 200,284.3 c 0,-65.17466 -0.33647,-98.36353 -0.99059,-97.70941 -0.64034,0.64034 -1.00065,35.89119 -1.01907,99.7 C 197.96538,372.78776 197.77863,385 196.48093,385 195.18304,385 195,372.81764 195,286.43664 l 0,-98.56336 -3.25,0.31336 c -2.9671,0.28608 -3.27702,0.63978 -3.56037,4.06336 -0.26681,3.22378 -0.6527,3.75 -2.75,3.75 L 183,196 l 0,30.43045 0,30.43045 -2.25,0.31955 -2.25,0.31955 -0.26486,29.73468 -0.26485,29.73467 -2.23515,0.47639 c -1.22933,0.26202 -3.13514,0.61243 -4.23514,0.7787 -1.9442,0.29387 -2.00737,1.17222 -2.26416,31.47933 l -0.26417,31.17702 -3.51172,1.26985 c -2.60207,0.94092 -3.71422,2.05726 -4.29345,4.30961 -0.6386,2.48323 -1.36619,3.09712 -3.97411,3.35311 -1.75581,0.17235 -3.19853,0.84735 -3.20604,1.5 -0.008,0.65265 -0.285,2.19914 -0.61664,3.43664 l -0.60297,2.25 45.61663,0 45.61663,0 0,-3.5 z M 178,352.58333 C 178,325.04386 178.19388,321 179.51425,321 c 1.32559,0 1.48132,3.883 1.25,31.16701 -0.20225,23.85398 -0.55755,31.2647 -1.51425,31.58333 -0.9824,0.3272 -1.25,-6.34497 -1.25,-31.16701 z M 184,322 c 0,-53.55556 0.18306,-61 1.5,-61 1.31694,0 1.5,7.44444 1.5,61 0,53.55556 -0.18306,61 -1.5,61 -1.31694,0 -1.5,-7.44444 -1.5,-61 z m 5,-32.5 c 0,-82.44444 0.17736,-93.5 1.5,-93.5 1.32264,0 1.5,11.05556 1.5,93.5 0,82.44444 -0.17736,93.5 -1.5,93.5 -1.32264,0 -1.5,-11.05556 -1.5,-93.5 z m 16,11 c 0,-81.83333 0.0162,-82.5 2,-82.5 1.98384,0 2,0.66667 2,82.5 0,81.83333 -0.0162,82.5 -2,82.5 -1.98384,0 -2,-0.66667 -2,-82.5 z m 6,31 c 0,-45.11111 0.18608,-51.5 1.5,-51.5 1.31392,0 1.5,6.38889 1.5,51.5 0,45.11111 -0.18608,51.5 -1.5,51.5 -1.31392,0 -1.5,-6.38889 -1.5,-51.5 z m 5,29 c 0,-19.33333 0.21111,-22.5 1.5,-22.5 1.28889,0 1.5,3.16667 1.5,22.5 0,19.33333 -0.21111,22.5 -1.5,22.5 -1.28889,0 -1.5,-3.16667 -1.5,-22.5 z M 262,219 c 4.55347,-4.55347 0.15624,-12.88125 -6.13697,-11.62261 -2.23072,0.44615 -2.77319,0.11672 -3.30645,-2.00796 C 251.46137,201.00574 247.58987,198 243.06451,198 c -3.40653,0 -4.11835,-0.36635 -4.62365,-2.37962 -1.51053,-6.01843 -11.03597,-11.22423 -17.64162,-9.64143 C 213.66513,187.68838 214,186.94208 214,201.13199 l 0,12.91801 3,0.6 c 2.49855,0.49971 3,1.08056 3,3.475 l 0,2.875 20,0 c 18.66667,0 20.13333,-0.13333 22,-2 z m -63.77964,-35.64483 c 3.43806,-1.73887 5.05237,-4.73313 5.05237,-9.37129 0,-7.01351 -5.33858,-11.49565 -12.88912,-10.8214 -3.52433,0.31472 -3.82332,0.12748 -4.42661,-2.77214 -1.4636,-7.03451 -6.95805,-11.36654 -14.457,-11.39842 l -5,-0.0213 -2.5,-5.18892 c -6.52867,-13.55069 -24.06235,-17.63428 -36.27305,-8.448 C 122.71207,139.10651 118,147.69761 118,153.06802 c 0,3.41035 -0.26804,3.75968 -3.32484,4.33314 -3.33395,0.62545 -7.45422,4.19802 -9.55297,8.2831 -3.1427,6.11704 0.0995,14.56085 6.9518,18.10489 L 116.5,186.0783 156,185.40467 c 30.46758,-0.51959 40.12206,-0.98825 42.22036,-2.0495 z M 81.450733,382.75 c 0.21338,-0.6875 0.664756,-3.6125 1.003058,-6.5 l 0.615095,-5.25 -7.5,0 -7.5,0 -0.663274,5 -0.663273,5 -10.37117,0 L 46,381 46,368.56739 c 0,-13.90266 0.62489,-12.83887 -8.25,-14.0446 l -4.75,-0.64534 0,12.42199 0,12.42198 -5.25,0.6306 C 17.299322,380.60729 18,381.2075 18,371 l 0,-9 -7,0 c -5.5555556,0 -7,-0.30952 -7,-1.5 0,-1.21569 1.6111111,-1.5 8.5,-1.5 l 8.5,0 0,9 c 0,9.72942 -0.110377,9.57208 5.875,8.375 L 30,375.75 l 0,-12.50417 0,-12.50416 6.25,0.66935 c 3.4375,0.36814 7.7125,0.92634 9.5,1.24045 l 3.25,0.57111 0,12.38871 0,12.38871 7.465557,0 7.465557,0 0.663274,-5 0.663273,-5 10.509265,0 10.509264,0 -0.665945,6.5 -0.665944,6.5 13.527849,0 13.52785,0 0,-25.5 0,-25.5 8,0 8,0 0,24 0,24 2.47178,0 2.47178,0 0.27822,-13.7389 0.27822,-13.7389 5,-0.69366 c 2.75,-0.38152 6.6875,-0.95434 8.75,-1.27292 l 3.75,-0.57926 0,12.51182 C 151,370.94313 150.75341,373 149.5,373 c -1.2381,0 -1.5,-1.83333 -1.5,-10.5 0,-11.77885 0.40954,-11.28949 -8.25,-9.85815 l -3.75,0.61983 0,13.86916 0,13.86916 -3.25,0.0136 c -1.7875,0.008 -4.2625,0.285 -5.5,0.61664 l -2.25,0.60297 0,-24.61663 0,-24.61663 -5,0 -5,0 0,25.5 0,25.5 -16.968615,0 c -13.115139,0 -16.880511,-0.28387 -16.580652,-1.25 z M 363,367 l 0,-13 -4,0 -4,0 0,8.5 0,8.5 -6,0 -6,0 0,-16.11663 0,-16.11663 -2.25,0.60297 c -1.2375,0.33164 -3.4875,0.60913 -5,0.61664 L 333,340 l 0,18.5 0,18.5 -8,0 -8,0 -0.011,-2.75 c -0.006,-1.5125 -0.28993,-4.4375 -0.63084,-6.5 l -0.61983,-3.75 -7.36916,0 -7.36916,0 0,6 0,6 -11,0 -11,0 0,-16 0,-16 -2.375,0 c -1.30625,0 -3.72481,-0.26996 -5.37458,-0.59992 l -2.99958,-0.59991 -1.27821,10.34991 c -0.70302,5.69246 -1.66331,10.85067 -2.13399,11.4627 -0.47067,0.61203 -3.79006,1.41341 -7.37642,1.78085 -3.58635,0.36743 -7.8575,0.93543 -9.49143,1.26221 -2.29139,0.45828 -2.97079,0.2329 -2.97079,-0.98553 0,-1.60314 0.6495,-1.78709 12,-3.39868 l 5.5,-0.78092 1.46303,-11.33904 1.46303,-11.33904 6.53697,0.65484 C 282.91628,341.56472 282,340.00365 282,357.56739 L 282,373 l 8.08882,0 8.08882,0 -0.33882,-6.00182 -0.33882,-6.00182 10.6335,0.002 10.63351,0.002 0.69609,6.5 0.69609,6.5 4.9204,0 4.92041,0 0,-17.94098 c 0,-9.86754 0.3375,-18.14149 0.75,-18.38654 0.4125,-0.24506 4.0125,-0.76728 8,-1.16051 l 7.25,-0.71495 0,16.10149 0,16.10149 3,0 3,0 0,-8.5 0,-8.5 7,0 7,0 0,13.06955 c 0,12.98162 0.0151,13.0674 2.25,12.75 1.7245,-0.24492 2.32319,-1.0786 2.56336,-3.56955 l 0.31336,-3.25 10.82001,0 c 9.979,0 10.86066,0.15545 11.34302,2 0.31292,1.1966 1.36401,2 2.61663,2 1.19433,0 2.09362,0.64431 2.09362,1.5 0,1.04762 -1.05556,1.5 -3.5,1.5 -2.83333,0 -3.5,-0.38095 -3.5,-2 0,-1.84106 -0.66667,-2 -8.38871,-2 l -8.38871,0 -0.6566,3.5 c -0.64548,3.44072 -0.74053,3.5 -5.61129,3.5 L 363,380 363,367 Z M 268.60927,79.395312 c -2.23044,-1.960965 -3.48674,-2.378361 -5.5,-1.827336 -6.00872,1.644569 -6.97661,1.135572 -9.06597,-4.767611 -0.70721,-1.998136 -2.00631,-2.982588 -4.9994,-3.788544 -3.49372,-0.940762 -4.03434,-1.457805 -3.97361,-3.800365 0.0386,-1.491301 0.42088,-3.609677 0.84939,-4.707503 0.57537,-1.474074 -0.0132,-2.981966 -2.25071,-5.766246 l -3.02981,-3.770199 3.31791,-3.423214 c 2.96497,-3.059076 3.25083,-3.842726 2.68727,-7.366996 -0.73622,-4.604048 0.40816,-5.987004 5.65931,-6.839147 2.90956,-0.472158 3.73313,-1.204111 5.00878,-4.45161 1.68992,-4.302115 3.15631,-4.729746 7.86647,-2.294031 2.90443,1.501944 3.24053,1.473509 5.90984,-0.5 4.05759,-2.999907 6.40908,-2.641118 8.87863,1.354697 1.87479,3.033477 2.69471,3.483548 6.83156,3.75 L 291.5,31.5 292,36.267152 c 0.42578,4.059493 0.98245,5.059313 3.75,6.735301 3.80302,2.303051 3.93973,3.145477 1.22361,7.540246 -1.93433,3.129814 -1.9506,3.437699 -0.35813,6.777141 2.08081,4.363502 1.35085,6.378457 -2.96384,8.181249 -2.8817,1.204048 -3.45759,2.015498 -3.92998,5.537434 -0.30443,2.269659 -0.82498,4.398128 -1.15678,4.729932 -0.33181,0.331804 -2.63076,0.498329 -5.10879,0.370057 -3.93533,-0.203709 -4.83002,0.152428 -7.0697,2.814132 -3.09366,3.676614 -4.03766,3.730346 -7.77712,0.442668 z M 282.25,72.990985 287,73 l 0,-3.514698 c 0,-2.892207 0.57561,-3.865615 3.25,-5.496033 1.7875,-1.089734 3.62751,-2.108955 4.08891,-2.264937 0.46139,-0.155981 0.0408,-1.957303 -0.93472,-4.002936 -1.72858,-3.62486 -1.71992,-3.814892 0.34075,-7.481363 l 2.11438,-3.762029 -3.42966,-2.248195 C 289.47194,42.290975 289,41.432461 289,37.990807 289,34.018062 288.98234,34 285.09699,34 c -3.29023,0 -4.3631,-0.573525 -6.83354,-3.653002 l -2.93054,-3.653003 -3.0967,2.289492 c -3.00298,2.220199 -3.21977,2.240249 -7.16304,0.662465 l -4.06634,-1.627026 -1.75342,3.711276 c -1.45052,3.070179 -2.44871,3.848369 -5.77847,4.504901 -3.99881,0.788452 -4.02253,0.820117 -3.63753,4.857156 0.31898,3.344855 -0.0851,4.556858 -2.28488,6.85291 l -2.6724,2.789381 2.55994,3.772272 2.55993,3.772272 0.0164,-5.889547 c 0.0526,-18.828932 22.70381,-27.403508 35.36617,-13.387794 10.91101,12.077183 3.87516,31.548475 -12.42787,34.393396 -5.90638,1.030678 -13.0982,-1.742236 -17.82856,-6.874071 C 252.85679,64.059063 251,61.359632 251,60.522343 c 0,-2.328827 -1.68965,-1.809994 -2.36971,0.727657 -1.05469,3.935558 -0.71199,4.532158 3.11971,5.430948 3.24889,0.762083 3.92744,1.436244 5.07788,5.04498 1.23437,3.872052 1.50301,4.098766 3.8151,3.219712 4.10604,-1.561115 6.87593,-1.086636 9.41131,1.612144 l 2.40291,2.557784 2.5214,-3.066799 c 2.17183,-2.641613 3.17995,-3.065549 7.2714,-3.057784 z M 278,68.452196 C 290.74233,62.019015 290.75998,43.68097 278.03,37.25 c -8.53928,-4.313911 -17.94492,-1.664133 -22.6616,6.384278 -2.22084,3.789582 -2.5398,5.319995 -2.17108,10.417389 0.94037,13.000474 13.32883,20.193275 24.80264,14.400529 z"
       id="path4629"
       inkscape:connector-curvature="0" />
  </g>
</svg>
