<?xml version="1.0" encoding="utf-8"?>
<!-- Generator: Adobe Illustrator 17.0.0, SVG Export Plug-In . SVG Version: 6.00 Build 0)  -->
<!DOCTYPE svg PUBLIC "-//W3C//DTD SVG 1.1//EN" "http://www.w3.org/Graphics/SVG/1.1/DTD/svg11.dtd">
<svg version="1.1" id="Layer_2" xmlns="http://www.w3.org/2000/svg" xmlns:xlink="http://www.w3.org/1999/xlink" x="0px" y="0px"
	 width="700px" height="700px" viewBox="0 0 700 700" enable-background="new 0 0 700 700" xml:space="preserve">
<path fill="none" stroke="#231F20" stroke-miterlimit="10" d="M104.375,428.996c0,0,41.419-43.763,55.486-71.115
	c0,0,32.823-81.275,81.275-107.064c0,0,124.256-87.527,254.765-17.193c0,0,101.593,45.752,114.879,149.477
	c0,0,15.63,48.239-53.141,163.117c0,0-32.301,50.536-42.722,75.023c0,0-14.588,40.116-48.973,20.84c0,0-22.923-19.277-29.175-44.805
	c0,0-60.471,17.193-78.428,15.63c0,0-8.578,53.662-27.334,53.662c0,0-38.033,13.025-63.561-50.015c0,0-15.63,24.486-30.218,19.277
	c0,0-23.445-11.983-35.427-41.159c0,0-6.252-17.714-27.612-30.218c0,0-16.671-15.63-30.738-11.462c0,0-38.553,13.025-52.62-28.655
	C90.83,524.338,74.157,470.155,104.375,428.996z"/>
<path fill="none" stroke="#231F20" stroke-miterlimit="10" d="M102.221,432.08c0,0,26.12-9.336,36.019,22.445
	c0,0,17.193,42.2,4.689,79.19c0,0-8.828,18.812-15.616,21.128"/>
<path fill="none" stroke="#231F20" stroke-miterlimit="10" d="M102.221,452.962c0,0-11.652,54.964,1.373,69.292
	c0,0,5.21,3.647,7.815-2.605c0,0,3.126-48.712,0-59.914C111.408,459.735,109.445,448.273,102.221,452.962z"/>
<path fill="none" stroke="#231F20" stroke-miterlimit="10" d="M123.652,460.516c0,0-15.108,43.503-1.563,69.552
	c0,0,6.512,2.866,10.681-4.949c0,0,8.596-31.781,2.605-54.444C135.374,470.675,129.122,451.138,123.652,460.516z"/>
<path fill="none" stroke="#231F20" stroke-miterlimit="10" d="M245.824,347.722c0,0,13.285-1.563,17.974-5.08
	c0,0,28.524-13.676,45.326-11.332c0,0,16.802-4.689,19.146-7.815c0,0,6.643-4.298,8.206,3.126c0,0,23.445,70.334-34.776,99.249"/>
<path fill="none" stroke="#231F20" stroke-miterlimit="10" d="M149.889,374.064c0,0-10.753-54.476,0-63.854
	c0,0,10.306-1.922,17.005,8.596c0,0,4.245,8.392,8.765,6.736"/>
<path fill="none" stroke="#231F20" stroke-miterlimit="10" d="M352.239,222.332c0,0-0.008,0-0.016,0
	c-2.477,0.922-4.876,1.876-7.198,2.845c-2.798,1.172-5.486,2.376-8.057,3.603c-3.001,1.43-5.846,2.884-8.534,4.337v0.008
	c-2.712,1.469-5.267,2.946-7.666,4.408c-2.946,1.79-5.658,3.564-8.135,5.267c-3.626,2.509-6.752,4.876-9.354,6.971v0.008
	c-6.502,5.244-9.792,8.854-9.792,8.854s5.697,3.634,12.512,8.112v0.008c1.524,1,3.095,2.04,4.681,3.095
	c8.253,5.494,16.646,11.3,17.982,13.012c0,0,39.34-19.045,83.111-33.502c17.286-5.705,35.261-10.699,51.781-13.528
	c11.785-2.016,22.827-2.923,32.346-2.204"/>
<path fill="none" stroke="#231F20" stroke-miterlimit="10" d="M310.68,269.847c0,0,1.547-1.149,4.462-3.095
	c2.165-1.454,5.08-3.36,8.674-5.564v-0.008c2.501-1.54,5.338-3.228,8.479-5.025c2.727-1.563,5.681-3.196,8.846-4.884
	c2.938-1.563,6.057-3.173,9.339-4.791c2.016-0.992,4.103-1.993,6.244-3.001c3.157-1.477,6.439-2.954,9.847-4.408"/>
<line fill="none" stroke="#231F20" stroke-miterlimit="10" x1="303.281" y1="249.771" x2="305.996" y2="266.75"/>
<line fill="none" stroke="#231F20" stroke-miterlimit="10" x1="312.636" y1="242.799" x2="315.14" y2="266.75"/>
<line fill="none" stroke="#231F20" stroke-miterlimit="10" x1="320.768" y1="237.528" x2="323.816" y2="261.185"/>
<line fill="none" stroke="#231F20" stroke-miterlimit="10" x1="328.437" y1="233.118" x2="332.297" y2="256.154"/>
<line fill="none" stroke="#231F20" stroke-miterlimit="10" x1="336.969" y1="228.779" x2="341.142" y2="251.27"/>
<line fill="none" stroke="#231F20" stroke-miterlimit="10" x1="345.023" y1="225.177" x2="350.478" y2="246.482"/>
<line fill="none" stroke="#231F20" stroke-miterlimit="10" x1="352.242" y1="222.329" x2="356.724" y2="243.481"/>
<path fill="none" stroke="#231F20" stroke-miterlimit="10" d="M411.771,249.357c-9.497,1.47-26.452-1.47-26.452-1.47
	c-22.257-2.874-36.046-30.661-36.046-30.661c-26.278-64.46,18.072-97.308,18.072-97.308s44.675-33.995,84.531-3.777
	c0,0,45.326,25.789,38.293,70.855c0,0-6.348,37.754-26.619,48.834"/>
<path fill="none" stroke="#231F20" stroke-miterlimit="10" d="M450.486,115.121c0,0-47.063-14.088-80.667,25.507
	c0,0-30.218,42.722,1.563,86.745c0,0,11.83,15.105,24.411,21.88"/>
<line fill="none" stroke="#231F20" stroke-miterlimit="10" x1="409.155" y1="103.902" x2="417.726" y2="113.632"/>
<line fill="none" stroke="#231F20" stroke-miterlimit="10" x1="388.467" y1="108.766" x2="399.23" y2="118.783"/>
<line fill="none" stroke="#231F20" stroke-miterlimit="10" x1="368.949" y1="118.783" x2="384.183" y2="127.246"/>
<line fill="none" stroke="#231F20" stroke-miterlimit="10" x1="355.915" y1="132.026" x2="369.82" y2="140.628"/>
<line fill="none" stroke="#231F20" stroke-miterlimit="10" x1="348.204" y1="144.938" x2="362.868" y2="154.058"/>
<line fill="none" stroke="#231F20" stroke-miterlimit="10" x1="343.888" y1="156.479" x2="358.816" y2="166.923"/>
<line fill="none" stroke="#231F20" stroke-miterlimit="10" x1="340.951" y1="171.366" x2="355.915" y2="182.307"/>
<line fill="none" stroke="#231F20" stroke-miterlimit="10" x1="341.5" y1="187.719" x2="357.989" y2="196.731"/>
<line fill="none" stroke="#231F20" stroke-miterlimit="10" x1="345.023" y1="205.089" x2="361.834" y2="210.107"/>
<line fill="none" stroke="#231F20" stroke-miterlimit="10" x1="355.915" y1="227.675" x2="371.383" y2="227.373"/>
<line fill="none" stroke="#231F20" stroke-miterlimit="10" x1="371.383" y1="242.595" x2="382.125" y2="238.961"/>
<path fill="none" stroke="#231F20" stroke-miterlimit="10" d="M554.564,275.281c0,0,55.694-20.266,40.064-42.163
	c0,0-19.616-8.431-18.649,11.518c0,0,2.606,10.745,11.398,12.698"/>
<path fill="none" stroke="#231F20" stroke-miterlimit="10" d="M570.055,291.961c0,0,34.399-16.136,42.25-47.396
	c0,0,4.726-29.697-31.223-25.529c0,0-23.966,4.154-16.932,30.732c0,0,3.228,10.348,14.168,13.995"/>
<path fill="none" stroke="#231F20" stroke-miterlimit="10" d="M598.773,269.706c0,0,12.787,5.077,11.485,10.548
	c0,0,1.49,2.866,2.048,0c0,0,6.066-10.248-6.594-20.071"/>
<path fill="none" stroke="#231F20" stroke-miterlimit="10" d="M343.888,88.659c-1.576,0-15.452-18.436-15.452-18.436
	c-120.575,25.718-123.25,106.474-123.25,106.474l16.411,11.021"/>
<path fill="none" stroke="#231F20" stroke-miterlimit="10" d="M234.102,149.498c0,0-18.17,22.402-12.504,38.221
	c0,0,8.401,8.004,42.982-8.016c0,0,59.471-32.749,74.476-60.919c0,0,10.316-11.759,6.929-27.129c0,0,0.26-7.033-22.533-2.084
	c0,0-28.134,4.762-60.696,29.213C262.757,118.783,238.27,138.309,234.102,149.498z"/>
<line fill="none" stroke="#231F20" stroke-miterlimit="10" x1="304.037" y1="76.631" x2="313.814" y2="90.613"/>
<line fill="none" stroke="#231F20" stroke-miterlimit="10" x1="319.95" y1="72.17" x2="328.709" y2="88.569"/>
<line fill="none" stroke="#231F20" stroke-miterlimit="10" x1="270.359" y1="90.613" x2="280.684" y2="106.871"/>
<line fill="none" stroke="#231F20" stroke-miterlimit="10" x1="253.047" y1="101.297" x2="265.457" y2="116.794"/>
<line fill="none" stroke="#231F20" stroke-miterlimit="10" x1="241.494" y1="110.487" x2="253.047" y2="127.118"/>
<line fill="none" stroke="#231F20" stroke-miterlimit="10" x1="231.077" y1="120.888" x2="242.73" y2="137.27"/>
<line fill="none" stroke="#231F20" stroke-miterlimit="10" x1="222.337" y1="132.026" x2="235.412" y2="146.768"/>
<line fill="none" stroke="#231F20" stroke-miterlimit="10" x1="215.508" y1="143.318" x2="229.232" y2="156.479"/>
<line fill="none" stroke="#231F20" stroke-miterlimit="10" x1="211.458" y1="151.991" x2="224.204" y2="165.896"/>
<line fill="none" stroke="#231F20" stroke-miterlimit="10" x1="208.042" y1="161.701" x2="220.503" y2="176.836"/>
<path fill="none" stroke="#231F20" stroke-miterlimit="10" d="M191.511,408.287c0,0-1.172-26.18,8.987-30.478
	s11.918,10.941,11.136,16.216c0,0-4.591,23.112-15.727,18.423C195.907,412.448,192.195,411.511,191.511,408.287z"/>
<path fill="none" stroke="#231F20" stroke-miterlimit="10" d="M163.084,400.472c0,0-2.442-14.653,9.02-26.408
	c0,0,4.429-4.461,9.247,0c0,0,4.689,4.526,1.172,14.295c0,0-5.34,14.848-13.546,15.76
	C168.978,404.119,163.287,404.903,163.084,400.472z"/>
</svg>
