<?xml version="1.0" encoding="UTF-8" standalone="no"?>
<!-- Created with Inkscape (http://www.inkscape.org/) -->

<svg
   xmlns:dc="http://purl.org/dc/elements/1.1/"
   xmlns:cc="http://creativecommons.org/ns#"
   xmlns:rdf="http://www.w3.org/1999/02/22-rdf-syntax-ns#"
   xmlns:svg="http://www.w3.org/2000/svg"
   xmlns="http://www.w3.org/2000/svg"
   xmlns:sodipodi="http://sodipodi.sourceforge.net/DTD/sodipodi-0.dtd"
   xmlns:inkscape="http://www.inkscape.org/namespaces/inkscape"
   id="svg4212"
   version="1.1"
   inkscape:version="0.91 r"
   width="400"
   height="400"
   viewBox="0 0 400 400"
   sodipodi:docname="bank.svg">
  <metadata
     id="metadata4218">
    <rdf:RDF>
      <cc:Work
         rdf:about="">
        <dc:format>image/svg+xml</dc:format>
        <dc:type
           rdf:resource="http://purl.org/dc/dcmitype/StillImage" />
        <dc:title></dc:title>
      </cc:Work>
    </rdf:RDF>
  </metadata>
  <defs
     id="defs4216" />
  <sodipodi:namedview
     pagecolor="#ffffff"
     bordercolor="#666666"
     borderopacity="1"
     objecttolerance="10"
     gridtolerance="10"
     guidetolerance="10"
     inkscape:pageopacity="0"
     inkscape:pageshadow="2"
     inkscape:window-width="1366"
     inkscape:window-height="717"
     id="namedview4214"
     showgrid="false"
     fit-margin-top="0"
     fit-margin-left="0"
     fit-margin-right="0"
     fit-margin-bottom="0"
     inkscape:zoom="0.69375"
     inkscape:cx="139.49469"
     inkscape:cy="262.97266"
     inkscape:window-x="0"
     inkscape:window-y="-3"
     inkscape:window-maximized="1"
     inkscape:current-layer="svg4212" />
  <g
     id="g4222">
    <path
       style="fill:#0f0f0f"
       d="m 0,364 0,-8 3.5,0 c 3.3333333,0 3.5,-0.16667 3.5,-3.5 l 0,-3.5 6.5,0 c 6.266667,0 6.5,-0.0897 6.5,-2.5 0,-3.20927 3.290727,-6.5 6.5,-6.5 l 2.5,0 0,-92.5 0,-92.5 -2.845012,0 c -3.640411,0 -6.586755,-3.1462 -5.815244,-6.20971 C 20.894561,146.58724 20.680057,146.5 14.708266,146.5 9.982865,146.5 8.5,146.15741 8.5,145.0657 8.5,143.51417 197.46031,28.075748 200,28.075748 c 2.53969,0 191.5,115.438422 191.5,116.989952 0,1.09171 -1.48286,1.4343 -6.20827,1.4343 -5.97179,0 -6.18629,0.0872 -5.63147,2.29029 C 380.43177,151.8538 377.48542,155 373.84501,155 L 371,155 l 0,92.5 0,92.5 2.5,0 c 3.20927,0 6.5,3.29073 6.5,6.5 0,2.41026 0.23333,2.5 6.5,2.5 l 6.5,0 0,3.5 c 0,3.33333 0.16667,3.5 3.5,3.5 l 3.5,0 0,8 0,8 -200,0 -200,0 0,-8 z m 397,0 0,-5 -197,0 -197,0 0,5 0,5 197,0 197,0 0,-5 z m -7,-10.5 c 0,-1.32807 -21.77778,-1.5 -190,-1.5 -168.222222,0 -190,0.17193 -190,1.5 0,1.32807 21.777778,1.5 190,1.5 168.22222,0 190,-0.17193 190,-1.5 z m -326,-6 c 0.993186,-1.19672 0.993186,-1.80328 0,-3 -1.025593,-1.23576 -4.548741,-1.5 -20,-1.5 -15.451259,0 -18.974407,0.26424 -20,1.5 -0.993186,1.19672 -0.993186,1.80328 0,3 1.025593,1.23576 4.548741,1.5 20,1.5 15.451259,0 18.974407,-0.26424 20,-1.5 z m 34,-1 c 0,-3.20927 3.29073,-6.5 6.5,-6.5 l 2.5,0 0,-92.5 0,-92.5 -2.84501,0 c -3.63898,0 -6.586142,-3.14602 -5.817205,-6.20971 l 0.574827,-2.29029 -15.944347,0 c -14.895337,0 -15.906781,0.11836 -15.373378,1.79896 C 68.530568,151.24703 65.384195,155 61.976947,155 L 59,155 l 0,92.5 0,92.5 2.5,0 c 3.449027,0 6.816727,3.56282 6.23654,6.59787 L 67.277344,349 82.638672,349 98,349 l 0,-2.5 z m 44,1 c 0.99319,-1.19672 0.99319,-1.80328 0,-3 -1.02559,-1.23576 -4.54874,-1.5 -20,-1.5 -15.45126,0 -18.97441,0.26424 -20,1.5 -0.99319,1.19672 -0.99319,1.80328 0,3 1.02559,1.23576 4.54874,1.5 20,1.5 15.45126,0 18.97441,-0.26424 20,-1.5 z m 34.26346,-0.90213 C 175.68327,343.56282 179.05097,340 182.5,340 l 2.5,0 0,-92.5 0,-92.5 -2.97695,0 c -3.40725,0 -6.55362,-3.75297 -5.61794,-6.70104 C 176.93855,146.61826 175.92589,146.5 161,146.5 c -14.92589,0 -15.93855,0.11826 -15.40511,1.79896 C 146.53057,151.24703 143.3842,155 139.97695,155 L 137,155 l 0,92.5 0,92.5 2.5,0 c 3.44903,0 6.81673,3.56282 6.23654,6.59787 L 145.27734,349 161,349 l 15.72266,0 -0.4592,-2.40213 z M 220,347.5 c 0.99319,-1.19672 0.99319,-1.80328 0,-3 -1.02559,-1.23576 -4.54874,-1.5 -20,-1.5 -15.45126,0 -18.97441,0.26424 -20,1.5 -0.99319,1.19672 -0.99319,1.80328 0,3 1.02559,1.23576 4.54874,1.5 20,1.5 15.45126,0 18.97441,-0.26424 20,-1.5 z m 34.26346,-0.90213 C 253.68327,343.56282 257.05097,340 260.5,340 l 2.5,0 0,-92.5 0,-92.5 -2.97695,0 c -3.40725,0 -6.55362,-3.75297 -5.61794,-6.70104 C 254.93855,146.61826 253.92589,146.5 239,146.5 c -14.92589,0 -15.93855,0.11826 -15.40511,1.79896 C 224.53057,151.24703 221.3842,155 217.97695,155 L 215,155 l 0,92.5 0,92.5 2.5,0 c 3.44903,0 6.81673,3.56282 6.23654,6.59787 L 223.27734,349 239,349 l 15.72266,0 -0.4592,-2.40213 z M 298,347.5 c 0.99319,-1.19672 0.99319,-1.80328 0,-3 -1.02559,-1.23576 -4.54874,-1.5 -20,-1.5 -15.45126,0 -18.97441,0.26424 -20,1.5 -0.99319,1.19672 -0.99319,1.80328 0,3 1.02559,1.23576 4.54874,1.5 20,1.5 15.45126,0 18.97441,-0.26424 20,-1.5 z m 34.26346,-0.90213 C 331.68327,343.56282 335.05097,340 338.5,340 l 2.5,0 0,-92.5 0,-92.5 -2.97695,0 c -3.40725,0 -6.55362,-3.75297 -5.61794,-6.70104 0.53341,-1.6806 -0.47804,-1.79896 -15.37338,-1.79896 l -15.94434,0 0.57483,2.29029 C 302.43115,151.85398 299.48399,155 295.84501,155 L 293,155 l 0,92.5 0,92.5 2.5,0 c 1.375,0 3.4,0.9 4.5,2 1.1,1.1 2,3.125 2,4.5 l 0,2.5 15.36133,0 15.36133,0 -0.4592,-2.40213 z M 376,347.5 c 0.99319,-1.19672 0.99319,-1.80328 0,-3 -1.02559,-1.23576 -4.54874,-1.5 -20,-1.5 -15.45126,0 -18.97441,0.26424 -20,1.5 -0.99319,1.19672 -0.99319,1.80328 0,3 1.02559,1.23576 4.54874,1.5 20,1.5 15.45126,0 18.97441,-0.26424 20,-1.5 z m -320,-100 0,-92.5 -12,0 -12,0 0,92.5 0,92.5 12,0 12,0 0,-92.5 z m 78,0 0,-92.5 -12,0 -12,0 0,92.5 0,92.5 12,0 12,0 0,-92.5 z m 78,0 0,-92.5 -12,0 -12,0 0,92.5 0,92.5 12,0 12,0 0,-92.5 z m 78,0 0,-92.5 -12,0 -12,0 0,92.5 0,92.5 12,0 12,0 0,-92.5 z m 78,0 0,-92.5 -12,0 -12,0 0,92.5 0,92.5 12,0 12,0 0,-92.5 z M 64.444227,151.09024 c 0.309244,-0.50036 0.287657,-1.62536 -0.04797,-2.5 C 63.866818,147.21055 61.159989,147 43.952028,147 24.084134,147 22.146765,147.33412 23.380002,150.54789 23.841412,151.7503 27.371601,152 43.909598,152 c 10.984803,0 20.225386,-0.40939 20.534629,-0.90976 z m 78.000003,0 c 0.30924,-0.50036 0.28765,-1.62536 -0.048,-2.5 C 141.86682,147.21055 139.15999,147 121.95203,147 c -19.8679,0 -21.80527,0.33412 -20.57203,3.54789 0.46141,1.20241 3.9916,1.45211 20.5296,1.45211 10.9848,0 20.22538,-0.40939 20.53463,-0.90976 z m 78,0 c 0.30924,-0.50036 0.28765,-1.62536 -0.048,-2.5 C 219.86689,147.21073 217.16411,147 200,147 c -17.16411,0 -19.86689,0.21073 -20.39626,1.59024 -0.33562,0.87464 -0.35721,1.99964 -0.048,2.5 0.73454,1.18851 40.15392,1.18851 40.88846,0 z M 298.5,149.5 c 0,-1.92483 -0.75678,-2.01016 -20.13521,-2.27034 -17.74868,-0.2383 -20.20846,-0.0795 -20.75324,1.34024 -0.33992,0.88582 -0.35933,2.02919 -0.0431,2.54082 0.33291,0.53867 9.06866,0.81638 20.75324,0.65976 C 297.74317,151.51014 298.5,151.42499 298.5,149.5 Z m 78,0 c 0,-1.92483 -0.75678,-2.01016 -20.13521,-2.27034 -17.74868,-0.2383 -20.20846,-0.0795 -20.75324,1.34024 -0.33992,0.88582 -0.35933,2.02919 -0.0431,2.54082 0.33291,0.53867 9.06866,0.81638 20.75324,0.65976 C 375.74317,151.51014 376.5,151.42499 376.5,149.5 Z m 7.7,-6.638 c -0.385,-0.3509 -41.9875,-25.69767 -92.45,-56.326142 L 200,30.84772 108.25,86.535858 C 57.7875,117.16433 16.185,142.5111 15.8,142.862 c -0.385,0.3509 82.505,0.638 184.2,0.638 101.695,0 184.585,-0.2871 184.2,-0.638 z M 191.67233,130.62666 c -9.87149,-2.7746 -18.35649,-11.29252 -21.28555,-21.36812 -4.41368,-15.182539 3.97923,-31.479518 19.1638,-37.211412 14.72063,-5.556765 31.94871,1.78066 38.63089,16.452872 3.10256,6.812355 3.17574,18.03764 0.16052,24.6224 -6.39142,13.95783 -22.28864,21.54637 -36.66966,17.50426 z m 16.10204,-3.1523 c 6.97489,-2.07132 12.90079,-6.87466 16.62335,-13.47436 2.71576,-4.81474 3.09914,-6.43445 3.07709,-13 -0.0206,-6.135593 -0.50394,-8.409605 -2.65676,-12.5 C 219.50206,78.399541 211.4474,73.546356 200,73.546356 c -11.4474,0 -19.50206,4.853185 -24.81805,14.953644 -2.15282,4.090395 -2.63614,6.364407 -2.65676,12.5 -0.0221,6.57361 0.35839,8.17628 3.08029,12.97512 3.78045,6.66513 8.58201,10.70678 15.59948,13.13065 6.52479,2.2537 9.96394,2.33021 16.56941,0.36859 z M 198.5,122 c -0.34913,-1.1 -1.20101,-2 -1.89307,-2 -1.91791,0 -5.52046,-4.27945 -5.83094,-6.92656 -0.41528,-3.54053 1.52314,-3.45126 3.22401,0.14847 2.67998,5.67195 3.81695,4.55465 4.17205,-4.09989 0.32296,-7.8711 0.28461,-8.01823 -2.52116,-9.672431 -4.07198,-2.400722 -6.07325,-7.639798 -4.6109,-12.070764 0.62617,-1.897316 2.33583,-4.215039 3.79925,-5.150494 1.46342,-0.935455 3.22326,-2.382016 3.91076,-3.214579 1.11343,-1.348361 1.38657,-1.340396 2.5,0.07291 0.6875,0.872662 2.3006,2.146383 3.58466,2.830492 2.4791,1.320789 5.63025,7.521589 4.63814,9.126869 C 208.59483,92.464604 207,92.200717 207,90.634859 c 0,-1.493997 -3.73433,-6.633447 -4.82258,-6.637187 -0.37258,-0.0013 -0.52706,3.439643 -0.34329,7.646495 0.3155,7.222395 0.52456,7.828427 3.75,10.870403 2.94179,2.77447 3.41587,3.87074 3.41587,7.89896 0,3.63277 -0.54818,5.22556 -2.45455,7.13192 -1.35,1.35 -2.89467,2.45455 -3.43261,2.45455 -0.53793,0 -1.26371,0.9 -1.61284,2 -0.34913,1.1 -1.02413,2 -1.5,2 -0.47587,0 -1.15087,-0.9 -1.5,-2 z m 5.92857,-6.57143 c 2.72339,-2.72339 1.63651,-10.41773 -1.65079,-11.68641 -0.97966,-0.37808 -1.20031,1.11098 -0.94572,6.38235 0.18263,3.78152 0.48799,6.87549 0.67857,6.87549 0.19058,0 1.05366,-0.70714 1.91794,-1.57143 z M 198.16493,84 C 197.63394,83.207645 193,88.968436 193,90.420905 c 0,0.720158 1.0125,2.601931 2.25,4.181718 l 2.25,2.872339 0.5,-6.487481 C 198.275,87.419367 198.34922,84.275 198.16493,84 Z M 63.475114,127.95973 c -0.385467,-0.6237 -0.312559,-1.48529 0.162018,-1.91465 2.581599,-2.33562 135.030688,-81.473651 136.358088,-81.473651 2.48231,0 137.11776,81.604741 136.66168,82.832871 -0.2238,0.60264 -0.92408,0.97956 -1.5562,0.8376 -0.63211,-0.14195 -31.2869,-18.44478 -68.12175,-40.672948 L 200.00648,47.154101 135.25324,86.238375 C 99.638959,107.73473 69.077092,126.17114 67.337981,127.20819 c -2.233788,1.33203 -3.367757,1.55265 -3.862867,0.75154 z"
       id="path4224"
       inkscape:connector-curvature="0" />
  </g>
</svg>
