<?xml version="1.0" encoding="UTF-8" standalone="no"?>
<!-- Created with Inkscape (http://www.inkscape.org/) -->

<svg
   xmlns:dc="http://purl.org/dc/elements/1.1/"
   xmlns:cc="http://creativecommons.org/ns#"
   xmlns:rdf="http://www.w3.org/1999/02/22-rdf-syntax-ns#"
   xmlns:svg="http://www.w3.org/2000/svg"
   xmlns="http://www.w3.org/2000/svg"
   xmlns:sodipodi="http://sodipodi.sourceforge.net/DTD/sodipodi-0.dtd"
   xmlns:inkscape="http://www.inkscape.org/namespaces/inkscape"
   id="svg4306"
   version="1.1"
   inkscape:version="0.91 r"
   width="400"
   height="400"
   viewBox="0 0 400 400"
   sodipodi:docname="contract.svg">
  <metadata
     id="metadata4312">
    <rdf:RDF>
      <cc:Work
         rdf:about="">
        <dc:format>image/svg+xml</dc:format>
        <dc:type
           rdf:resource="http://purl.org/dc/dcmitype/StillImage" />
        <dc:title></dc:title>
      </cc:Work>
    </rdf:RDF>
  </metadata>
  <defs
     id="defs4310" />
  <sodipodi:namedview
     pagecolor="#ffffff"
     bordercolor="#666666"
     borderopacity="1"
     objecttolerance="10"
     gridtolerance="10"
     guidetolerance="10"
     inkscape:pageopacity="0"
     inkscape:pageshadow="2"
     inkscape:window-width="1366"
     inkscape:window-height="717"
     id="namedview4308"
     showgrid="false"
     fit-margin-top="0"
     fit-margin-left="0"
     fit-margin-right="0"
     fit-margin-bottom="0"
     inkscape:zoom="0.69375"
     inkscape:cx="48.074542"
     inkscape:cy="182.68307"
     inkscape:window-x="0"
     inkscape:window-y="-3"
     inkscape:window-maximized="1"
     inkscape:current-layer="svg4306" />
  <g
     id="g4316">
    <path
       style="fill:#0f0f0f"
       d="M 153.58846,379.94227 C 134.77748,364.80962 121.27057,344.90034 113.49262,320.84071 109.48924,308.45702 107.47529,299.6993 102.59683,273.46002 95.073053,232.99257 86.398178,213.13529 68.544174,195.51155 53.693323,180.85224 34.55586,170.15017 2.5886993,158.62789 1.1452621,158.10761 4.3887026,156.12149 15.838699,150.51422 24.177415,146.43061 31,142.88365 31,142.6321 c 0,-0.25156 -5.379778,-3.93497 -11.955063,-8.18537 l -11.955063,-7.728 13.705063,-6.2082 c 7.537785,-3.4145 15.335396,-7.0073 17.328026,-7.98399 l 3.622963,-1.77581 -5.391069,-4.88217 C 33.389769,103.18336 26.359435,97.318245 20.731894,92.834967 15.104352,88.35169 10.5,84.192254 10.5,83.591777 10.5,82.35975 24.874686,76.038981 58.384037,62.536434 l 22.884037,-9.221092 2.682932,-7.996256 c 4.041973,-12.04677 8.814345,-17.450252 13.79031,-15.613975 4.042524,1.491812 4.274934,5.481126 0.73043,12.538075 -1.390539,2.768502 -2.403039,5.142869 -2.25,5.276371 0.15304,0.133502 7.028254,-2.208445 15.278254,-5.204326 20.56372,-7.467451 55.88827,-18.29607 77.96155,-23.89884 l 18.35407,-4.658741 10.60145,5.064204 c 36.14702,17.267054 57.60721,41.618664 72.19749,81.924956 1.93834,5.35474 6.62075,20.08978 10.40537,32.74454 10.12905,33.86891 14.30606,45.44344 22.01676,61.00865 15.03731,30.35507 35.13321,51.77714 65.96175,70.31471 5.77586,3.47308 10.50156,6.78448 10.50156,7.35865 0,0.57418 -6.96185,3.64126 -15.47077,6.81574 l -15.47078,5.77178 3.40861,2.07289 3.40861,2.0729 -2.43784,0.93748 c -1.3408,0.51561 -8.893,3.52521 -16.78264,6.68801 l -14.34481,5.75054 4.59385,2.52628 c 2.52661,1.38945 4.48178,2.61875 4.34481,2.73177 -0.13697,0.11302 -41.19904,17.10846 -91.24904,37.76763 -50.05,20.65918 -92.66499,38.26291 -94.69997,39.1194 l -3.69998,1.55726 -7.51159,-6.04277 z m 99.16041,-35.17893 c 49.63687,-20.49484 90.24937,-37.5248 90.25,-37.84436 6.2e-4,-0.31956 -1.09102,-1.16552 -2.42587,-1.87991 -2.2272,-1.19197 -8.5457,1.14917 -76.75,28.43747 -40.87765,16.35501 -76.44632,30.57631 -79.04148,31.6029 l -4.71849,1.86653 -7.78151,-6.15836 C 154.15054,346.43859 139.77194,328.78476 130.50908,309.5 c -5.90929,-12.30281 -8.85892,-20.94636 -17.06259,-50 -8.19182,-29.01166 -14.260394,-43.64447 -24.88343,-60 C 81.726485,188.97421 69.656563,174.67567 60.70004,166.49229 L 53.5,159.91376 l -0.675877,4.29312 c -0.371732,2.36122 -0.708428,6.54312 -0.748212,9.29312 -0.07083,4.89635 0.02515,5.06159 4.629875,7.97088 6.490273,4.10059 21.16022,18.78209 26.008645,26.02912 10.971142,16.39877 16.493832,32.21543 22.803889,65.30898 10.01678,52.53378 15.97844,67.88419 35.17493,90.57045 4.8099,5.68431 19.24295,18.60903 20.80675,18.63234 0.55,0.008 41.61199,-16.75359 91.24887,-37.24843 z m 21.6931,-18.88524 c 51.18192,-20.41704 93.20907,-37.25558 93.39368,-37.41897 0.1846,-0.1634 -0.4904,-0.72947 -1.5,-1.25794 -1.41828,-0.74238 -20.70038,6.06025 -84.80558,29.91898 C 235.8966,334.10408 198.14114,348 197.62904,348 195.76248,348 178.25406,332.95526 168.90253,323.3157 146.08996,299.80053 135.74697,281.1616 118.50767,232.5 101.69113,185.03171 88.68197,161.29585 64.31023,133.61407 l -4.189769,-4.7588 -1.514381,5.09948 c -0.83291,2.80471 -2.243747,8.79977 -3.135194,13.32236 L 53.850073,155.5 67.186998,169 c 26.773204,27.10057 38.275252,48.7993 51.312682,96.80192 10.21208,37.59991 19.76566,56.76562 37.81523,75.86222 8.28924,8.77009 22.40009,21.22576 24.12706,21.297 0.51808,0.0214 42.81808,-16.66599 94,-37.08304 z M 296,308.48146 c 53.075,-19.68968 96.84776,-36.09815 97.27281,-36.46325 0.42505,-0.36511 -3.2904,-3.06897 -8.25654,-6.00858 -18.86399,-11.16617 -37.81459,-28.45386 -50.49225,-46.06158 -13.8884,-19.2893 -22.16374,-38.30533 -34.50027,-79.27873 C 287.8757,100.32197 283.59116,88.753235 275.60847,74.74544 262.16265,51.151087 244.63639,35.038413 218.71017,22.436302 L 207.5,16.987309 190,21.426787 C 163.45778,28.160136 133.76102,37.4145 104.66886,48.018423 l -11.831137,4.312381 -5.043966,7.474834 c -4.289747,6.357131 -4.806978,7.607459 -3.459074,8.361784 0.87169,0.487822 1.877305,2.445651 2.2347,4.350731 0.559583,2.982834 1.188598,3.608862 4.530156,4.50865 4.431428,1.19326 5.929798,4.418632 4.010059,8.632001 -0.987396,2.167098 -0.79919,2.921384 1.373084,5.502984 3.295166,3.916083 3.178178,6.289742 -0.441907,8.966192 -2.66904,1.9733 -2.903704,2.59292 -2.393028,6.31871 0.655583,4.783 -0.437102,6.13815 -5.688635,7.05506 -1.902512,0.33218 -3.578636,0.91768 -3.72472,1.30111 -2.488569,6.53175 -5.204793,8.23655 -9.283938,5.82694 -3.048404,-1.80073 -3.171581,-1.79249 -7.773969,0.52024 -2.572067,1.29248 -4.970523,2.75619 -5.329903,3.2527 -0.35938,0.49651 2.223063,4.20097 5.738761,8.23213 8.856813,10.15537 19.047791,24.10433 25.837425,35.36513 10.404722,17.25653 16.913642,32.30315 31.146012,72 13.71447,38.25235 24.269,57.17471 43.78522,78.499 8.40777,9.18671 28.55569,26.63905 30.146,26.11279 0.55,-0.182 44.425,-16.44065 97.5,-36.13033 z m -12.84539,-9.08572 C 281.30673,298.10143 281,296.91604 281,291.06902 c 0,-3.74966 0.6798,-8.74434 1.51068,-11.09928 0.83087,-2.35495 1.35107,-4.44133 1.15599,-4.63641 -0.19508,-0.19508 -2.2728,0.32206 -4.61716,1.1492 -4.04286,1.42641 -6.04951,1.31206 -6.04951,-0.34471 0,-0.40929 3.07213,-1.7336 6.82697,-2.94293 6.17181,-1.98776 7.31631,-2.8019 11.92623,-8.48372 4.6316,-5.70856 5.15724,-6.87771 5.73138,-12.74807 0.34767,-3.5547 0.85341,-7.53127 1.12387,-8.83681 0.48305,-2.3317 0.42389,-2.31996 -3.34305,0.66351 -5.50821,4.36258 -11.03437,6.84123 -12.34051,5.53509 -0.74012,-0.74012 0.20151,-1.71007 3.15427,-3.24913 6.22952,-3.24701 10.84919,-7.03653 12.52237,-10.27211 2.61739,-5.06145 3.69271,-2.31003 2.96195,7.57869 -0.37058,5.01471 -0.92986,10.01766 -1.24284,11.11766 -0.55429,1.94807 -0.50741,1.94527 1.80515,-0.10761 3.9835,-3.5362 10.15979,-7.33393 11.04126,-6.78915 0.45812,0.28314 0.8527,3.07574 0.87684,6.20578 l 0.0439,5.69098 1.37086,-3.84481 c 1.91614,-5.37412 5.38101,-8.81549 8.50839,-8.45067 4.36488,0.50918 3.89086,4.3107 -1.11361,8.93079 -2.40146,2.21702 -3.43219,3.6628 -2.33,3.26825 2.83187,-1.01373 5.4633,-3.47722 7.10463,-6.6512 0.78281,-1.5138 2.08674,-2.75236 2.89762,-2.75236 1.83536,0 1.83549,0.40089 10e-4,3.94777 l -1.47299,2.84845 3.47214,-1.06563 c 3.49385,-1.07229 5.64149,-0.434 3.90717,1.16123 -0.51333,0.47217 -9.26331,3.61623 -19.44439,6.98679 l -18.51107,6.1283 -1.76542,9.59743 c -1.75729,9.5532 -3.48939,14.22837 -6.57185,17.73828 -2.75017,3.13154 -4.64942,3.68971 -6.98599,2.05312 z m 6.5409,-6.90422 c 2.06013,-3.65531 3.09509,-7.41784 4.87631,-17.72737 l 0.64545,-3.73585 -3.14462,1.09622 c -4.60119,1.60398 -7.29144,7.49009 -7.87255,17.22465 -0.43224,7.24081 -0.32461,7.82146 1.38862,7.49152 1.02144,-0.19671 2.8695,-2.15384 4.10679,-4.34917 z m 5.17637,-24.39118 c 0.75454,-0.47797 1.19303,-1.4056 0.97443,-2.06141 -0.25678,-0.77034 -1.06268,-0.45733 -2.27687,0.88434 -1.90957,2.11005 -1.19288,2.75776 1.30244,1.17707 z m 15.25391,-7.18743 c 0.37117,-1.3271 0.71971,-3.89124 0.77453,-5.69809 0.0904,-2.97954 -0.0853,-3.18618 -1.88861,-2.22109 C 304.64422,255.33114 299,261.69632 299,264.28427 l 0,2.59394 5.22547,-1.7762 c 3.88683,-1.32117 5.39836,-2.39432 5.90032,-4.1891 z m 13.4368,-10.68366 c -0.71756,-0.71756 -2.48611,0.75575 -3.69293,3.07644 -1.08792,2.09205 -1.01845,2.08151 1.49068,-0.2263 1.44748,-1.33134 2.43849,-2.6139 2.20225,-2.85014 z m -155.01988,7.83985 c -0.31644,-0.512 -0.10571,-1.22115 0.46828,-1.57589 C 170.64067,255.48601 216.25142,241 217.79301,241 c 0.75551,0 1.18713,0.55958 0.95915,1.24351 -0.32983,0.9895 -46.32744,16.7329 -48.94314,16.75156 -0.38004,0.003 -0.94988,-0.41398 -1.26631,-0.92597 z M 163,247.65897 c 0,-0.88759 11.07374,-4.77093 32.75,-11.48477 18.0125,-5.57905 49.29589,-15.26904 69.51864,-21.53331 32.34767,-10.02012 40.83213,-12.01075 37.09423,-8.70307 -0.84431,0.74713 -137.13448,43.10037 -138.61287,43.07503 -0.4125,-0.007 -0.75,-0.61631 -0.75,-1.35388 z m -8,-11.59995 c 0,-0.51754 0.38339,-1.17793 0.85197,-1.46753 C 157.07387,233.83631 297.79634,190 298.99868,190 c 0.55073,0 1.00132,0.58085 1.00132,1.29077 0,0.8345 -25.18775,9.14157 -71.25405,23.5 C 189.55622,227.00585 156.93122,237 156.24595,237 155.56068,237 155,236.57656 155,236.05902 Z m 27.50263,-21.05477 c -0.33847,-0.54766 0.42247,-1.44416 1.69098,-1.99223 C 188.04147,211.34954 291.63847,181 293.46544,181 c 6.87134,0 -6.19999,4.51921 -54.0352,18.68183 -30.21163,8.9448 -55.24118,16.27561 -55.62122,16.29072 -0.38004,0.0151 -0.96792,-0.42064 -1.30639,-0.9683 z m -40.95992,-2.93515 c -0.31644,-0.512 -0.23049,-1.12397 0.19098,-1.35994 C 142.76261,210.1331 195.66109,193 196.41076,193 c 0.32408,0 0.58924,0.64794 0.58924,1.43988 0,1.00065 -8.0534,4.05108 -26.40086,10 C 156.07867,209.14794 143.73023,213 143.15816,213 c -0.57207,0 -1.29902,-0.41891 -1.61545,-0.9309 z m -5.08383,-10.13563 c -0.36253,-0.58659 -0.46245,-1.26323 -0.22204,-1.50364 0.81681,-0.81681 147.25268,-46.40684 149.09649,-46.41837 6.85747,-0.0429 -7.56254,4.99129 -73.38304,25.61872 -40.94766,12.83254 -74.53623,23.34043 -74.64127,23.35086 -0.10504,0.0104 -0.4876,-0.46098 -0.85014,-1.04757 z m -3.95786,-12.93183 c -0.38571,-0.62409 -0.46731,-1.36868 -0.18133,-1.65466 1.263,-1.263 149.32863,-47.28899 150.59753,-46.81302 0.86481,0.3244 1.05786,0.89096 0.49527,1.45355 -0.50706,0.50706 -33.82442,11.28422 -74.03857,23.94923 -40.21415,12.66502 -73.804,23.29107 -74.64412,23.61345 -0.84013,0.32239 -1.84308,0.0755 -2.22878,-0.54855 z M 161.24207,166.75 c 0.55325,-1.69193 116.98229,-36.8388 118.19126,-35.67883 0.51334,0.49252 0.6685,1.16033 0.34481,1.48402 C 278.98824,133.34509 164.09826,168 162.26944,168 c -0.78986,0 -1.25217,-0.5625 -1.02737,-1.25 z m -0.004,-32.96346 c 0.54888,-1.64665 58.9427,-19.00602 60.08623,-17.86249 0.52089,0.52089 0.11955,1.29819 -0.96669,1.87224 C 217.68158,119.21037 164.64636,135 162.57241,135 c -0.95649,0 -1.55706,-0.54606 -1.33459,-1.21346 z M 171.4136,65.859796 c -0.33749,-0.546072 -0.3725,-1.233975 -0.0778,-1.528673 C 172.29067,63.375995 227.92044,47 230.20991,47 c 1.93224,0 2.02963,0.180694 0.75438,1.399675 -1.17595,1.124062 -20.05486,7.053255 -56.20081,17.650676 -1.63595,0.479635 -2.98329,0.402998 -3.35013,-0.190555 z m -16.18057,-10.05813 c 0.52501,-1.575046 59.00587,-18.963015 60.09962,-17.869271 0.46302,0.463028 0.24016,1.22222 -0.49527,1.687093 -1.90992,1.207291 -55.96732,17.34308 -58.17046,17.363511 -1.00834,0.0093 -1.65359,-0.522249 -1.43389,-1.181333 z M 45.87391,153.75777 c -2.40565,-2.08517 -6.012997,-4.93635 -8.016325,-6.33594 l -3.642415,-2.54472 -12.690452,6.3603 -12.690453,6.36031 10.832867,4.23032 C 25.62521,164.15472 34.55,168.23499 39.5,170.8953 l 9,4.83694 0.87391,-9.09162 0.87391,-9.09162 -4.37391,-3.79123 z m 7.229608,-9.81224 c 0.977186,-4.64504 2.421465,-10.53935 3.209509,-13.09846 l 1.432808,-4.65293 -6.662791,-6.61173 -6.662791,-6.61174 -14.779952,6.86432 c -8.128973,3.77538 -14.63603,7.2457 -14.460126,7.71182 0.175904,0.46613 5.494825,4.3313 11.819825,8.58926 6.325,4.25797 13.975,9.76151 17,12.23011 3.025,2.46859 5.911034,4.38407 6.413409,4.25661 0.502375,-0.12745 1.712924,-4.03222 2.690109,-8.67726 z m 5.903573,-25.93228 C 58.276126,116.64743 56.913111,116 54.768649,116 l -3.160983,0 3.401261,3.50921 c 2.768784,2.85666 3.556937,3.23103 4.238442,2.01325 0.481579,-0.86053 0.379518,-2.35111 -0.240278,-3.50921 z m 9.096472,-1.81206 C 66.217894,115.57263 64,116.81059 64,118.49167 c 0,1.36215 0.326151,1.34073 2.636552,-0.1731 1.450104,-0.95014 2.110259,-1.90297 1.467011,-2.11738 z m 11.942274,0.71316 c 1.486235,-2.77705 0.899579,-3.13988 -2.922512,-1.8075 -2.960233,1.03195 -3.066446,1.21793 -1.412158,2.47271 2.437673,1.84898 3.038461,1.75678 4.33467,-0.66521 z M 54.348492,109.70962 51.5,106.41924 l -0.707462,2.4547 C 49.847086,112.1544 50.536711,113 54.157509,113 l 3.039475,0 -2.848492,-3.29038 z m 25.898211,0.32351 C 86.267716,105.90746 88.5,101.57102 88.5,94.00024 88.5,88.423147 88.057422,86.68516 85.748885,83.196726 82.254051,77.915675 76.651981,75 70,75 58.860981,75 51,82.856917 51,93.990178 c 0,8.266592 4.332528,14.685532 12.145159,17.993892 4.066346,1.72195 13.274342,0.6715 17.101544,-1.95094 z M 45.95757,104.87764 C 41.34111,101.35188 41,100.91877 41,98.583018 41,97.297047 41.675,95.684689 42.5,95 c 1.696036,-1.407585 2.015702,-5.563244 0.5,-6.5 -0.55,-0.339919 -1,-1.937935 -1,-3.551147 0,-2.409864 0.668977,-3.247043 3.75,-4.692868 2.925646,-1.372911 3.823348,-2.418823 4.083664,-4.75787 0.535921,-4.81549 2.900564,-6.718813 7.402372,-5.958237 3.315306,0.560117 4.096699,0.306836 5.822656,-1.887363 3.104687,-3.94697 5.676829,-4.280084 8.936288,-1.157325 4.215058,4.038282 6.134939,3.069607 7.5035,-3.785883 0.811314,-4.064096 0.834797,-5.666875 0.07876,-5.375427 -19.856745,7.654622 -62.782023,25.470906 -63.785513,26.474396 -0.403083,0.403083 3.641381,4.215138 8.987699,8.471233 C 30.12574,96.535604 37.2,102.45354 40.5,105.43047 c 5.632811,5.08136 6.058601,5.2875 6.95757,3.36835 0.769402,-1.64254 0.474644,-2.41307 -1.5,-3.92118 z M 91,107.94552 c 0,-3.00396 -1.551293,-3.0437 -3.730922,-0.0956 l -2.048975,2.77139 2.889948,-0.42415 C 90.087664,109.9069 91,109.19608 91,107.94552 Z M 48.975249,101.4349 C 48.438862,100.0241 48,97.704351 48,96.279913 48,93.753367 47.951085,93.734292 46,95.5 c -2.658002,2.405459 -2.525776,3.494385 0.75,6.17647 3.447984,2.82309 3.392712,2.82909 2.225249,-0.24157 z M 96,95.619804 C 96,94.899398 95.1,93.495486 94,92.5 92.030233,90.717386 92,90.753367 92,94.880196 92,98.76049 92.147907,98.99121 94,98 c 1.1,-0.588702 2,-1.65979 2,-2.380196 z M 49.948102,84.096972 c 1.140818,-2.131638 1.065608,-2.238421 -1.112275,-1.579206 -3.737839,1.131393 -4.228544,2.119918 -2.783769,5.607913 1.339629,3.23415 1.341363,3.234796 2.00664,0.747235 0.366218,-1.369342 1.21645,-3.518516 1.889404,-4.775942 z m 42.717725,-2.52543 c -0.275845,-0.71884 -1.675924,-1.53148 -3.111288,-1.805867 -2.447468,-0.467863 -2.525813,-0.367268 -1.259898,1.61772 0.74242,1.164133 1.717115,2.736892 2.165989,3.495021 0.667741,1.127784 0.988015,1.071284 1.761434,-0.310738 0.519914,-0.929036 0.719607,-2.277297 0.443763,-2.996136 z M 57.279978,72.792538 C 53.864049,71.86613 53.298179,72.320167 52.8258,76.366431 l -0.395176,3.384968 3.728985,-3.1257 L 59.888593,73.5 57.279978,72.792538 Z M 82.858599,71.805439 C 81.76915,69.82948 81.535031,69.7501 81.220421,71.25 81.018533,72.2125 80.323848,73.015946 79.676676,73.035435 79.029504,73.054925 79.625,73.697621 81,74.46365 c 2.923886,1.62893 3.649855,0.590632 1.858599,-2.658211 z M 70.904347,69.398182 C 68.073443,66.384822 67.819509,66.400881 65.340918,69.75 l -2.035199,2.75 4.925801,-0.351818 4.925801,-0.351819 -2.252974,-2.398181 z M 85.92349,55.145833 C 84.516713,54.670642 84.274672,55.004449 83.489926,58.50205 L 82.817285,61.5 l 2.077348,-3 c 1.205835,-1.741406 1.637473,-3.148584 1.028857,-3.354167 z m 8.164145,-10.799004 c 5.077962,-8.875351 3.996767,-15.777997 -1.536241,-9.807783 -2.183196,2.355708 -4.735802,7.905787 -6.981104,15.178877 -0.646215,2.093248 -0.514074,2.158441 2.350742,1.159761 2.115133,-0.73734 3.984777,-2.717421 6.166603,-6.530855 z"
       id="path4318"
       inkscape:connector-curvature="0" />
  </g>
</svg>
