<?xml version="1.0" encoding="UTF-8" standalone="no"?>
<!-- Created with Inkscape (http://www.inkscape.org/) -->

<svg
   xmlns:dc="http://purl.org/dc/elements/1.1/"
   xmlns:cc="http://creativecommons.org/ns#"
   xmlns:rdf="http://www.w3.org/1999/02/22-rdf-syntax-ns#"
   xmlns:svg="http://www.w3.org/2000/svg"
   xmlns="http://www.w3.org/2000/svg"
   xmlns:sodipodi="http://sodipodi.sourceforge.net/DTD/sodipodi-0.dtd"
   xmlns:inkscape="http://www.inkscape.org/namespaces/inkscape"
   id="svg4485"
   version="1.1"
   inkscape:version="0.91 r"
   width="400"
   height="400"
   viewBox="0 0 400 400"
   sodipodi:docname="handshake.svg">
  <metadata
     id="metadata4491">
    <rdf:RDF>
      <cc:Work
         rdf:about="">
        <dc:format>image/svg+xml</dc:format>
        <dc:type
           rdf:resource="http://purl.org/dc/dcmitype/StillImage" />
        <dc:title></dc:title>
      </cc:Work>
    </rdf:RDF>
  </metadata>
  <defs
     id="defs4489" />
  <sodipodi:namedview
     pagecolor="#ffffff"
     bordercolor="#666666"
     borderopacity="1"
     objecttolerance="10"
     gridtolerance="10"
     guidetolerance="10"
     inkscape:pageopacity="0"
     inkscape:pageshadow="2"
     inkscape:window-width="1366"
     inkscape:window-height="717"
     id="namedview4487"
     showgrid="false"
     showguides="true"
     inkscape:guide-bbox="true"
     fit-margin-top="0"
     fit-margin-left="0"
     fit-margin-right="0"
     fit-margin-bottom="0"
     inkscape:zoom="0.69375"
     inkscape:cx="48.558559"
     inkscape:cy="172.52252"
     inkscape:window-x="0"
     inkscape:window-y="-3"
     inkscape:window-maximized="1"
     inkscape:current-layer="svg4485" />
  <g
     id="g4495">
    <path
       style="fill:#191919"
       d="m 194.5,324.12899 c -2.2,-1.0049 -5.9125,-3.90996 -8.25,-6.4557 -3.94292,-4.29417 -4.79857,-6.40865 -4.42023,-10.92329 0.18113,-2.16144 0.43894,-2.18147 -4.85734,0.37741 -5.98338,2.89085 -15.0414,2.94603 -20.51738,0.12499 -2.22472,-1.14611 -5.93722,-4.1367 -8.25,-6.64577 C 144.67709,296.77924 144,295.37824 144,291.90571 c 0,-3.83543 -0.16501,-4.08704 -2.25,-3.43079 -5.4306,1.70928 -13.85738,1.75579 -18.19196,0.1004 -4.93999,-1.8866 -13.12281,-9.99305 -14.12736,-13.9955 -1.1755,-4.68356 0.40045,-9.19453 4.50894,-12.9063 l 3.88306,-3.50812 -6.16134,-4.31814 C 90.636523,239.11212 44.163708,193.3985 9.139248,153 4.1324719,147.225 0.02791453,141.9375 0.01800937,141.25 c -0.03905499,-2.71074 2.69614933,-0.96529 7.06455853,4.50819 25.2568931,31.64609 86.8881081,92.53798 108.0541921,106.75796 6.15959,4.13819 6.86698,4.37851 9.83878,3.34253 3.8533,-1.34327 11.78357,-0.55173 15.92409,1.58942 6.82522,3.52946 12.10037,11.60538 12.10037,18.52491 0,1.74421 0.38793,2.08001 1.75,1.51484 8.91999,-3.70117 17.43597,-2.58841 24.14595,3.15508 5.14868,4.40708 7.10405,8.06991 7.10405,13.30741 0,2.22731 0.1125,4.04778 0.25,4.04547 0.1375,-0.002 2.46377,-1.1273 5.16948,-2.5 8.53893,-4.33208 18.77254,-3.17656 25.42784,2.87116 3.38301,3.07417 6.15268,8.99113 6.15268,13.14422 0,3.15229 0.42355,3.76783 3.46788,5.03984 4.48121,1.87237 12.84312,1.85663 16.49348,-0.0311 4.11034,-2.12554 7.03864,-6.28785 7.03864,-10.0048 0,-7.03167 -10.43189,-17.16652 -39.11476,-38.00101 -11.21188,-8.14402 -20.58024,-14.97385 -20.81857,-15.1774 -0.23834,-0.20356 0.0454,-0.84879 0.63041,-1.43385 1.06416,-1.06416 10.68147,5.44413 36.30292,24.56713 17.19301,12.83229 27.47802,16.52862 36.45327,13.10095 9.34276,-3.56803 12.79186,-11.30654 8.62925,-19.36084 -2.90927,-5.6292 -8.44169,-10.39274 -34.45797,-29.66911 -17.12199,-12.68627 -23.56942,-17.99618 -22.79355,-18.77205 0.77588,-0.77588 7.47612,3.51118 23.68729,15.15602 23.60586,16.9566 31.20538,21.28316 40.75048,23.20009 7.66019,1.53838 13.69367,-0.60014 17.37105,-6.15703 5.31529,-8.03194 3.89432,-15.68724 -4.24108,-22.8483 -5.82507,-5.12743 -27.89025,-20.03852 -43.82337,-29.61473 -11.16489,-6.71037 -13.186,-7.6048 -14.84431,-6.56917 -6.75608,4.21925 -35.41897,18.24172 -41.23106,20.17108 -14.09257,4.67813 -25.25583,2.74862 -31.94671,-5.52182 -8.17206,-10.10128 0.99828,-25.80346 21.5113,-36.83335 4.34904,-2.33848 7.91365,-4.54998 7.92137,-4.91444 0.008,-0.36445 -9.32346,-8.68062 -20.73596,-18.48037 C 141.9517,125.91632 123.74219,109.70036 111.60353,98.021557 101.51276,88.313059 89,74.377264 89,72.8474 c 0,-2.474528 3.28212,0.05852 10,7.717727 11.14537,12.707089 32.76372,32.628683 70.5,64.966683 12.1,10.36906 22.45249,19.45296 23.00554,20.18644 0.79503,1.05441 4.01516,-0.46441 15.38147,-7.25493 34.91676,-20.86014 66.64717,-45.01416 96.33214,-73.330563 C 311.21468,78.459741 317.40218,73 317.96915,73 c 3.07198,0 -0.47565,4.197587 -14.21915,16.824204 -39.16014,35.977736 -72.52211,60.138686 -112.51907,81.487016 -16.51588,8.81532 -20.16802,11.4054 -25.38315,18.00161 -5.36715,6.78848 -6.58173,11.33823 -4.30668,16.13254 2.1458,4.52194 7.49022,8.23502 13.13717,9.12718 10.04718,1.58735 29.67481,-6.37694 64.08912,-26.0054 7.29706,-4.16193 13.48456,-7.56715 13.75,-7.56715 0.26543,0 0.48261,0.62372 0.48261,1.38603 0,0.76232 -3.1631,3.2652 -7.02912,5.56196 l -7.02911,4.17592 11.77911,7.08858 c 13.46177,8.10118 30.13914,19.10876 38.4844,25.40087 l 5.70529,4.30164 9.0969,-5.97335 c 18.17141,-11.93198 57.28791,-42.47996 83.49253,-65.20339 7.25832,-6.29408 11.34015,-9.20444 12,-8.55603 1.18093,1.16044 -2.69332,4.82862 -23.99799,22.72156 -21.16277,17.77376 -50.78115,40.67504 -65.68755,50.79039 l -12.68554,8.60828 2.68554,3.52093 c 2.25115,2.95141 2.68554,4.53053 2.68554,9.76263 0,5.32637 -0.44197,6.87054 -3.01384,10.52987 -4.42443,6.2952 -8.61385,8.403 -16.48616,8.29462 -3.575,-0.0492 -8.1875,-0.81376 -10.25,-1.69897 -4.16994,-1.78972 -4.84711,-1.01371 -1.64359,1.88347 3.938,3.56144 6.15647,9.31738 5.64454,14.64511 -0.89204,9.28368 -11.31733,16.6168 -22.00929,15.48128 -2.88291,-0.30617 -6.089,-0.88985 -7.12464,-1.29706 -1.43417,-0.56391 -1.01705,0.54547 1.75,4.65429 4.84966,7.20133 4.99146,12.30455 0.48454,17.43766 -1.73165,1.97223 -4.4093,4.23789 -5.95034,5.03479 -3.60006,1.86166 -12.48813,1.85877 -17.77284,-0.006 -3.95332,-1.39481 -4.22903,-1.35651 -6.69625,0.93003 -5.68799,5.27145 -17.57629,7.01361 -24.93213,3.65367 z m 15.9212,-2.22884 c 2.15665,-0.59878 5.25026,-2.41776 6.87467,-4.04217 2.59482,-2.59482 2.89378,-3.48304 2.46193,-7.31439 -1.63623,-14.51658 -20.36787,-19.63278 -32.0078,-8.74234 -3.98765,3.73089 -3.80279,8.9301 0.49142,13.82093 5.73493,6.53173 13.42551,8.70854 22.17978,6.27797 z m -34.66953,-17.55602 c 5.24342,-1.86324 7.24945,-4.58147 7.24459,-9.81664 -0.005,-5.11759 -2.79458,-9.70388 -7.99718,-13.1468 C 164.67631,274.54941 147,280.8244 147,291.3202 c 0,3.53884 0.61816,4.64331 4.91901,8.78877 7.02647,6.77262 13.46972,7.91761 23.83266,4.23516 z m -31.87848,-20.39301 c 13.58609,-7.63581 0.55695,-28.1944 -16.17294,-25.51918 C 119.46401,259.74897 112,265.57393 112,270.68452 c 0,5.10697 5.46013,11.83386 12,14.78402 4.89679,2.20896 14.55513,1.47149 19.87319,-1.51742 z"
       id="path4497"
       inkscape:connector-curvature="0" />
  </g>
</svg>
