<?xml version="1.0" encoding="utf-8"?>
<!-- Generator: Adobe Illustrator 17.0.0, SVG Export Plug-In . SVG Version: 6.00 Build 0)  -->
<!DOCTYPE svg PUBLIC "-//W3C//DTD SVG 1.1//EN" "http://www.w3.org/Graphics/SVG/1.1/DTD/svg11.dtd">
<svg version="1.1" id="Layer_1" xmlns="http://www.w3.org/2000/svg" xmlns:xlink="http://www.w3.org/1999/xlink" x="0px" y="0px"
	 width="700px" height="700px" viewBox="0 0 700 700" enable-background="new 0 0 700 700" xml:space="preserve">
<path fill="none" stroke="#000000" stroke-linecap="round" stroke-linejoin="round" stroke-miterlimit="10" d="M106.301,379.45
	c0,0,10.639-22.439,19.151-36.947c8.511-14.508,22.826-28.823,35.206-32.305c12.378-3.482,20.892,0.774,30.755,13.734
	c9.867,12.961,13.347,27.662,3.097,39.655c-10.252,11.991-18.377,18.57-33.465,25.726c-15.09,7.159-25.147,14.703-25.147,14.703"/>
<path fill="none" stroke="#000000" stroke-linecap="round" stroke-linejoin="round" stroke-miterlimit="10" d="M125.258,342.309"/>
<path fill="none" stroke="#000000" stroke-linecap="round" stroke-linejoin="round" stroke-miterlimit="10" d="M152.146,339.988
	l12.769,21.085c0,0,13.541-6.577,15.28-11.413c1.741-4.836-5.416-19.344-12.378-20.892
	C160.851,327.221,152.146,339.988,152.146,339.988z"/>
<path fill="none" stroke="#000000" stroke-linecap="round" stroke-linejoin="round" stroke-miterlimit="10" d="M167.815,328.769"/>
<path fill="none" stroke="#000000" stroke-linecap="round" stroke-linejoin="round" stroke-miterlimit="10" d="M99.53,456.246
	c0,0,5.031-16.056,2.517-31.531c-2.517-15.475-8.9-42.172-5.031-63.062c3.869-20.892,18.57-66.544,28.049-75.055"/>
<path fill="none" stroke="#000000" stroke-linecap="round" stroke-linejoin="round" stroke-miterlimit="10" d="M144.602,446.187
	c-0.774,0.582-5.999,7.544-10.639,13.347c-4.643,5.803-10.639,12.574-10.639,12.574"/>
<path fill="none" stroke="#000000" stroke-linecap="round" stroke-linejoin="round" stroke-miterlimit="10" d="M9,545.809
	c0,0,77.957-90.917,78.539-91.884c0.58-0.967,9.285-1.934,23.213,11.413c13.926,13.347,14.508,18.377,14.508,18.377l-58.228,82.793"
	/>
<path fill="none" stroke="#000000" stroke-linecap="round" stroke-linejoin="round" stroke-miterlimit="10" d="M132.609,330.316
	c0,0-7.544-53.39-11.802-74.475c-4.254-21.085-13.152-62.094-15.667-74.475c-2.515-12.38-9.479-37.334-9.479-37.334
	s42.75-0.774,89.563-2.128c46.811-1.354,75.055-6.384,114.324-8.898c39.268-2.515,107.94-11.606,107.94-11.606
	s7.544,19.924,17.216,63.835s20.311,108.52,20.311,108.52"/>
<path fill="none" stroke="#000000" stroke-linecap="round" stroke-linejoin="round" stroke-miterlimit="10" d="M471.517,320.451
	c-0.774,0-5.418,0.58-5.418,0.58"/>
<path fill="none" stroke="#000000" stroke-linecap="round" stroke-linejoin="round" stroke-miterlimit="10" d="M467.455,324.319
	c0,0-8.318-14.702-17.603-24.954s-22.441-18.377-31.724-19.344c-9.283-0.967-23.793,4.836-28.049,18.957s-1.934,29.596,9.672,38.301
	s22.246,13.541,34.048,17.41c11.8,3.869,22.05,10.639,24.76,13.345"/>
<path fill="none" stroke="#000000" stroke-linecap="round" stroke-linejoin="round" stroke-miterlimit="10" d="M457.396,380.417
	c0,0,8.705,2.902,21.474,8.705c12.767,5.803,33.657,22.439,34.819,23.406"/>
<path fill="none" stroke="#000000" stroke-linecap="round" stroke-linejoin="round" stroke-miterlimit="10" d="M529.936,392.991
	c0,0-16.443-16.249-17.41-20.118c-0.967-3.869-2.708-27.855-5.61-44.491s-12.38-32.691-23.213-44.685
	c-10.835-11.993-39.462-29.21-45.072-32.498"/>
<path fill="none" stroke="#000000" stroke-linecap="round" stroke-linejoin="round" stroke-miterlimit="10" d="M438.632,251.199"/>
<path fill="none" stroke="#000000" stroke-linecap="round" stroke-linejoin="round" stroke-miterlimit="10" d="M433.603,307.103
	c0,0-4.836,7.351-6.964,12.187c-2.13,4.836-4.836,9.285-4.836,9.285s-11.413-6.77-11.802-9.672
	c-0.385-2.902,1.934-14.508,6.77-19.151s3.869-2.708,4.643-2.708S433.603,307.103,433.603,307.103z"/>
<path fill="none" stroke="#000000" stroke-linecap="round" stroke-linejoin="round" stroke-miterlimit="10" d="M410.003,318.71"/>
<path fill="none" stroke="#000000" stroke-linecap="round" stroke-linejoin="round" stroke-miterlimit="10" d="M454.881,366.876
	c0,0,7.351,51.844,9.867,77.57c2.515,25.73,8.898,81.827,8.318,81.052c-0.58-0.772-94.399,8.705-115.678,10.252
	c-21.279,1.549-204.854,19.151-204.854,19.151s-4.062-78.148-5.61-91.497c-1.548-13.347-6.384-60.549-6.384-60.549"/>
<path fill="none" stroke="#000000" stroke-linecap="round" stroke-linejoin="round" stroke-miterlimit="10" d="M464.747,444.444"/>
<path fill="none" stroke="#000000" stroke-miterlimit="10" d="M381.18,167.826"/>
<path fill="none" stroke="#000000" stroke-linecap="round" stroke-linejoin="round" stroke-miterlimit="10" d="M416,348.886
	l14.508,131.54l-235.804,23.213c0,0-5.416-51.066-6.964-70.606s-6.77-54.744-6.77-54.744"/>
<path fill="none" stroke="#000000" stroke-linecap="round" stroke-linejoin="round" stroke-miterlimit="10" d="M171.103,307.49
	l-12.767-78.924l236.772-20.311l10.833,72.347"/>
<path fill="none" stroke="#000000" stroke-linecap="round" stroke-linejoin="round" stroke-miterlimit="10" d="M171.103,307.49"/>
<path fill="none" stroke="#000000" stroke-linecap="round" stroke-linejoin="round" stroke-miterlimit="10" d="M163.366,253.327
	c0,0,220.138-22.246,235.804-21.859"/>
<path fill="none" stroke="#000000" stroke-linecap="round" stroke-linejoin="round" stroke-miterlimit="10" d="M398.977,231.661"/>
<path fill="none" stroke="#000000" stroke-linecap="round" stroke-linejoin="round" stroke-miterlimit="10" d="M319.086,215.993
	c-0.193-14.315,29.016,200.794,32.113,241.801c3.095,41.009,1.934,29.79,1.934,29.79"/>
<path fill="none" stroke="#000000" stroke-linecap="round" stroke-linejoin="round" stroke-miterlimit="10" d="M319.086,215.993
	c-0.193-14.315,29.016,200.794,32.113,241.801"/>
<path fill="none" stroke="#000000" stroke-linecap="round" stroke-linejoin="round" stroke-miterlimit="10" d="M349.262,435.548
	c1.548,0,76.022-6.577,75.247-6.964"/>
<path fill="none" stroke="#000000" stroke-linecap="round" stroke-linejoin="round" stroke-miterlimit="10" d="M353.325,461.278
	c0,0,44.298-3.29,71.768-6.77"/>
<path fill="none" stroke="#000000" stroke-linecap="round" stroke-linejoin="round" stroke-miterlimit="10" d="M425.091,454.507"/>
<path fill="none" stroke="#000000" stroke-linecap="round" stroke-linejoin="round" stroke-miterlimit="10" d="M588.162,420.264
	c-1.548,0-45.654-30.951-48.167-32.111c-2.513-1.161-15.475,10.446-20.892,17.216c-5.416,6.77-7.931,18.377-7.931,18.377
	s72.734,60.16,73.508,61.706"/>
<path fill="none" stroke="#000000" stroke-linecap="round" stroke-linejoin="round" stroke-miterlimit="10" d="M507.884,406.919
	c3.482-0.195,6.964,1.163,9.866-0.967c-1.934,1.354-3.673,3.097-5.997,3.673"/>
<path fill="none" stroke="#000000" stroke-linecap="round" stroke-linejoin="round" stroke-miterlimit="10" d="M511.753,409.625"/>
</svg>
