<?xml version="1.0" encoding="UTF-8" standalone="no"?><!--Created with Inkscape (http://www.inkscape.org/)--><svg xmlns:dc="http://purl.org/dc/elements/1.1/" xmlns:cc="http://creativecommons.org/ns#" xmlns:rdf="http://www.w3.org/1999/02/22-rdf-syntax-ns#" xmlns:svg="http://www.w3.org/2000/svg" xmlns="http://www.w3.org/2000/svg" xmlns:sodipodi="http://sodipodi.sourceforge.net/DTD/sodipodi-0.dtd" xmlns:inkscape="http://www.inkscape.org/namespaces/inkscape" id="svg2" version="1.1" inkscape:version="0.48.4 r9939" width="400" height="400" sodipodi:docname="Еlephant.svg"><metadata id="metadata8"><rdf:RDF><cc:Work rdf:about=""><dc:format>image/svg+xml</dc:format><dc:type rdf:resource="http://purl.org/dc/dcmitype/StillImage"/><dc:title/></cc:Work></rdf:RDF></metadata><defs id="defs6"/><sodipodi:namedview pagecolor="#ffffff" bordercolor="#666666" borderopacity="1" objecttolerance="10" gridtolerance="10" guidetolerance="10" inkscape:pageopacity="0" inkscape:pageshadow="2" inkscape:window-width="683" inkscape:window-height="714" id="namedview4" showgrid="false" inkscape:zoom=".59" inkscape:cx="206.78" inkscape:cy="287.712" inkscape:window-x="0" inkscape:window-y="0" inkscape:window-maximized="0" inkscape:current-layer="svg2"/><g id="g2987"><path style="fill:#141414" d="M 152.22583,397.99626 C 149.33014,396.23076 147.182,396 133.64244,396 l -15.30922,0 -3.76144,-3.25151 c -7.26688,-6.28172 -5.41315,-17.2177 3.36429,-19.84748 8.64958,-2.59148 9.17226,-6.13698 3.59721,-24.40101 -4.80053,-15.72669 -8.29132,-24.41304 -23.308433,-58 -21.638895,-48.39708 -25.695936,-60.30161 -29.677496,-87.08235 -1.64608,-11.07186 -3.636266,-34.87737 -3.071663,-36.74154 0.195914,-0.64686 0.611631,-5.96268 0.923817,-11.81294 l 0.56761,-10.63683 -5.716148,-0.71419 C 50.808574,142.20746 45.349583,138.24321 35.758719,125 c -2.44103,-3.37061 -5.070974,-5.37841 -10.4789,-8 C 16.119752,112.5595 10.546159,107.16041 8.3753899,100.62483 6.9377175,96.296408 6.8729884,94.569228 7.8976046,87.876004 9.3468394,78.408992 8.043471,74.089074 3.1230061,72.050951 L 0,70.757359 0,62.567017 C 0,46.716827 6.4924906,28.814834 14.217837,23.36363 22.349463,17.625745 43.896884,5.9139029 51.186887,3.2695469 57.338361,1.0381777 60.57861,0.55286332 71.585909,0.21424511 c 12.271689,-0.3775147 13.796107,-0.20598054 24.5,2.75684699 6.277751,1.7376753 18.369501,5.4362967 26.870551,8.2191589 20.27129,6.635908 24.20312,6.724617 36.98971,0.834547 C 172.08083,6.4350334 177.71465,5.9160426 188.5,9.3944039 199.0081,12.783351 203.32299,12.7084 211.16021,9.0007889 215.32871,7.0287667 219.04119,6.0088293 222,6.0227509 c 4.88901,0.023003 11.65459,2.6388003 13.92717,5.3847071 3.38532,4.090416 7.14202,5.097073 18.57283,4.976845 8.37861,-0.08812 14.45547,-0.880304 25.5,-3.324176 62.09538,-13.74012151 68.44159,-14.3406969 80.46805,-7.6151174 13.63117,7.6229814 28.892,21.8013654 35.92209,33.3741344 2.77736,4.572027 3.60986,7.01516 3.60986,10.593785 0,8.232892 -4.50337,15.879808 -10.07213,17.102912 l -2.82096,0.619587 0.59182,8.386099 c 0.72712,10.303406 -0.4351,12.671053 -7.03576,14.333121 -5.36464,1.350831 -8.81606,5.079465 -11.11853,12.011562 -3.05077,9.18501 -13.30673,19.52256 -44.54444,44.89881 -35.11422,28.52538 -38.52253,30.49988 -54.85282,31.77738 l -9.26536,0.72481 2.41187,2.6164 c 3.77635,4.09657 8.59916,11.63985 11.44112,17.89482 3.80977,8.38509 3.80047,18.61338 -0.024,26.40137 -3.7828,7.70313 -12.46499,16.31572 -20.07846,19.91752 C 248.6827,248.91199 241,250.0005 241,248.0288 c 0,-0.53416 2.05951,-4.45472 4.5767,-8.71235 6.74881,-11.41514 9.63229,-18.89801 10.14088,-26.31645 0.39955,-5.82801 0.15921,-6.93385 -2.32477,-10.69657 l -2.7704,-4.19657 -4.20791,16.69657 c -2.31435,9.18311 -7.61924,28.54694 -11.78864,43.03072 -4.1694,14.48378 -8.24526,29.83727 -9.05746,34.11888 C 223.6048,302.30425 222.44777,318 223.64831,318 c 1.18015,0 8.32349,-7.45127 11.26442,-11.75 2.73559,-3.99858 5.43774,-4.16415 10.69772,-0.65547 8.94157,5.96447 16.44089,15.28333 14.53742,18.06457 -0.35633,0.52065 -2.44787,2.25769 -4.64787,3.86009 -2.2,1.60241 -5.71313,4.41311 -7.80696,6.246 -5.69656,4.98664 -14.01268,10.04933 -20.45597,12.4532 -3.15539,1.17722 -5.91222,2.27232 -6.1263,2.43356 -0.21407,0.16124 -0.94435,5.59302 -1.62284,12.07061 -1.47708,14.10191 -0.88799,16.25693 4.81182,17.60258 4.46748,1.05471 6.69738,3.9785 6.8873,9.03048 0.25501,6.78311 -4.9012,9.60233 -17.68705,9.67061 -4.55605,0.0243 -7.67772,0.54998 -8.94113,1.50557 -1.57956,1.19472 -6.3294,1.4675 -25.5,1.46446 -21.78031,-0.003 -23.80605,-0.15444 -26.83304,-2 z m 51.86482,-2.85704 c 1.9797,-2.44778 2.51214,-7.63971 1.02423,-9.98759 -0.46998,-0.7416 -3.25682,-2.13151 -6.19299,-3.08869 -3.0188,-0.98412 -6.11028,-2.7881 -7.11466,-4.15164 -2.55182,-3.46432 -3.8673,-14.75714 -3.14712,-27.01671 l 0.62301,-10.60541 -4.02517,-5.39459 c -6.7415,-9.03504 -10.11721,-17.19943 -12.16469,-29.42108 C 172.45071,301.63808 170.60641,279.375 168.9948,256 c -3.49152,-50.64157 -3.90885,-52.56767 -14.68508,-67.77515 l -4.44666,-6.27514 -5.13193,2.77514 c -6.28716,3.39985 -17.71207,14.60786 -20.16957,19.78666 -3.54917,7.47932 -0.71684,18.60345 8.86174,34.80494 2.51719,4.25763 4.5767,8.17819 4.5767,8.71235 0,1.9717 -7.6827,0.88319 -13.63233,-1.93148 -7.61347,-3.6018 -16.29566,-12.21439 -20.07846,-19.91752 -2.31451,-4.71315 -2.78377,-6.95623 -2.75723,-13.1798 0.0284,-6.67257 0.47174,-8.40495 4.01811,-15.70269 l 3.98613,-8.2027 -3.77714,-1.70325 C 99.97197,184.78174 93.515003,177.1227 88.883397,167.37399 85.880439,161.05329 83.007786,156.8575 78.567705,152.3069 75.18315,148.83811 71.906643,146 71.286578,146 c -3.246695,0 -2.801736,39.42506 0.671528,59.5 4.813728,27.82262 7.307033,35.02324 28.566684,82.5 6.77283,15.125 14.11067,32.02167 16.30631,37.54816 6.04687,15.22018 12.36893,37.38049 11.7044,41.02668 -0.6664,3.65641 -4.94211,8.01223 -8.80132,8.96621 -1.52119,0.37604 -3.65869,1.81882 -4.75,3.20619 -2.90649,3.69501 -2.52918,7.55391 1.09274,11.17584 l 3.07693,3.07692 13.92307,0 13.92308,0 0,-2.42327 c 0,-3.56333 4.51912,-8.39589 8.56028,-9.15402 3.34903,-0.62828 3.43972,-0.77114 3.43972,-5.41805 0,-2.75711 -4.42409,-22.2667 -10.4756,-46.19584 C 139.74864,295.10731 133,266.72417 133,264.51698 133,264.23264 133.64431,264 134.43179,264 c 0.97465,0 1.96837,2.47439 3.11239,7.75 0.92434,4.2625 6.80503,28.36753 13.06821,53.56673 11.30626,45.48945 13.00809,55.13296 10.13761,57.44535 -0.6875,0.55384 -2.72775,1.32304 -4.53388,1.70934 -4.44281,0.95025 -6.68872,4.39724 -5.1152,7.85074 0.64349,1.4123 1.89653,2.90801 2.78453,3.3238 2.51443,1.17734 18.18853,2.08368 33.9552,1.96342 13.80162,-0.10527 14.41241,-0.19811 16.25,-2.47016 z M 224,392.69356 c 3.29945,-1.12517 3.5,-1.44949 3.5,-5.6601 l 0,-4.46654 -4.83539,-1.3657 c -6.87455,-1.94164 -8.0589,-5.0437 -6.66775,-17.46424 0.56903,-5.08034 1.22996,-10.41797 1.46875,-11.8614 0.43206,-2.61173 0.39696,-2.62664 -7.26573,-3.08627 -5.73153,-0.3438 -9.04196,-1.14711 -12.94988,-3.14243 l -5.25,-2.68057 -0.18776,8.26684 c -0.43765,19.26964 0.90674,25.6819 5.68776,27.12854 9.67149,2.92639 11.7719,5.01999 11.6805,11.64261 l -0.0551,3.9957 5.68732,-0.0564 c 3.12803,-0.031 7.26232,-0.59355 9.18732,-1.25 z M 223.8751,344.116 c 3.32931,-1.03619 8.04495,-3.05118 10.47919,-4.47774 5.55728,-3.25678 17.80568,-13.24006 17.57635,-14.32592 -0.0944,-0.44679 -2.02986,-1.74618 -4.3011,-2.88755 -4.20021,-2.11072 -10.99838,-9.81826 -10.357,-11.74242 0.75712,-2.27136 2.35158,-1.53581 4.22941,1.95111 1.08,2.00544 3.55374,4.69854 5.49721,5.98466 3.55732,2.35413 10.00084,4.2388 10.00084,2.92516 0,-2.96435 -14.21742,-15.61807 -17.42144,-15.50536 -0.59321,0.0209 -2.81357,2.53591 -4.93415,5.58899 C 229.78385,318.62487 223.15307,323 217.40781,323 c -3.54482,0 -4.67807,-0.54378 -7.25881,-3.48308 -6.51117,-7.41581 -9.53309,-24.32415 -9.47537,-53.01692 0.0571,-28.37536 2.47443,-41.21478 11.33934,-60.22746 7.2467,-15.54206 16.51466,-26.97534 29.9762,-36.97968 3.56904,-2.65244 6.63315,-5.57022 6.80912,-6.48396 0.17597,-0.91374 -0.76174,-3.38205 -2.08379,-5.48513 -3.4078,-5.421 -5.48084,-12.4342 -6.74649,-22.82377 -1.80169,-14.78973 0.36039,-27.34046 6.43153,-37.33463 7.14416,-11.760549 6.71685,-19.372978 -2.21062,-39.381703 -7.15702,-16.040698 -8.79611,-20.509807 -7.86405,-21.441867 1.16743,-1.167429 2.27343,0.675807 6.69528,11.1582 2.3201,5.5 5.32553,12.193258 6.67874,14.873906 1.35321,2.680649 3.11445,8.010866 3.91388,11.844928 1.8784,9.008883 0.68585,15.881783 -4.13184,23.812561 -5.33319,8.779375 -6.78661,14.726565 -6.71299,27.468605 0.076,13.14919 2.16024,23.03686 6.26085,29.70121 3.31036,5.38003 3.64962,7.81717 1.54292,11.08397 -1.34162,2.08043 -1.15486,2.45072 3.07796,6.10241 l 4.50625,3.88758 10.02604,-0.69053 c 12.69881,-0.87462 18.53153,-3.04939 29.25589,-10.90826 17.06699,-12.50677 48.33418,-38.73338 57.59993,-48.31424 7.93431,-8.20414 9.91649,-10.90674 11.79041,-16.07562 2.76499,-7.62678 6.62483,-11.659556 12.59947,-13.163989 5.49347,-1.38327 6.10149,-2.983209 5.11884,-13.469563 -0.74391,-7.938639 -0.32772,-8.832609 4.66717,-10.025014 2.84929,-0.680198 7.04407,-6.668175 8.32936,-11.890034 C 400.40629,40.105128 365.33971,6.3672264 348.28627,4.3474984 341.72446,3.5703495 327.07922,5.9464045 294,13.154943 255.45198,21.555228 243.51753,21.905341 235.5058,14.870948 231.47939,11.335715 226.08621,9 221.94973,9 220.23675,9 215.75937,10.35 212,12 203.44,15.757006 198.09186,15.842967 188.07518,12.384548 177.94112,8.8856016 172.47236,9.4193397 160.50391,15.075438 147.34151,21.295779 142.76749,21.143988 120.5,13.747886 91.220538,4.0227725 84.91322,2.5431762 73,2.6051422 59.470359,2.6755159 50.380174,5.7110701 31.422133,16.489554 15.270887,25.672251 11.925471,28.421198 9.2047418,34.745702 6.3665971,41.343148 3.0354739,54.325978 2.3391824,61.503761 l -0.5824037,6.003761 3.8698873,2.504289 c 5.41286,3.50278 6.801052,8.069477 5.354287,17.613842 -1.9626458,12.947647 2.097224,20.221987 14.460763,25.910297 7.31567,3.36585 11.095995,6.72954 16.342571,14.5414 5.193531,7.73289 11.11723,11.27892 20.812948,12.459 12.894581,1.56942 21.48494,9.5794 30.724112,28.64833 4.064218,8.38823 10.640033,15.20865 15.744033,16.32968 2.49541,0.54808 3.32966,0.1492 5.61633,-2.68533 1.47707,-1.83097 5.39663,-5.90662 8.71013,-9.057 l 6.02455,-5.72798 -2.7082,-2.82674 c -3.23188,-3.37337 -3.33453,-4.52895 -0.72752,-8.19017 4.86804,-6.83652 12.1541,-23.83779 13.53332,-31.57859 2.79241,-15.67226 1.70151,-28.196092 -3.46531,-39.782869 -3.40866,-7.644036 -5.48304,-17.390582 -4.79425,-22.525918 C 131.98311,57.707012 153.21178,26 156.12046,26 c 1.82995,0 0.72583,2.464994 -3.9765,8.877686 -11.63343,15.864828 -17.42743,25.456533 -17.84748,29.545705 -0.48731,4.744012 2.22277,15.257517 6.33516,24.576609 2.73739,6.203202 2.86618,7.162089 2.82063,21 -0.0351,10.67 -0.51512,16.19151 -1.81725,20.9039 -1.76806,6.39854 -9.15928,22.15798 -12.8222,27.33928 -1.06661,1.50874 -1.65027,3.21082 -1.29702,3.78238 0.35324,0.57156 4.9942,3.86828 10.31323,7.32602 10.74173,6.98289 17.77621,14.10362 23.44745,23.73493 6.97362,11.84313 7.45674,14.71107 11.18156,66.37732 2.81937,39.10682 3.7599,48.21623 5.57916,54.03617 5.12378,16.39139 13.78813,27.46772 24.4628,31.27274 4.78095,1.70419 14.77613,1.39709 21.3751,-0.65674 z M 168.62321,103.46048 C 168.28044,102.56725 168,100.97323 168,99.918213 c 0,-2.242019 -0.36479,-2.331859 -2.93948,-0.723939 -1.47467,0.920946 -2.50604,0.923766 -4.5065,0.01229 -3.63929,-1.65817 -4.98403,-5.638217 -3.1483,-9.318039 1.40822,-2.822842 1.3802,-2.888874 -1.23236,-2.903839 -1.47035,-0.0084 -3.34836,-0.458422 -4.17336,-1 -2.27971,-1.496533 0.6215,-2.995733 4.4529,-2.301037 6.60263,1.197164 13.95601,10.027838 14.7485,17.711461 0.3258,3.15878 -1.57446,4.68106 -2.57819,2.06537 z M 165,92.559017 c 0,-0.242541 -0.45,-0.719098 -1,-1.059017 -0.55,-0.339919 -1,-0.141476 -1,0.440983 C 163,92.523442 163.45,93 164,93 c 0.55,0 1,-0.198442 1,-0.440983 z m 52.57627,11.564393 c -0.29797,-0.48213 0.17154,-3.29463 1.04336,-6.250004 1.98792,-6.738859 8.32176,-13.264627 13.88803,-14.308865 2.34115,-0.439202 4.17091,-0.28597 4.86423,0.407351 1.45199,1.451991 -0.87096,2.991749 -4.54525,3.012795 -2.61256,0.01497 -2.64058,0.081 -1.23236,2.903839 2.81393,5.640656 -2.49704,11.843704 -7.99546,9.338454 -2.23837,-1.01987 -2.44485,-0.861247 -3.04531,2.33949 -0.62217,3.31644 -1.854,4.37437 -2.97724,2.55694 z m 12.17359,-13.706879 c -0.95295,-0.952958 -2.86349,0.590599 -2.1533,1.7397 0.42212,0.683003 0.98146,0.665748 1.69964,-0.05243 0.58876,-0.588756 0.79291,-1.348027 0.45366,-1.687268 z M 121.68343,68.266312 C 121.43331,67.84484 120.93304,65.025 120.57172,62 120.2104,58.975 119.20849,53.454377 118.34524,49.731949 116.95792,43.749612 116.2373,42.502187 112.13786,38.986776 105.69312,33.460193 95.014396,28.465009 85.221455,26.396099 c -6.870313,-1.45146 -9.677065,-1.575607 -16.5,-0.729822 -8.871042,1.099672 -10.427781,0.88972 -8.714023,-1.175232 1.679607,-2.023803 15.085413,-2.93396 23.28047,-1.580575 14.1965,2.344502 32.079158,11.889347 35.636808,19.021097 3.37401,6.763627 6.32949,25.175258 4.24773,26.461862 -0.56884,0.351557 -1.23889,0.294354 -1.48901,-0.127117 z M 264,64.148709 c 0,-6.130801 2.44705,-18.178749 4.49772,-22.144299 3.50992,-6.787443 20.06616,-16.096751 33.24496,-18.693118 9.99457,-1.969037 25.75732,-0.937759 25.75732,1.685171 0,1.161952 -0.89414,1.385487 -4,1 -8.82317,-1.095095 -20.04785,-0.352592 -27,1.78603 -7.43295,2.286524 -17.96422,8.024898 -22.56619,12.296064 -3.27714,3.041573 -5.63264,10.388596 -6.68817,20.86106 C 266.35577,69.76831 264,72.09756 264,64.148709 z M 220,314.43189 C 220,302.61475 223.35126,286.13503 231.67915,257 242.10986,220.50828 247,201.47246 247,197.3606 c 0,-3.5556 -3.62248,-7.29694 -11.58094,-11.9609 l -4.66042,-2.73119 -1.92039,2.41575 c -9.67847,12.17498 -17.75074,28.17451 -21.32615,42.26921 -5.76501,22.72634 -5.48355,61.57779 0.58851,81.23685 C 210.56202,316.55942 213.26751,320 217.07258,320 219.95864,320 220,319.9213 220,314.43189 z M 132.99743,245.25 c -0.001,-0.4125 -1.48104,-3.225 -3.28805,-6.25 -9.03237,-15.12047 -11.85045,-27.88284 -7.87677,-35.67188 2.92618,-5.7358 11.09418,-14.36689 17.88782,-18.902 3.17877,-2.12198 6.16897,-4.17285 6.64491,-4.55747 0.47593,-0.38463 -2.31088,-2.81136 -6.19291,-5.39274 l -7.05824,-4.69341 -2.95206,2.10205 c -6.70329,4.77317 -17.19671,17.38074 -21.21413,25.48824 -7.41061,14.95522 -6.10568,24.9423 4.79782,36.71939 5.44682,5.88321 8.66863,8.19339 14.75418,10.57942 3.67081,1.43925 4.50075,1.54599 4.49743,0.5784 z m 121.84858,-2.57884 c 2.39031,-1.16686 6.95919,-4.91507 10.15308,-8.32934 7.3017,-7.80554 10.4471,-15.34041 9.66478,-23.15215 -1.06083,-10.59271 -9.81103,-24.81637 -21.88083,-35.5678 -7.05146,-6.28125 -6.33654,-6.33195 -15.55573,1.1033 l -4.27269,3.44591 5.77269,3.79234 c 7.19345,4.7257 15.41117,13.17737 18.32136,18.84293 4.15151,8.08219 1.41874,20.8314 -7.75805,36.19365 -1.80701,3.025 -3.28664,5.86782 -3.28805,6.31739 -0.003,1.04435 3.32112,0.0496 8.84344,-2.64623 z" id="path2989" inkscape:connector-curvature="0"/></g></svg>