<?xml version="1.0" encoding="UTF-8" standalone="no"?><!--Created with Inkscape (http://www.inkscape.org/)--><svg xmlns="http://www.w3.org/2000/svg" xmlns:cc="http://creativecommons.org/ns#" xmlns:dc="http://purl.org/dc/elements/1.1/" xmlns:inkscape="http://www.inkscape.org/namespaces/inkscape" xmlns:rdf="http://www.w3.org/1999/02/22-rdf-syntax-ns#" xmlns:sodipodi="http://sodipodi.sourceforge.net/DTD/sodipodi-0.dtd" xmlns:svg="http://www.w3.org/2000/svg" id="svg4445" version="1.1" viewBox="0 0 400 400" inkscape:version="0.91 r" sodipodi:docname="fish.svg"><metadata id="metadata4451"><rdf:RDF><cc:Work rdf:about=""><dc:format>image/svg+xml</dc:format><dc:type rdf:resource="http://purl.org/dc/dcmitype/StillImage"/><dc:title/></cc:Work></rdf:RDF></metadata><defs id="defs4449"/><sodipodi:namedview id="namedview4447" bordercolor="#666666" borderopacity="1" gridtolerance="10" guidetolerance="10" objecttolerance="10" pagecolor="#ffffff" showgrid="false" inkscape:current-layer="svg4445" inkscape:cx="104.84539" inkscape:cy="139.5106" inkscape:pageopacity="0" inkscape:pageshadow="2" inkscape:window-height="717" inkscape:window-maximized="1" inkscape:window-width="1366" inkscape:window-x="0" inkscape:window-y="-3" inkscape:zoom="0.98111066"/><g id="g4455"><path id="path4457" d="m 163.13268,339.25 c -1.86377,-3.66313 -4.16004,-11.04125 -7.57819,-24.34935 l -1.69503,-6.59935 -13.67973,-0.66196 c -7.52385,-0.36408 -14.85234,-0.92193 -16.28553,-1.23967 -2.32672,-0.51582 -2.7968,-0.11297 -4.38908,3.76132 -0.9808,2.38645 -2.0003,7.93901 -2.26556,12.33901 -0.26527,4.4 -0.93278,8.5625 -1.48338,9.25 -1.28999,1.61077 -28.035236,1.7076 -41.247938,0.14934 -8.804037,-1.03832 -9.928956,-0.94847 -19.860874,1.58629 -5.790531,1.47783 -11.406646,2.40816 -12.480257,2.06741 -2.943442,-0.93421 -4.516227,-5.7393 -3.687479,-11.26579 1.469038,-9.79624 5.72234,-14.77721 22.245103,-26.05087 l 10.224736,-6.97644 -11.224736,-5.59124 c -18.031943,-8.98202 -33.39481,-19.97293 -40.08548,-28.67797 -2.295718,-2.9869 -3.91765,-3.95856 -8.211886,-4.91957 C 4.5192437,250.52519 0,246.50073 0,241.89491 0,240.01449 1.9096562,234.69663 4.4344789,229.54612 21.426378,194.88348 63.590442,167.99171 118.11516,157.04185 c 5.31743,-1.06787 5.70306,-1.35074 7.27272,-5.33476 0.91165,-2.3139 3.67127,-12.42594 6.13249,-22.47119 2.46122,-10.04526 5.55518,-20.92259 6.87547,-24.17184 6.34692,-15.61986 18.40944,-26.885164 39.48155,-36.872195 12.49531,-5.922091 34.30529,-13.409187 35.52067,-12.193805 0.56155,0.561555 -0.0422,2.400885 -1.54663,4.711553 -6.23128,9.570893 -7.15691,19.968036 -2.57379,28.910126 4.72039,9.209929 12.02923,13.561211 22.89648,13.631321 5.66682,0.0366 7.83963,-0.51044 14.39642,-3.624246 4.24727,-2.017017 7.9421,-3.447505 8.21075,-3.178861 0.26864,0.268643 -1.1675,3.839807 -3.19143,7.935927 -4.17079,8.44103 -6.20964,17.49887 -5.17739,23.00121 0.74836,3.98914 6.41668,11.10852 9.66532,12.1396 2.31545,0.7349 2.4879,2.76094 0.38363,4.50733 -1.88609,1.56531 -11.42411,15.97575 -14.23265,21.50327 l -2.05034,4.03528 6.58024,3.4117 c 3.61914,1.87643 9.79765,5.72007 13.73003,8.54143 6.65685,4.77607 7.59474,5.14587 13.60348,5.36371 8.01669,0.29062 19.74511,-2.08385 26.41752,-5.34835 10.57923,-5.17594 15.6366,-12.31846 25.51801,-36.03906 11.38129,-27.32112 26.14646,-43.72953 49.63028,-55.153744 11.03435,-5.367899 12.4244,-5.033335 9.30208,2.238877 -6.26126,14.583147 -8.25246,36.387667 -4.49763,49.251187 2.58806,8.86634 8.34362,17.3668 14.47281,21.37504 2.76585,1.80875 5.0369,3.55239 5.04678,3.87475 0.01,0.32237 -2.21687,3.37078 -4.94834,6.77426 -6.54522,8.15549 -11.27671,16.35246 -14.61676,25.32246 -2.2162,5.95179 -2.74255,9.08986 -2.82077,16.81717 -0.0876,8.64941 0.1804,10.08358 2.99268,16.01789 1.72616,3.64243 5.36577,8.85553 8.25,11.81666 2.83864,2.91432 5.16116,5.50033 5.16116,5.74669 0,0.24636 -3.84455,4.55742 -8.54344,9.58013 -12.21288,13.05453 -20.78454,24.80784 -26.68301,36.58727 -4.70966,9.40534 -5.16861,10.94726 -5.57757,18.73894 -0.40837,7.78063 -0.21246,8.95113 2.34378,14.00345 1.53416,3.03223 2.51148,5.79106 2.17181,6.13073 -1.06087,1.06088 -10.03497,-6.19133 -18.07566,-14.60743 C 331.07144,311.05001 324.18453,300.9962 313,281.13008 c -8.49166,-15.08299 -16.24719,-24.31396 -23.95009,-28.5064 -4.5736,-2.48926 -5.37438,-2.64999 -6.86379,-1.37764 -16.1912,13.83164 -27.43749,21.66601 -44.82288,31.22444 l -11.46518,6.30351 6.15889,5.35684 c 11.58254,10.07419 21.92862,25.91582 22.29811,34.14226 L 254.5,331.5 l -7,0.24309 c -19.456,0.67567 -61.97785,6.36439 -73.6879,9.85822 -7.22217,2.15482 -8.53365,1.86607 -10.67942,-2.35131 z m 9.93918,-0.67752 c 2.43548,-0.78514 7.01564,-1.71752 10.17814,-2.07196 3.1625,-0.35444 5.75,-1.0262 5.75,-1.4928 0,-1.86826 -6.41444,-18.87783 -9.24205,-24.50772 -1.65742,-3.3 -4.981,-9.05153 -7.38572,-12.78118 C 169.9675,293.98917 168,290.72667 168,290.46882 168,290.21097 168.68408,290 169.52017,290 c 3.36307,0 14.54339,20.43261 20.14033,36.8075 l 2.8395,8.30751 3.5,-0.69049 c 1.925,-0.37976 8.675,-1.46619 15,-2.41428 8.34223,-1.25047 11.416,-2.08379 11.19407,-3.0348 -1.30884,-5.60884 -30.12506,-37.86803 -37.96144,-42.4971 -3.16344,-1.86868 -4.3726,-4.47834 -2.075,-4.47834 5.4323,0 35.52798,32.1603 43.68101,46.67762 0.48502,0.86362 4.04142,0.99694 13.33816,0.5 l 12.6768,-0.67762 -1.82847,-5.18239 c -5.96337,-16.90187 -21.50227,-30.68972 -66.06421,-58.61957 -6.51934,-4.08609 -8.94359,-6.11537 -8.19724,-6.86172 1.10275,-1.10275 17.94421,8.80003 37.08937,21.80857 5.14418,3.49531 9.7977,6.35511 10.34116,6.35511 1.97453,0 18.66318,-9.16391 29.35362,-16.11837 13.31719,-8.66324 18.39429,-12.72503 29.59672,-23.67798 5.00843,-4.89689 9.11707,-8.15999 9.76792,-7.75774 0.73421,0.45376 -0.0933,2.11572 -2.38878,4.79744 l -3.51215,4.10316 4.05208,2.30163 c 10.07512,5.72277 15.43302,12.15087 26.96568,32.35186 11.15713,19.54321 16.85338,27.81773 25.19603,36.60036 7.27486,7.65854 9.42015,9.00873 8.19861,5.15999 -1.17853,-3.71322 -0.60595,-13.99302 1.03911,-18.65561 1.31233,-3.71956 1.3363,-4.54602 0.15924,-5.49162 -2.00308,-1.6092 -10.97998,-14.1109 -21.04902,-29.31397 -9.37154,-14.14993 -14.87456,-20.01401 -22.05584,-23.50294 C 306.03284,245.5891 304,244.01614 304,243.30073 c 0,-1.81412 1.43331,-1.63048 6.18187,0.79206 7.0336,3.58827 13.74036,10.87756 23.83682,25.90721 5.35736,7.975 12.0103,17.59303 14.7843,21.3734 l 5.04364,6.8734 2.97623,-5.8734 c 4.10303,-8.09706 13.60612,-21.14587 23.21251,-31.8734 l 8.05941,-9 -3.79739,-0.66355 c -2.08856,-0.36495 -9.25019,-1.37671 -15.91473,-2.24836 -15.325,-2.00434 -25.26074,-5.21581 -37.84373,-12.23201 -5.47858,-3.05482 -12.11608,-6.06614 -14.75,-6.6918 -2.88635,-0.68564 -4.78893,-1.6918 -4.78893,-2.5326 0,-2.24336 7.47599,-0.73253 13.89556,2.80817 22.34189,12.32263 28.69894,14.21696 58.95311,17.56736 l 4.34867,0.48158 -3.03323,-3.45466 C 378.30718,236.72452 374,225.69654 374,215.94986 c 0,-11.04821 6.99212,-28.87487 15.94678,-40.65691 3.84369,-5.05731 3.87979,-5.17754 1.25536,-4.1808 -5.72071,2.17269 -18.08669,9.6018 -36.03541,21.64898 -10.2667,6.89102 -22.37699,14.31884 -26.91174,16.50627 -8.74803,4.21979 -17.90216,6.17412 -17.05804,3.64175 0.25312,-0.75935 2.25771,-1.68748 4.45465,-2.06253 6.6552,-1.13613 16.85372,-6.58847 34.27146,-18.32222 18.6143,-12.53984 33.46104,-21.49753 39.89165,-24.06839 l 4.31471,-1.72495 -3.56945,-2.94224 c -7.56225,-6.23344 -12.82007,-16.73239 -14.69602,-29.34536 -1.051,-7.06645 -1.19021,-7.33922 -3.1974,-6.265 -4.27318,2.28693 -12.58521,11.79907 -25.62215,29.32154 -7.6434,10.27321 -17.29846,21.8634 -22.49202,27 -9.77108,9.66393 -19.89817,16.55421 -21.69293,14.75945 -0.72466,-0.72466 1.19983,-2.48916 6.29853,-5.77493 10.25515,-6.60876 19.12438,-16.11389 36.00487,-38.58637 14.31499,-19.05708 20.30917,-25.70105 26.47185,-29.34143 2.88445,-1.70389 3.18366,-2.42478 4.29058,-10.33743 0.65445,-4.6782 2.27079,-11.90955 3.59187,-16.06966 1.32108,-4.160114 2.2407,-7.72511 2.0436,-7.922213 -0.67,-0.670003 -13.0364,5.991134 -19.08598,10.280623 -8.18395,5.80288 -18.12429,16.55316 -23.95252,25.90418 -2.6552,4.26009 -7.65901,14.49439 -11.11958,22.74288 -7.15913,17.06425 -10.89069,23.39486 -16.7426,28.40387 -8.03413,6.87692 -21.22014,11.3597 -33.66007,11.44324 l -5.5,0.0369 4,3.3588 c 6.77591,5.68973 16.86907,17.63299 15.80269,18.69937 -0.62083,0.62083 -4.50721,-2.65064 -10.88415,-9.162 -12.3997,-12.66106 -23.67436,-21.2048 -37.37994,-28.32584 C 178.11542,140.87716 76.708389,155.00333 26.259941,204.80706 17.961774,212.99918 11.573802,221.77435 6.8670507,231.4471 2.4007939,240.62562 2.1487423,242.85572 5.25,245.7544 c 7.042132,6.58214 28.80443,4.67603 41.96738,-3.67582 3.184177,-2.02035 4.942915,-2.62823 5.411308,-1.87036 1.869696,3.02523 -12.843498,10.00142 -25.504852,12.09299 l -7.376164,1.2185 6.987694,6.59184 c 21.336742,20.128 61.916562,37.81702 99.392974,43.32608 10.31694,1.5166 25.87166,2.12546 25.87166,1.01271 0,-1.08423 -3.34228,-7.01067 -5.71199,-10.12835 -1.32856,-1.7479 -4.90484,-5.05742 -7.94729,-7.3545 -3.70791,-2.7995 -5.20021,-4.508 -4.52624,-5.18197 1.33864,-1.33864 8.85399,3.85155 13.68485,9.45093 5.47663,6.34789 8.16633,12.36143 12.04488,26.92961 3.63774,13.66366 6.7142,21.83394 8.22142,21.83394 0.48295,0 2.87075,-0.64238 5.30623,-1.42752 z M 120.0129,278.25 c 0.007,-0.4125 0.88317,-3.52571 1.94683,-6.91825 C 124.51545,263.18029 127,246.10597 127,236.69402 127,211.90486 118.39455,188.9294 104.15845,175.70993 101.3213,173.07539 99,170.48789 99,169.95993 c 0,-2.51288 3.3492,-0.32381 9.62361,6.29007 15.22412,16.04782 22.38513,38.40161 21.0443,65.69186 C 128.82181,259.1627 124.43456,279 121.47207,279 c -0.80964,0 -1.46626,-0.3375 -1.45917,-0.75 z M 202,260.97525 c 0,-0.56361 1.07959,-1.43521 2.39909,-1.93688 3.0234,-1.1495 5.60091,-4.76648 5.60091,-7.85967 0,-1.35089 -1.29454,-3.58556 -3,-5.1787 -3.50122,-3.27063 -3.69977,-4 -1.08889,-4 1.0511,0 3.0761,1.38453 4.5,3.07673 3.98459,4.73541 3.23918,11.08684 -1.77815,15.15103 C 206.29575,262.12098 202,262.60508 202,260.97525 Z m -38,-31.25843 c 0,-0.825 1.11682,-1.78031 2.48181,-2.1229 3.1148,-0.78176 5.77961,-5.70415 4.92703,-9.10111 -0.34848,-1.38844 -1.78212,-3.42787 -3.18586,-4.53206 l -2.55227,-2.00761 2.66465,-2.78129 c 4.47176,-4.66751 2.9247,-12.13681 -2.81203,-13.57664 -2.83124,-0.71059 -3.27936,-2.72287 -1.02333,-4.59521 3.46197,-2.87318 0.53448,-11.74713 -4,-12.125 -0.825,-0.0687 -2.025,-0.18125 -2.66667,-0.25 -0.64166,-0.0687 -1.34042,-0.64626 -1.55278,-1.28336 -1.23207,-3.69621 7.44383,-1.77878 10.70381,2.36561 2.09648,2.66524 2.85517,10.65586 1.11392,11.73201 -0.49595,0.30651 0.62905,2.08807 2.5,3.95902 2.77212,2.77212 3.40172,4.16707 3.40172,7.5369 0,2.27435 -0.73431,5.25588 -1.6318,6.62563 -1.45969,2.22776 -1.47216,2.67231 -0.11828,4.21481 3.4292,3.90695 2.92582,10.95414 -1.03757,14.52555 C 168.58907,230.66502 164,231.56577 164,229.71682 Z M 66.993526,228.10941 C 58.47035,225.36799 53.484395,219.81319 52.39179,211.84177 49.899608,193.65931 71.902999,182.903 84.933713,195.93371 c 11.262824,11.26283 4.416358,30.47729 -11.57874,32.49549 -2.120235,0.26752 -4.982886,0.12362 -6.361447,-0.31979 z m 3.887635,-5.21783 C 79.748784,219.80031 77.626397,205 68.315481,205 57.49277,205 54.853557,219.55978 65,223.29056 c 2.225357,0.81825 2.429048,0.80444 5.881161,-0.39898 z M 229,219.93544 c 0,-0.58551 1.35,-2.20051 3,-3.58889 3.80064,-3.19803 4.0935,-7.97063 0.68555,-11.17224 C 231.4126,203.97844 229.86416,203 229.24457,203 c -2.1543,0 -2.30523,-1.93934 -0.30648,-3.93809 4.77188,-4.77188 2.86461,-11.53985 -3.78986,-13.44833 -3.34714,-0.95995 -4.07261,-2.32163 -1.71822,-3.2251 2.5086,-0.96264 8.32942,2.58477 9.99272,6.08992 1.9698,4.15106 1.97729,5.84737 0.0423,9.58923 -1.38628,2.68077 -1.3827,3.02673 0.037,3.57152 3.68084,1.41247 5.62693,9.2848 3.38095,13.67659 -2.0698,4.04728 -7.88296,7.454 -7.88296,4.6197 z M 53.315611,330.65231 c 8.796773,-2.3007 8.821773,-2.31642 11.699662,-7.35541 4.215523,-7.38111 14.621096,-18.06053 16.128578,-16.55305 0.903623,0.90362 -0.216885,2.58972 -4.814554,7.24474 -3.295749,3.33686 -6.962918,7.79406 -8.149263,9.90487 l -2.156991,3.83785 4.408949,0.60431 c 2.424922,0.33238 7.99519,0.9034 12.378373,1.26894 7.270717,0.60636 8.014044,0.4994 8.478372,-1.21997 0.279923,-1.03652 1.32987,-5.19974 2.333218,-9.25159 1.569334,-6.33749 3.434594,-9.40978 4.852225,-7.99215 0.213358,0.21335 -0.412639,3.30645 -1.391104,6.87354 -0.978465,3.56708 -2.081012,7.72311 -2.450104,9.23561 l -0.671076,2.75 9.906734,0 9.90673,0 0.0364,-6.30897 c 0.0215,-3.72124 0.88268,-8.71679 2.09966,-12.17932 1.13479,-3.2287 1.95646,-5.95572 1.82592,-6.06004 -0.13054,-0.10433 -3.83734,-0.96911 -8.23734,-1.92175 -4.4,-0.95264 -14.148391,-3.76443 -21.66309,-6.24844 l -13.663091,-4.51638 -12.18822,8.32685 c -14.278938,9.75519 -18.444964,14.15992 -19.926541,21.06827 -1.360661,6.34455 -1.334048,8.16479 0.140942,9.63978 1.497203,1.4972 0.680296,1.58155 11.115611,-1.14769 z M 240.00172,163.28419 c 1.37405,-2.5937 4.76635,-8.1062 7.53844,-12.25 l 5.04015,-7.53419 -16.04015,0.25716 c -8.82209,0.14143 -21.55277,0.36643 -28.2904,0.5 -8.60414,0.17056 -12.25017,-0.0945 -12.25,-0.89053 4.2e-4,-1.99338 4.01351,-2.33874 27.50024,-2.36663 12.65,-0.015 23.93737,-0.279 25.08304,-0.58663 2.03317,-0.54592 2.01968,-0.62715 -0.56362,-3.39258 -5.37392,-5.7528 -6.30688,-14.5914 -2.66746,-25.27079 1.26517,-3.7125 2.11052,-6.75 1.87855,-6.75 -0.23197,0 -1.71992,0.92437 -3.30655,2.05415 -5.33261,3.79715 -21.30107,10.7362 -37.92396,16.47976 -21.74558,7.51356 -27.93493,10.05634 -30.62154,12.58027 -2.37517,2.23135 -4.6725,1.81565 -3.71763,-0.67271 1.05004,-2.73635 8.65619,-6.21604 28.33917,-12.9647 10.725,-3.67726 23.98386,-8.79622 29.46413,-11.37546 l 9.96413,-4.68955 -6.96413,-0.0323 c -8.47522,-0.0393 -15.54689,-2.82792 -20.77218,-8.191277 -7.17942,-7.369139 -10.21014,-19.258485 -7.30102,-28.641542 0.84465,-2.724336 1.39568,-5.093382 1.22452,-5.264546 -0.17117,-0.171164 -5.46266,4.993734 -11.75888,11.477551 C 179.83505,90.198965 171.00626,103.1704 162.63665,121.62863 157.09151,133.8578 154,138.61582 154,134.92097 c 0,-2.01415 9.9098,-23.84474 14.09184,-31.04332 6.3331,-10.901225 14.95906,-21.773399 25.92261,-32.672922 l 10.35575,-10.295271 -7.4351,2.636737 c -10.57893,3.751646 -26.6939,11.534902 -33.56526,16.21145 -10.57209,7.195212 -19.09663,17.709957 -22.92328,28.275126 -0.8899,2.45697 -3.80186,13.01723 -6.47101,23.46723 -2.66915,10.45 -5.17665,20.0836 -5.57222,21.408 -0.71335,2.38832 -0.67504,2.40248 4.68872,1.73355 32.80961,-4.09182 72.03157,0.2508 97.41245,10.78541 3.29753,1.36868 6.22127,2.50752 6.49722,2.53077 0.27594,0.0232 1.62594,-2.07985 3,-4.67354 z" inkscape:connector-curvature="0" style="fill:#0f0f0f"/></g></svg>