<?xml version="1.0" encoding="UTF-8" standalone="no"?><!--Created with Inkscape (http://www.inkscape.org/)--><svg xmlns:dc="http://purl.org/dc/elements/1.1/" xmlns:cc="http://creativecommons.org/ns#" xmlns:rdf="http://www.w3.org/1999/02/22-rdf-syntax-ns#" xmlns:svg="http://www.w3.org/2000/svg" xmlns="http://www.w3.org/2000/svg" xmlns:sodipodi="http://sodipodi.sourceforge.net/DTD/sodipodi-0.dtd" xmlns:inkscape="http://www.inkscape.org/namespaces/inkscape" id="svg2" version="1.1" inkscape:version="0.48.4 r9939" width="400" height="400" sodipodi:docname="054.png"><metadata id="metadata8"><rdf:RDF><cc:Work rdf:about=""><dc:format>image/svg+xml</dc:format><dc:type rdf:resource="http://purl.org/dc/dcmitype/StillImage"/><dc:title/></cc:Work></rdf:RDF></metadata><defs id="defs6"/><sodipodi:namedview pagecolor="#ffffff" bordercolor="#666666" borderopacity="1" objecttolerance="10" gridtolerance="10" guidetolerance="10" inkscape:pageopacity="0" inkscape:pageshadow="2" inkscape:window-width="640" inkscape:window-height="480" id="namedview4" showgrid="false" inkscape:zoom="0.59" inkscape:cx="200" inkscape:cy="200" inkscape:window-x="0" inkscape:window-y="0" inkscape:window-maximized="0" inkscape:current-layer="svg2"/><path style="fill:#141414" d="M 141,321.62688 C 135.38466,319.98721 128.14718,316.32255 121,311.5 108.94989,303.3692 99.776038,299.9333 83.5,297.45508 70.158298,295.42364 67.315758,294.58611 61.721147,291.03811 53.440381,285.7866 50.315247,278.99024 47.908888,261 46.567034,250.96813 44.280943,244.22167 41.657065,242.55031 40.470679,241.79461 35.675,240.42018 31,239.49601 16.066135,236.54386 6.1624651,230.81732 2.6879693,223.12533 -1.780191,213.23351 0.79403026,196.30271 8.7701945,183.12217 15.974967,171.21635 27.8581,161.58993 40.243865,157.62563 c 1.586783,-0.50788 1.725132,-2.25014 1.535887,-19.34189 -0.182053,-16.44224 0.06481,-19.87079 1.98036,-27.50417 1.203586,-4.79624 2.868558,-10.34843 3.699938,-12.338199 3.790476,-9.071887 12.371856,-16.117785 23.891922,-19.616897 5.915715,-1.796843 8.508673,-2.009978 18.513611,-1.521771 14.078537,0.686984 19.524837,2.114607 37.520207,9.835072 22.54067,9.670507 24.44149,9.987836 65.11421,10.870346 23.75449,0.515421 38.63293,1.293811 46.30695,2.422629 22.4063,3.29586 38.81174,8.78351 46.53761,15.56691 7.44751,6.539 11.61546,18.98212 11.64066,34.75234 0.0116,7.24352 0.31768,9.25 1.41119,9.25 2.18446,0 7.29369,6.43454 11.08134,13.95581 5.72198,11.36235 9.62741,13.0266 37.56816,16.00918 10.20025,1.08884 20.35731,2.61881 22.57125,3.39993 11.52437,4.06604 22.71537,11.97792 27.53465,19.46662 2.57308,3.99831 2.92905,5.3426 2.47975,9.3647 -1.26931,11.36297 -6.42544,14.93419 -34.63156,23.9864 -20.22908,6.49214 -27.17443,11.14108 -33.95683,22.72934 -4.32236,7.3851 -7.22227,10.45432 -11.35827,12.02141 -4.2743,1.61948 -7.15225,1.33616 -20.70999,-2.03882 -26.25071,-6.53468 -35.43125,-4.11513 -85.25491,22.46919 -33.36659,17.80335 -41.48181,20.81931 -57.22,21.26536 -7.03487,0.19938 -12.6221,-0.1619 -15.5,-1.00224 z m 34.5,-5.08685 c 4.4,-1.45011 20.22148,-9.13182 35.15885,-17.07046 52.39837,-27.84773 62.52849,-30.54429 88.69912,-23.61104 6.52188,1.72781 13.27188,3.13979 15,3.13773 5.00588,-0.006 9.13404,-3.29153 13.61724,-10.83787 7.8335,-13.18574 12.67392,-16.67897 32.52479,-23.47247 30.314,-10.37427 34.51324,-12.88584 35.97101,-21.51436 1.16465,-6.89348 -4.9078,-14.81524 -16.61735,-21.67802 -8.8954,-5.21345 -13.70603,-6.42994 -33.75418,-8.53561 -28.64715,-3.00881 -32.6148,-4.80574 -39.58297,-17.92684 -4.34618,-8.18389 -7.92492,-12.96931 -8.93046,-11.94163 -0.22092,0.2258 -0.68448,14.13554 -1.03013,30.91054 -0.34565,16.775 -0.85312,32.33523 -1.12771,34.57829 -0.40183,3.28246 -1.76883,5.46933 -7.00523,11.20671 -7.86698,8.61964 -19.97281,17.92035 -28.58051,21.95794 -9.87285,4.63102 -15.65134,5.63332 -28.27385,4.90422 -17.9771,-1.03839 -33.52989,-5.24159 -63.54954,-17.17451 C 148.18327,241.58784 135.74684,238.56339 81.5,228.43182 64.168382,225.19483 52.996743,216.72015 44.971901,200.72202 L 40.847646,192.5 41.173823,176.74908 c 0.23023,-11.11769 -0.002,-15.75065 -0.789466,-15.75 -0.613604,5.1e-4 -4.283856,1.58591 -8.156115,3.52312 -20.663434,10.3375 -35.3762402,43.19473 -26.1414465,58.38013 3.9970245,6.57258 14.3587895,11.845 27.6377515,14.06304 C 46.002589,239.01622 47.803319,241.57362 51,261.5 c 2.319008,14.45544 3.813053,18.656 8.300681,23.33763 4.869262,5.07976 9.561727,6.99705 22.428273,9.16392 20.728976,3.491 27.050646,5.84526 41.985856,15.636 13.41778,8.79599 18.98911,10.45777 33.28519,9.92808 7.86773,-0.29152 12.50554,-1.05001 18.5,-3.0256 z m -31.32745,-8.80899 C 140.81743,306.6574 131,298.59055 131,296.90733 c 0,-1.83339 2.35758,-0.817 6.23924,2.68984 2.1899,1.97844 5.49248,4.22844 7.33908,5 4.81673,2.01256 14.13575,1.73753 20.98614,-0.61935 5.73777,-1.97408 9.1725,-1.97927 7.95667,-0.012 -0.33309,0.53896 -3.55902,1.89214 -7.16871,3.00706 -7.09721,2.1921 -16.67565,2.51952 -22.17987,0.75817 z M 374,229.02417 c 0,-0.53671 0.89832,-2.44921 1.99626,-4.25 3.85005,-6.31466 1.61386,-12.03669 -6.02026,-15.40486 -2.1868,-0.96481 -3.976,-2.39139 -3.976,-3.17017 0,-3.4365 11.83055,3.01052 13.94249,7.59791 1.65952,3.6047 1.2493,8.08939 -1.12663,12.3168 C 376.8157,229.67264 374,231.37423 374,229.02417 z M 22.379122,223.56342 c -6.652287,-2.89526 -10.940221,-12.45449 -8.466027,-18.87359 1.538091,-3.99046 3.377258,-2.36789 2.591011,2.28587 -1.20886,7.15518 4.671774,15.00964 11.245894,15.02056 1.331672,0.002 2.25,0.61596 2.25,1.50374 0,1.86861 -3.408017,1.89698 -7.620878,0.0634 z m 223.838318,39.80002 3.71744,-0.61456 0.28256,-10.54308 c 0.19661,-7.33618 0.66277,-10.66923 1.53256,-10.95778 0.94477,-0.31343 1.25,2.04748 1.25,9.66865 0,5.54583 0.17004,10.08333 0.37788,10.08333 1.31427,0 8.83499,-3.7144 13.28693,-6.56228 l 5.26683,-3.36915 0.28418,-10.70293 c 0.19336,-7.28236 0.67182,-10.83151 1.49711,-11.10526 0.88228,-0.29266 1.29119,2.23931 1.5,9.2881 l 0.28707,9.69043 8.17319,-8.2103 8.1732,-8.21031 0.54189,-7.15915 C 292.68632,220.72162 293.17021,206.7 293.4636,193.5 l 0.53342,-24 -2.93663,6.82448 c -8.42199,19.572 -23.51888,28.58977 -54.79875,32.73276 -9.21659,1.22073 -39.30429,0.8112 -43.96124,-0.59837 -2.07881,-0.62921 -2.21609,-0.33007 -2.5,5.44785 -0.38846,7.90581 -2.1557,7.90209 -2.8004,-0.006 l -0.5,-6.13306 -8.36301,-2.40918 c -4.59965,-1.32504 -9.18257,-2.84779 -10.18425,-3.38388 -1.00169,-0.53608 -2.06199,-0.9747 -2.35622,-0.9747 -0.29423,0 -0.66131,5.5125 -0.81574,12.25 -0.37916,16.54236 -2.19531,16.15339 -2.56102,-0.5485 l -0.28024,-12.7985 -4.71976,-2.02872 c -14.79106,-6.35772 -41.50228,-14.39503 -69.135773,-20.8027 -9.578808,-2.22114 -20.244128,-5.36188 -23.700712,-6.97941 -6.94832,-3.25151 -14.189424,-9.85825 -17.167887,-15.66387 l -1.938176,-3.77789 -0.731956,20.59267 -0.731956,20.59267 4.186726,8.04741 C 52.03433,207.63761 59.191409,217 61.084987,217 61.598982,217 62,210.2069 62,201.5 62,188.49907 62.238038,186 63.476386,186 c 1.234215,0 1.521267,2.82951 1.75,17.25 L 65.5,220.5 l 6.511865,2.17792 c 3.581526,1.19786 10.781526,2.91198 16,3.80916 5.218474,0.89718 10.500635,1.87839 11.738135,2.18048 2.20162,0.53745 2.25,0.36416 2.25,-8.05915 0,-6.98525 0.28283,-8.60841 1.5,-8.60841 1.22005,0 1.5,1.64746 1.5,8.82715 l 0,8.82715 6.3653,1.17285 c 3.50091,0.64507 6.87591,1.17285 7.5,1.17285 0.77125,0 1.1347,-3.22977 1.1347,-10.08333 0,-7.6211 0.30524,-9.98211 1.25,-9.66879 0.86461,0.28674 1.33783,3.54655 1.53487,10.57303 0.26769,9.54597 0.41843,10.1909 2.5,10.69599 23.10159,5.60555 31.35962,8.01993 40.86209,11.94675 34.88682,14.4167 63.05247,20.71314 80.07048,17.89979 z m -6.49771,-57.94471 c 12.28074,-1.80136 23.44264,-5.2302 30.90393,-9.4934 22.3388,-12.76387 30.79736,-53.47854 15.49803,-74.59865 -6.77211,-9.34862 -30.16752,-16.65615 -61.62169,-19.24746 -7.15,-0.58904 -23.575,-1.03709 -36.5,-0.99567 -31.78984,0.1019 -40.23663,-1.505451 -64.5,-12.27376 -15.73098,-6.981554 -21.05584,-8.202814 -36,-8.256621 -11.437202,-0.04118 -13.711531,0.239526 -18.918811,2.335022 -6.745983,2.714695 -13.6519,8.615955 -17.032075,14.554289 -1.270276,2.231636 -3.311199,8.20931 -4.535383,13.28372 -1.826606,7.57153 -2.157712,11.33778 -1.846191,21 0.327652,10.16257 0.743138,12.55631 3.036086,17.49187 3.489233,7.51054 10.407827,14.7775 17.266445,18.13584 3.071539,1.50398 13.408735,4.49673 23.277559,6.73914 28.11708,6.38881 48.49672,12.51076 69.91432,21.00193 16.10649,6.38554 23.31184,8.57939 32.33805,9.84615 4.125,0.57891 8.625,1.2177 10,1.41954 6.86925,1.00832 29.11297,0.4672 38.71973,-0.94194 z m 6.34318,-11.84293 c -1.43996,-1.73505 -0.45281,-8.00732 1.51759,-9.64261 2.22417,-1.84589 9.83558,0.97635 10.23626,3.79551 0.71473,5.02876 -8.59105,9.65804 -11.75385,5.8471 z m 7.36566,-3.14723 c 2.21913,-2.21912 1.95922,-3.29314 -0.97514,-4.02961 -2.96714,-0.74471 -2.96962,-0.74286 -3.83181,2.85104 -0.54805,2.28451 -0.33005,2.75 1.2879,2.75 1.07119,0 2.65477,-0.70714 3.51905,-1.57143 z m -49.9615,-6.49225 c -0.87136,-1.68502 -1.44541,-4.49752 -1.27568,-6.25 0.28193,-2.91085 0.64129,-3.21366 4.1567,-3.50253 4.61573,-0.3793 7.65191,1.90172 7.65191,5.74869 0,6.96168 -7.52431,9.82186 -10.53293,4.00384 z m 6.49306,-1.38828 c 1.94201,-2.33998 0.82557,-5.08969 -1.93935,-4.77648 -3.26054,0.36936 -3.52765,0.82057 -2.20466,3.72421 1.30029,2.85383 2.41412,3.13666 4.14401,1.05227 z m -85.56461,-6.88425 c -4.45155,-3.82906 -0.96741,-6.39506 4.13966,-3.04878 2.81712,1.84584 3.19505,3.8908 0.88303,4.778 -2.15861,0.82834 -1.97644,0.89105 -5.02269,-1.72922 z m 148.57959,-5.22926 c -1.2542,-3.2988 0.16014,-6.03607 3.4431,-6.66365 2.83675,-0.54227 4.58179,0.78879 4.58179,3.49486 0,5.66371 -6.15264,8.09319 -8.02489,3.16879 z M 278,167.94098 C 278,167.42344 277.55,167 277,167 c -0.55,0 -1,0.70156 -1,1.55902 0,0.85746 0.45,1.2809 1,0.94098 0.55,-0.33992 1,-1.04148 1,-1.55902 z m -191.495538,0.0677 c -1.771984,-3.42664 -1.132172,-7.55378 1.316709,-8.4935 0.902372,-0.34627 1.77746,-0.21924 1.944639,0.2823 0.16718,0.50154 1.392519,0.7038 2.722977,0.44946 3.254916,-0.62221 4.314838,3.29839 2.066909,7.64541 -2.17448,4.20498 -5.909008,4.25894 -8.051234,0.11633 z M 93,163.6422 c 0,-0.53654 -0.296096,-0.67944 -0.657991,-0.31754 -0.361895,0.36189 -1.221832,0.19004 -1.910972,-0.38189 -1.869838,-1.55183 -2.759513,0.57495 -1.345646,3.21678 1.137552,2.12554 1.224727,2.13682 2.546244,0.32954 C 92.384236,165.45985 93,164.17875 93,163.6422 z m 75.77327,5.6078 c -3.96797,-4.51872 -2.77432,-10.62388 1.96687,-10.05993 3.5558,0.42295 4.21483,2.80993 0.77581,2.80993 -2.28365,0 -2.55659,0.31158 -1.97094,2.25 0.96108,3.18106 2.0651,4.11359 3.99384,3.37346 1.19601,-0.45895 1.49937,-1.33504 1.06355,-3.07149 -0.76864,-3.0625 0.94589,-4.26451 2.34743,-1.64572 1.46671,2.74058 1.3109,4.69016 -0.52126,6.52232 -2.08121,2.08121 -5.74601,1.99572 -7.6553,-0.17857 z m 65.68128,-6.70455 c -2.80591,-2.8059 -3.34403,-8.51312 -1.02166,-10.83548 2.40139,-2.4014 9.51912,-3.06338 11.70156,-1.0883 2.23706,2.02452 2.409,6.42674 0.40254,10.30681 -2.46821,4.77298 -7.23146,5.46796 -11.08244,1.61697 z m 7.71671,-2.20044 c 2.07707,-1.87972 2.46612,-7.17128 0.57874,-7.87159 -0.6875,-0.25509 -2.6,-0.0982 -4.25,0.34871 -3.59908,0.97476 -4.5089,4.40557 -1.92537,7.26034 2.12557,2.34872 3.23397,2.40072 5.59663,0.26254 z M 126.57143,158.42857 C 123.20245,155.05959 125.02528,151 129.90699,151 c 5.93573,0 7.83862,3.25439 4.09301,7 -2.40228,2.40228 -5.28836,2.56879 -7.42857,0.42857 z M 132,155.5 c 1.05275,-1.26848 0.84012,-1.5 -1.37756,-1.5 -2.53514,0 -3.33492,0.95418 -1.95577,2.33333 1.03485,1.03486 1.97871,0.79889 3.33333,-0.83333 z m 62.65499,-3.32874 c -2.00698,-2.21768 -2.14458,-5.52004 -0.29402,-7.05588 1.79229,-1.48747 8.63903,1.2577 8.63903,3.46378 0,4.9802 -5.1015,7.17614 -8.34501,3.5921 z m 4.78025,-2.06648 c 0.3043,-0.49236 -0.18355,-1.17796 -1.08411,-1.52353 -1.94685,-0.74708 -2.80894,-0.13102 -1.89225,1.35222 0.80368,1.30037 2.2279,1.38235 2.97636,0.17131 z m 12.10123,1.93551 c -2.01396,-2.2254 -1.48172,-6.46358 0.92782,-7.38821 1.7289,-0.66344 7.53571,3.8842 7.53571,5.90163 0,1.48801 -2.99983,3.44629 -5.27927,3.44629 -0.77592,0 -2.20883,-0.88187 -3.18426,-1.95971 z M 216,149.5 c 0,-0.825 -0.675,-1.5 -1.5,-1.5 -1.56157,0 -1.98397,1.1827 -0.83333,2.33333 C 214.8173,151.48397 216,151.06157 216,149.5 z m -130.443296,1.27749 c -2.009938,-2.86959 -1.974379,-5.18782 0.105917,-6.90505 1.296193,-1.06996 1.755343,-1.09695 2.083334,-0.12244 0.231391,0.6875 1.274638,1.25 2.318326,1.25 2.372586,0 3.674479,4.40492 1.924942,6.51299 -1.786014,2.15201 -4.638475,1.82586 -6.432519,-0.7355 z m 192.665216,-6.18977 c -0.8253,-1.81133 -0.84909,-3.35877 -0.0853,-5.5497 1.29085,-3.70294 3.68815,-3.91793 6.79626,-0.6095 1.88935,2.01113 2.12091,2.91345 1.3473,5.25 -1.31632,3.97567 -6.39972,4.54923 -8.05823,0.9092 z M 283.5,143 c 0.33992,-0.55 -0.0835,-1 -0.94098,-1 -0.85746,0 -1.55902,0.45 -1.55902,1 0,0.55 0.42344,1 0.94098,1 0.51754,0 1.2191,-0.45 1.55902,-1 z m -33.27749,0.4433 c -3.05637,-2.14077 -2.94322,-6.0456 0.19803,-6.834 4.91723,-1.23415 7.69866,2.34781 4.91222,6.32601 -1.73397,2.47558 -2.23063,2.52495 -5.11025,0.50799 z M 253,140 c 0,-0.55 -0.19844,-1 -0.44098,-1 -0.24254,0 -0.7191,0.45 -1.05902,1 -0.33992,0.55 -0.14148,1 0.44098,1 0.58246,0 1.05902,-0.45 1.05902,-1 z m -142.82569,-2.31445 c -2.41822,-2.57408 -2.83249,-5.9113 -0.92431,-7.446 1.84501,-1.48389 7.65584,-0.28401 8.77788,1.81255 1.71956,3.21303 -1.22061,7.9479 -4.93535,7.9479 -0.40915,0 -1.72234,-1.0415 -2.91822,-2.31445 z M 115,134.44098 C 115,133.64844 114.1,133 113,133 c -2.24979,0 -2.56481,1.03519 -0.83992,2.76008 1.3785,1.3785 2.83992,0.69969 2.83992,-1.3191 z m 37.05019,-0.88051 c -1.60123,-1.92936 -0.9496,-6.60877 1.09882,-7.89079 1.21387,-0.75971 2.33535,-0.58233 4.25,0.67219 3.18774,2.08869 3.34419,5.02416 0.37848,7.10143 -2.76273,1.93509 -4.19426,1.96438 -5.7273,0.11717 z M 156.5,130 c 0,-0.73333 -0.5625,-1.52083 -1.25,-1.75 -0.74359,-0.24786 -1.25,0.46111 -1.25,1.75 0,1.28889 0.50641,1.99786 1.25,1.75 0.6875,-0.22917 1.25,-1.01667 1.25,-1.75 z M 68.571429,127.42857 C 67.707143,126.56429 67,124.99966 67,123.95162 c 0,-3.8521 8.351166,-6.70354 8.596653,-2.93526 0.05316,0.816 0.441003,2.27687 0.861875,3.24637 1.70608,3.93006 -4.594049,6.45889 -7.887099,3.16584 z M 74,124 c 0,-2.17109 -0.737768,-2.45216 -2.878115,-1.09649 C 69.508452,123.92544 70.47129,126 72.559017,126 73.351558,126 74,125.1 74,124 z m 142.04568,3.55504 c -0.65956,-0.79472 -1.05216,-2.48222 -0.87244,-3.75 0.47741,-3.36778 6.34306,-3.9044 7.36832,-0.6741 0.5301,1.67021 0.13962,2.7088 -1.52531,4.05699 -2.70395,2.18952 -3.41455,2.242 -4.97057,0.36711 z m -45.40874,-7.06096 c -0.82826,-0.82826 -1.79772,-2.42529 -2.15436,-3.54896 -1.50417,-4.73922 6.41765,-10.16963 9.22822,-6.32595 4.18497,5.72329 -2.24685,14.70193 -7.07386,9.87491 z M 175.5,115.41667 c 0,-1.91398 -0.51096,-2.91667 -1.4863,-2.91667 -1.64445,0 -2.50638,2.77372 -1.59775,5.14157 0.94999,2.47562 3.08405,0.93605 3.08405,-2.2249 z M 88.654988,115.17126 C 86.710793,113.02295 86.506543,109.89346 88.2,108.2 c 1.668539,-1.66854 3.8,-1.50027 3.8,0.3 0,0.825 -0.45,1.5 -1,1.5 -1.868722,0 -1.01042,3.18451 1,3.71025 1.1,0.28766 2,1.14553 2,1.90638 0,1.98779 -3.399375,1.70453 -5.345012,-0.44537 z m 154.315492,-2.70683 c -1.81696,-2.1893 -0.0625,-4.96443 3.13851,-4.96443 1.99001,0 2.39101,0.50313 2.39101,3 0,2.28 -0.501,3.07158 -2.08751,3.29826 -1.14812,0.16404 -2.69703,-0.43618 -3.44201,-1.33383 z m -55.2448,-2.21506 C 185.65232,107.95834 187.20584,105 190.4823,105 c 3.19736,0 4.50457,3.80522 1.94912,5.6738 -2.3482,1.71705 -2.80502,1.67585 -4.70574,-0.42443 z m -63.13679,-2.3261 c -2.90147,-3.4482 -3.28946,-6.09696 -1.15281,-7.87022 1.75177,-1.453837 4.70663,-0.115085 7.01264,3.17719 1.96045,2.79895 1.95583,4.22236 -0.0202,6.19833 -2.18609,2.1861 -2.88521,2.00588 -5.83968,-1.5053 z M 129,106.05902 c 0,-1.17986 -1.95035,-2.442 -2.66667,-1.72569 C 125.61702,105.04965 126.87916,107 128.05902,107 128.57656,107 129,106.57656 129,106.05902 z M 76.464874,97.943165 c -0.359238,-0.58126 -0.377223,-2.15626 -0.03996,-3.5 C 76.898784,92.555093 77.696801,92 79.937265,92 c 5.869493,0 7.703338,2.21654 4.491306,5.428571 -1.779241,1.779242 -6.97462,2.114953 -7.963697,0.514594 z m 5.264293,-2.547332 c -0.332292,-0.332291 -1.194792,-0.367818 -1.916667,-0.07895 -0.797733,0.319226 -0.560776,0.556183 0.604167,0.604167 1.054166,0.04342 1.644791,-0.192928 1.3125,-0.52522 z" id="path2987" inkscape:connector-curvature="0"/></svg>