<?xml version="1.0" encoding="UTF-8" standalone="no"?><!--Created with Inkscape (http://www.inkscape.org/)--><svg xmlns="http://www.w3.org/2000/svg" xmlns:cc="http://creativecommons.org/ns#" xmlns:dc="http://purl.org/dc/elements/1.1/" xmlns:inkscape="http://www.inkscape.org/namespaces/inkscape" xmlns:rdf="http://www.w3.org/1999/02/22-rdf-syntax-ns#" xmlns:sodipodi="http://sodipodi.sourceforge.net/DTD/sodipodi-0.dtd" xmlns:svg="http://www.w3.org/2000/svg" id="svg2" width="400" height="400" version="1.1" inkscape:version="0.48.4 r9939" sodipodi:docname="053.png"><metadata id="metadata8"><rdf:RDF><cc:Work rdf:about=""><dc:format>image/svg+xml</dc:format><dc:type rdf:resource="http://purl.org/dc/dcmitype/StillImage"/><dc:title/></cc:Work></rdf:RDF></metadata><defs id="defs6"/><sodipodi:namedview id="namedview4" bordercolor="#666666" borderopacity="1" gridtolerance="10" guidetolerance="10" objecttolerance="10" pagecolor="#ffffff" showgrid="false" inkscape:current-layer="svg2" inkscape:cx="248.41823" inkscape:cy="296.28711" inkscape:pageopacity="0" inkscape:pageshadow="2" inkscape:window-height="480" inkscape:window-maximized="0" inkscape:window-width="640" inkscape:window-x="0" inkscape:window-y="0" inkscape:zoom="0.59"/><path id="path2987" d="m 147,398.4946 c 0,-0.82797 5.25866,-10.56812 11.68591,-21.64478 l 11.6859,-20.13937 -3.32891,-6.42058 c -6.18547,-11.93012 -24.58242,-29.44795 -51.87438,-49.3955 l -10.65398,-7.78693 -2.39218,2.19628 C 98.936856,298.22835 47.465927,352.25276 23.07258,378.27516 12.387499,389.67382 3.2749986,399 2.8225798,399 2.3701609,399 2,398.35171 2,397.55935 2,396.10524 57.13929,337.08261 86.133981,307.5 l 15.682019,-16 -4.908001,-3.3742 C 94.208599,286.26999 92,284.37284 92,283.9099 c 0,-0.91421 38.30124,-50.67129 56.64811,-73.59146 L 160,196.13687 l -0.0106,-6.31843 c -0.0255,-15.19081 -6.42465,-46.09916 -12.39808,-59.88332 -1.97523,-4.558 -3.58205,-8.99554 -3.5707,-9.8612 0.0126,-0.96204 16.2433,-12.15109 41.75,-28.781435 L 227.5,64.08497 230.89502,57.792485 C 235.34098,49.552126 238.76492,45 240.51705,45 c 0.7784,0 5.143,-3.308325 9.69911,-7.351834 C 254.77227,33.604657 262.325,27.47199 267,24.020016 275.66872,17.619122 299.8705,5.1737406 308,2.9364166 317.95983,0.19536844 335.50345,2.1552197 345.17518,7.0893692 358.05689,13.661128 372.03001,33.806294 379.51755,56.601058 381.57218,62.856091 387,85.229849 387,87.444102 c 0,0.262939 1.96891,2.895362 4.37536,5.84983 5.74924,7.058518 6.62736,8.837228 6.61057,13.390328 -0.018,4.8792 -5.89467,15.79677 -14.51297,26.96184 l -6.40695,8.30025 -2.4256,27.77683 c -2.00652,22.97771 -2.89312,29.2454 -5.13155,36.27682 -6.33456,19.89834 -11.87691,25.20897 -45.29448,43.40074 -5.65709,3.07959 -11.06955,5.59926 -12.0277,5.59926 -1.86842,0 -11.44746,-7.42635 -23.33753,-18.09292 l -7.34915,-6.59292 -7.5,0.7811 c -4.125,0.4296 -9.98188,0.80891 -13.01528,0.84292 l -5.51528,0.0618 -1.83697,5.25 c -3.34394,9.55687 -7.37411,15.4716 -13.15783,19.31061 -7.29498,4.84214 -10.18786,8.36209 -18.64867,22.69098 -3.97778,6.73663 -15.30381,25.07341 -25.16895,40.74841 -9.86514,15.675 -24.66547,40.0875 -32.88963,54.25 C 155.54323,388.4125 148.40614,400 147.90719,400 147.40823,400 147,399.32257 147,398.4946 z M 193.69513,319 c 11.51645,-18.425 23.83383,-38.39494 27.37194,-44.37765 4.64209,-7.84945 8.0655,-12.30364 12.29732,-16 13.40872,-11.71207 15.06966,-14.27747 19.82609,-30.62235 1.24205,-4.26814 1.59683,-4.59096 6.88563,-6.26539 7.65326,-2.42301 25.40074,-17.2803 63.19444,-52.90318 30.8247,-29.05415 36.33305,-34.80497 41.60387,-43.43509 4.43475,-7.26121 4.97371,-10.86464 2.08492,-13.93962 -2.85586,-3.03993 -3.01142,-3.03808 -9.27933,0.11011 -5.36974,2.69707 -12.33345,8.47077 -26.79896,22.21937 -5.18175,4.92495 -8.98941,7.84748 -9.3867,7.20466 -0.69863,-1.13041 2.83483,-6.05711 23.23215,-32.39263 12.93699,-16.703284 17.32891,-24.410765 19.22319,-33.735174 3.58111,-17.627649 -8.17624,-16.199158 -28.70934,3.488121 -3.03251,2.907592 -7.90445,10.791458 -16.9115,27.366503 C 311.37034,118.52296 305.07468,129 304.3385,129 303.60233,129 303,128.60932 303,128.13183 c 0,-0.4775 5.92746,-11.615 13.17213,-24.75 25.38928,-46.032226 30.92984,-58.173091 31.07998,-68.104637 0.15306,-10.125 -7.8276,-11.199033 -17.63889,-2.373832 -7.43795,6.690396 -15.08519,19.170987 -30.1615,49.224735 C 285.37258,110.19402 282,115.87444 282,111.52193 c 0,-0.81294 7.60384,-16.718407 16.89741,-35.345481 17.69862,-35.473269 21.09736,-44.594428 19.751,-53.005619 -0.98531,-6.155571 -6.75413,-8.902305 -12.85699,-6.121654 -1.37817,0.627936 -4.88625,5.546256 -8.73754,12.25 -6.65064,11.576458 -39.52597,61.104251 -48.22622,72.654434 -5.89424,7.82501 -13.38174,14.45315 -24.66059,21.83025 -5.57997,3.64966 -8.66478,5.11843 -9.3374,4.44581 -1.07944,-1.07944 -1.3135,-0.88059 11.04005,-9.37965 7.04758,-4.84864 7.55638,-5.46978 11.64004,-14.21014 12.74497,-27.278369 17.46021,-41.655953 16.07791,-49.024264 -1.11946,-5.967231 -8.82247,-10.425476 -12.71363,-7.35822 -1.38573,1.092325 -17.76261,28.546956 -22.95429,38.481178 -0.93088,1.781215 -3.03368,4.76609 -4.6729,6.633055 -1.63921,1.866966 -3.27725,4.97689 -3.64008,6.910941 -0.36283,1.93406 -1.36733,4.10375 -2.23222,4.82154 -2.31326,1.91984 -9.65384,11.71775 -12.65838,16.89589 -2.94906,5.08253 -11.60014,24.92741 -14.16788,32.5 -0.93249,2.75 -2.57074,9.25294 -3.64056,14.45098 C 174.4741,180.77544 171.75129,186.74413 165.02463,195 144.8038,219.81775 96,282.33805 96,283.42427 c 0,0.28313 3.4875,2.85264 7.75,5.71003 32.29521,21.64922 56.92038,43.71513 65.4649,58.66122 1.66507,2.91253 3.14301,5.16253 3.28431,5 0.1413,-0.16254 9.67946,-15.37052 21.19592,-33.79552 z m 119.45758,-80.09836 c -0.19101,-6.8209 -0.41601,-12.45588 -0.5,-12.52216 -0.13708,-0.10819 -24.50891,3.22894 -25.60566,3.50607 -0.24912,0.063 1.32588,1.96605 3.5,4.22912 5.65967,5.89121 20.75334,17.95462 21.94534,17.5395 0.62942,-0.21919 0.87726,-5.00569 0.66032,-12.75253 z m 17.37068,3.45124 c 25.43027,-14.11402 29.9714,-18.75705 36.00733,-36.81542 2.68991,-8.0477 4.78026,-27.46848 8.50717,-79.03746 1.09758,-15.18722 2.11322,-19.87574 3.5145,-16.22406 0.33988,0.88571 0.2383,7.00087 -0.22573,13.58925 -0.63941,9.07847 -0.56184,11.74495 0.32039,11.01277 1.98165,-1.64463 11.20306,-15.41521 13.84485,-20.67489 3.97327,-7.91061 3.42982,-10.72046 -3.67288,-18.990297 C 385.08123,90.860768 383.69464,87.280842 381.57115,76.5 379.32707,65.106894 374.13255,49.188718 369.95523,40.903914 362.89697,26.905404 352.33725,14.253346 344.28222,10.14398 340.46618,8.1971809 340.18662,8.1783659 339.75232,9.8391114 339.29461,11.589399 327.27823,18 324.4551,18 c -3.04539,0 -1.24109,-2.078871 4.2949,-4.948491 6.24382,-3.2365279 6.19237,-3.2433786 -7.15271,-0.952415 -6.64584,1.1409 -6.80701,1.235135 -4.33102,2.532436 4.53824,2.377824 5.89383,12.11542 3.09496,22.232079 -0.49015,1.771699 0.57226,1.049049 4.24243,-2.885678 C 331.09707,27.016446 336.00665,24 340.84376,24 c 4.81867,0 8.64412,3.456723 9.47212,8.55912 0.84532,5.209079 -2.56011,17.181694 -8.3119,29.222557 -2.74689,5.750371 -4.43402,10.032425 -3.74917,9.515675 0.68486,-0.516751 3.29605,-2.578263 5.80265,-4.581138 5.09811,-4.073597 12.35172,-7.660964 15.55768,-7.694252 3.33775,-0.03466 7.23866,3.681801 7.97296,7.595962 0.85995,4.583917 -1.66379,14.781728 -5.62413,22.725775 C 360.27596,92.729665 354.47061,101.125 349.06318,108 c -5.40743,6.875 -9.68236,12.66392 -9.49985,12.86426 0.18252,0.20034 2.94294,-1.85436 6.13426,-4.566 3.19133,-2.71165 7.15241,-5.75378 8.80241,-6.7603 1.65,-1.00652 4.278,-3.34871 5.84,-5.20486 3.47971,-4.135 8.10123,-6.645224 10.70998,-5.817237 2.7005,0.857107 2.61409,3.891057 -0.0907,3.183747 -1.27654,-0.33382 -3.03068,0.31789 -4.68445,1.7404 l -2.64375,2.27405 2.90519,1.39297 c 9.56967,4.58844 5.99981,16.65242 -9.93928,33.58876 l -7.90298,8.39745 6.16474,13.70338 c 3.3906,7.53686 6.15945,14.30338 6.15298,15.03671 -0.033,3.7472 -3.07035,-0.82011 -8.41369,-12.65191 -3.27039,-7.24166 -6.13798,-12.97484 -6.37241,-12.7404 -0.23444,0.23444 0.14616,6.07884 0.84578,12.98755 1.20188,11.86858 0.88905,15.74355 -1.02145,12.6523 -0.4627,-0.74867 -1.15333,-4.56063 -1.53473,-8.47104 -0.3814,-3.91041 -0.99085,-8.82179 -1.35435,-10.91419 l -0.6609,-3.80437 -22.7175,21.43604 c -33.25411,31.3783 -52.05826,46.93904 -58.09026,48.07065 -3.52699,0.66166 -6.53183,3.09578 -5.31894,4.30868 0.94002,0.94002 26.23806,-1.35907 45.69521,-4.15279 15.43144,-2.21569 17.70132,-2.83035 33.07486,-8.95637 9.07849,-3.61759 17.8615,-6.84845 19.5178,-7.17971 3.43287,-0.68658 6.33883,1.4651 6.33883,4.6935 0,2.52817 -3.73682,9.88873 -5.02032,9.88873 -1.43351,0 -1.19893,-2.25323 0.61264,-5.8846 2.02485,-4.05892 1.22999,-6.48542 -1.83739,-5.60907 -1.24021,0.35432 -9.67993,3.49598 -18.75493,6.98146 -9.075,3.48548 -17.2875,6.58748 -18.25,6.89333 -1.27048,0.40373 -1.75,1.61941 -1.75,4.43662 0,6.59709 1.25977,19.18226 1.92013,19.18226 0.34466,0 6.01613,-2.9912 12.60326,-6.64712 z M 379,98.551157 c -14.8065,-9.567736 -15.64541,-10.19957 -14.75423,-11.112264 1.07053,-1.096364 4.90371,0.858312 16.22279,8.272583 5.4827,3.591306 10.6577,6.630794 11.5,6.754414 1.97355,0.28966 1.99898,2.92729 0.0314,3.26156 -0.825,0.14016 -6.675,-3.08917 -13,-7.176293 z M 169.47415,183.00954 c 1.24528,-2.48025 3.25699,-9.18343 4.47045,-14.89595 4.73359,-22.28392 15.92325,-46.93344 27.59972,-60.79901 3.12844,-3.71496 5.47059,-7.580501 5.86415,-9.678364 0.3604,-1.921122 1.99094,-4.922774 3.6234,-6.670338 C 212.66434,89.218314 214,87.555568 214,87.270886 c 0,-0.284682 2.0473,-3.889789 4.54956,-8.01135 2.50226,-4.12156 4.39378,-7.64953 4.20337,-7.839934 -0.30084,-0.300849 -73.85973,47.353858 -75.26749,48.761628 -0.29201,0.29201 0.80978,3.51914 2.44844,7.1714 6.1781,13.76982 12.99306,45.18813 13.09939,60.39079 l 0.0333,4.75658 2.07173,-2.49046 c 1.13946,-1.36975 3.0906,-4.51975 4.33588,-7 z M 264.70155,73.646266 C 279.11503,52.575763 299,21.156561 299,19.453079 c 0,-0.258157 -4.1625,2.580552 -9.25,6.308242 C 273.45543,37.700607 264.44359,43 260.4349,43 c -2.72,0 -1.42579,-1.97696 2.3151,-3.536391 4.71474,-1.965397 14.13449,-8.008631 25.77319,-16.534773 C 300.81639,13.923222 310.97715,10.16462 330.5,7.401045 l 5,-0.7077795 L 332,5.836814 c -1.925,-0.4710484 -7.41697,-0.87455 -12.20437,-0.8966703 -9.98141,-0.046119 -14.86222,1.5458694 -33.06594,10.7852253 -11.67517,5.92577 -18.64899,10.698527 -31.57792,21.611369 -6.90921,5.831816 -8.02965,7.164985 -6.5,7.734158 3.33759,1.241898 7.28693,6.085551 7.98338,9.79118 1.14956,6.116476 -1.3076,16.24046 -7.46819,30.770435 C 245.93313,93.25963 242.5387,101.3 241.62379,103.5 l -1.66348,4 3.76985,-4.35373 c 2.07341,-2.39456 11.51054,-15.669557 20.97139,-29.500004 z" inkscape:connector-curvature="0" style="fill:#131313"/></svg>